<?xml version="1.0" standalone="no"?>
<!DOCTYPE svg PUBLIC "-//W3C//DTD SVG 20010904//EN"
 "http://www.w3.org/TR/2001/REC-SVG-20010904/DTD/svg10.dtd">
<svg version="1.0" xmlns="http://www.w3.org/2000/svg"
 width="696.000000pt" height="696.000000pt" viewBox="0 0 696.000000 696.000000"
 preserveAspectRatio="xMidYMid meet">
<metadata>
Created by potrace 1.14, written by Peter Selinger 2001-2017
</metadata>
<g transform="translate(0.000000,696.000000) scale(0.100000,-0.100000)"
fill="#000000" stroke="none">
<path d="M3470 6458 c-8 -24 -12 -47 -11 -53 1 -5 5 -37 8 -70 4 -51 1 -67
-17 -98 -13 -21 -21 -39 -19 -41 11 -9 59 -15 59 -8 0 15 54 69 77 76 18 6 21
12 17 46 -3 26 1 48 11 64 16 24 13 66 -5 66 -4 0 -21 -7 -36 -15 -49 -25 -57
-21 -51 30 9 60 -15 62 -33 3z"/>
<path d="M3180 6197 c-12 -27 -23 -57 -25 -69 -3 -12 -17 -40 -32 -62 -35 -52
-53 -86 -46 -86 3 0 1 -6 -5 -12 -5 -7 -15 -33 -22 -58 -6 -25 -13 -53 -16
-62 -9 -31 17 -20 58 24 l38 41 -4 -124 c-4 -122 -20 -219 -37 -219 -5 0 -8
20 -7 44 3 44 -13 76 -37 76 -7 0 -28 -34 -46 -75 -22 -48 -40 -75 -50 -75
-10 0 -15 -8 -14 -22 3 -39 -3 -43 -65 -41 l-60 3 0 -65 0 -65 -669 0 -669 0
-16 25 c-9 13 -42 51 -75 84 -42 42 -59 67 -59 86 0 27 -37 76 -55 72 -23 -4
-17 35 12 86 16 29 32 63 34 77 3 14 10 44 16 67 11 39 9 47 -19 105 l-31 63
-67 -1 c-37 -1 -73 -2 -80 -3 -7 -1 -26 -22 -43 -48 -30 -48 -32 -63 -14 -133
2 -8 4 -22 4 -31 1 -8 16 -40 34 -70 18 -30 32 -60 31 -66 -1 -7 -2 -17 -3
-23 0 -5 -7 -10 -15 -10 -25 0 -54 -47 -54 -89 -1 -34 -8 -45 -58 -92 -31 -30
-63 -60 -70 -67 -11 -10 -11 -20 0 -57 8 -24 14 -71 14 -104 1 -34 1 -64 2
-68 2 -13 -1 -227 -3 -243 -6 -36 -53 -130 -67 -131 -8 0 -53 -2 -100 -2 l-85
-2 -1 -37 c-2 -29 7 -51 39 -95 38 -55 41 -62 43 -138 1 -44 2 -83 3 -86 0 -3
24 -4 51 -3 34 3 50 0 51 -9 1 -6 2 -144 3 -304 l1 -293 -32 -6 c-36 -7 -84
-46 -103 -82 -21 -42 -21 -71 0 -117 11 -24 20 -48 20 -52 0 -5 -21 -29 -46
-53 -81 -79 -126 -147 -126 -190 1 -37 -1 -39 -51 -55 -64 -20 -122 -57 -165
-104 -37 -41 -79 -121 -86 -166 -8 -43 -17 -88 -22 -106 -4 -13 -25 -15 -144
-15 l-140 1 0 -1202 0 -1203 861 0 c837 0 862 1 899 20 48 25 89 77 97 123 5
31 -1 43 -57 116 l-63 80 1 258 c0 142 -2 266 -4 275 -4 13 -14 16 -45 13
l-39 -4 0 623 0 624 48 41 48 42 -1 102 0 102 -79 1 c-75 2 -104 13 -90 36 3
5 8 21 10 36 57 325 306 607 606 685 l56 15 38 -39 38 -39 91 0 90 0 35 40 35
40 70 -19 c309 -87 521 -315 595 -639 10 -44 16 -102 19 -192 1 -13 31 -15
210 -15 116 0 213 3 216 7 4 4 9 31 11 60 15 205 94 389 235 545 45 49 160
143 176 143 6 0 13 4 15 9 7 18 181 86 246 95 9 2 32 -15 52 -36 l37 -38 91 0
91 0 46 40 c25 22 48 40 49 40 4 0 66 -20 86 -27 8 -3 20 -7 25 -8 28 -7 116
-52 168 -87 116 -79 190 -169 286 -349 51 -96 108 -275 92 -292 -4 -4 -43 -8
-87 -10 l-79 -2 -1 -103 -1 -102 47 -40 47 -40 1 -625 c0 -692 6 -629 -64
-627 l-31 1 0 -274 -1 -275 -61 -79 c-43 -56 -61 -88 -61 -109 0 -34 33 -86
73 -116 28 -21 33 -21 908 -24 l879 -2 0 1200 0 1200 -22 1 c-13 0 -77 1 -142
2 l-120 2 -14 74 c-30 165 -121 275 -264 317 -46 14 -49 17 -44 45 3 22 -5 43
-36 89 -22 33 -49 67 -61 75 -12 8 -17 15 -12 15 5 0 2 6 -6 13 -8 6 -24 24
-37 38 -21 25 -22 27 -7 69 8 23 15 56 15 72 0 56 -51 122 -106 137 l-29 7 0
305 0 304 47 0 c25 0 49 3 53 7 4 4 8 42 9 85 1 64 6 87 28 125 23 42 33 82
29 126 -1 9 -27 12 -94 12 l-92 0 -30 64 -30 64 1 183 c1 101 5 195 9 209 19
69 18 80 -11 103 -86 67 -104 91 -108 141 -5 50 -30 86 -61 86 -21 0 -19 36 4
74 11 17 28 72 39 122 18 87 18 92 2 130 -10 21 -20 47 -24 57 -4 14 -18 17
-83 17 -43 0 -83 -4 -88 -8 -6 -4 -20 -29 -31 -57 l-21 -50 22 -96 c14 -61 30
-107 47 -130 29 -38 27 -59 -6 -59 -27 0 -57 -34 -60 -69 -4 -36 -16 -61 -30
-61 -10 0 -39 -31 -116 -122 l-25 -30 -600 1 c-330 0 -623 1 -652 1 l-52 0 -3
63 -3 62 -50 1 c-58 0 -77 9 -73 32 6 36 -81 152 -113 152 -9 0 -3 -95 7 -111
3 -5 -47 -9 -110 -9 -64 0 -116 4 -116 9 0 21 35 34 103 36 l72 2 -2 29 c-5
51 -6 149 -2 164 3 11 -8 16 -46 20 -27 3 -60 11 -72 18 -18 10 -23 9 -31 -4
-15 -27 -40 -10 -37 25 1 17 0 33 -4 35 -4 3 -25 -22 -46 -55 -33 -48 -47 -61
-80 -71 -82 -23 -144 -4 -191 58 -23 29 -28 47 -31 111 -4 82 5 106 56 153 15
14 33 35 39 47 10 18 9 23 -6 27 -9 3 -28 3 -42 0 -14 -3 -30 -6 -37 -8 -7 -1
-21 -10 -32 -20 -14 -13 -18 -24 -12 -39 6 -14 3 -32 -6 -51 -14 -26 -16 -27
-25 -12 -5 9 -7 24 -4 31 3 8 -8 24 -25 38 l-31 24 25 27 c29 31 28 59 -3 90
-19 20 -19 20 -40 -27z m302 -511 c69 2 103 7 133 22 22 11 43 18 47 15 5 -2
8 -41 8 -87 l0 -82 -169 0 -170 0 -16 56 c-9 30 -20 66 -24 80 -5 14 -4 32 2
42 10 14 15 13 53 -16 42 -32 45 -33 136 -30z m-2143 -313 c19 -23 29 -47 29
-65 -1 -17 4 -33 9 -36 6 -4 466 -7 1022 -6 917 1 1011 -1 1012 -15 1 -33 8
-129 14 -216 15 -193 19 -171 -39 -204 l-51 -29 -919 1 -920 0 -24 26 c-14 14
-31 36 -39 49 -11 15 -25 22 -48 22 -34 0 -34 0 -21 -70 2 -14 7 -46 11 -72
l6 -48 62 -1 c34 0 79 -1 100 -1 20 0 37 -3 37 -6 0 -2 -13 -27 -30 -54 -16
-26 -30 -53 -30 -58 0 -5 -10 -10 -22 -10 -13 0 -57 1 -99 1 l-76 0 0 -28 c-1
-63 7 -59 -127 -58 -69 0 -128 4 -132 8 -4 4 -8 22 -8 40 l-1 32 -95 1 -94 1
-27 59 c-15 32 -28 64 -28 69 -1 6 34 10 89 9 65 -1 93 3 101 12 6 8 9 14 6
14 -3 0 5 37 17 83 18 70 21 107 20 262 -1 99 -5 192 -8 206 -13 47 69 124
146 138 59 10 120 -12 157 -56z m4474 38 c15 -6 47 -31 72 -56 39 -38 44 -48
35 -65 -13 -24 -13 -398 0 -456 5 -22 10 -56 13 -77 3 -21 7 -41 10 -43 3 -3
46 -5 96 -5 57 0 91 -3 91 -10 0 -6 -11 -35 -25 -64 l-24 -54 -93 -3 -93 -3
-1 -30 c-1 -16 -2 -35 -3 -40 -1 -7 -49 -10 -133 -9 -162 2 -150 -1 -148 27 5
58 5 58 -72 56 -40 0 -78 0 -85 0 -10 1 -83 110 -83 124 0 3 39 5 86 4 47 -1
90 0 94 3 5 3 12 21 15 40 6 32 12 61 14 68 1 1 2 5 3 10 1 4 4 21 8 39 8 32
7 32 -26 31 -29 -1 -40 -9 -70 -50 -27 -36 -42 -48 -62 -49 -15 0 -428 0 -919
0 l-891 0 -43 21 c-69 36 -69 35 -55 185 3 33 8 103 11 155 4 52 9 97 11 100
3 2 456 5 1007 6 551 1 1005 2 1010 3 4 0 7 16 7 34 0 65 87 128 170 122 25
-1 57 -8 73 -14z m-2565 -31 l2 -30 -164 0 -165 0 1 30 1 30 161 0 162 0 2
-30z m337 -2 c-8 -18 -20 -45 -26 -60 -11 -28 -16 -30 -94 -30 -19 0 -42 0
-50 1 -11 1 -65 96 -65 116 0 3 56 5 125 5 l125 0 -15 -32z m438 20 c9 -30 -5
-48 -39 -48 -161 -3 -286 -1 -291 4 -3 3 -3 17 1 31 l6 25 159 0 c119 0 160
-3 164 -12z m1253 -750 c30 -38 43 -63 36 -67 -6 -4 -13 -25 -14 -46 l-3 -40
-50 0 c-63 -1 -76 3 -74 24 6 63 7 62 -93 59 l-92 -3 -1 -40 0 -39 -65 -1
c-86 -2 -90 0 -90 46 l0 39 -100 0 -100 0 0 -43 0 -43 -67 1 c-38 0 -73 4 -79
7 -6 4 -10 23 -9 42 l2 36 -93 0 -93 0 -3 -42 -3 -43 -68 0 c-38 -1 -71 4 -75
9 -3 6 -6 24 -6 41 l-1 30 -92 3 -93 3 0 -44 0 -44 -55 2 c-33 1 -55 -3 -56
-9 0 -6 -1 -101 -2 -211 l-2 -200 -355 0 c-195 0 -359 1 -365 2 -6 2 -10 80
-9 208 0 138 -3 205 -10 206 -6 1 -33 2 -61 3 l-50 1 -3 43 -3 42 -85 0 -84 0
0 -43 0 -43 -69 1 c-38 0 -73 4 -78 9 -4 4 -8 22 -8 39 l0 32 -92 3 -92 3 -3
-43 -3 -43 -65 -1 c-36 0 -70 3 -76 8 -6 4 -10 24 -9 43 l1 36 -100 -3 -101
-3 1 -37 c1 -21 -1 -39 -5 -39 -3 -1 -39 -2 -78 -3 l-73 -1 0 43 0 43 -100 -2
-100 -1 0 -42 0 -41 -43 1 c-76 3 -73 1 -69 43 4 36 2 40 -22 43 -26 3 -25 4
29 65 l56 62 1759 0 1760 0 46 -61z m-3905 -237 c7 -33 2 -1044 -5 -1049 -8
-4 -281 -7 -358 -3 -17 1 -18 33 -18 530 l0 528 190 0 c105 0 191 -3 191 -6z
m1616 -38 c2 -48 11 -44 -106 -47 l-64 -1 0 -50 c1 -105 -8 -95 88 -95 l84 0
-2 -47 -3 -48 -737 -1 -737 -1 0 46 0 46 47 0 48 0 0 70 c0 76 5 71 -67 74
-27 1 -28 4 -28 49 l0 49 738 -1 737 -1 2 -42z m2455 5 c2 -22 -1 -42 -6 -46
-6 -3 -32 -6 -58 -6 l-48 1 0 -74 0 -73 55 0 c58 0 57 1 57 -55 0 -14 0 -29
-1 -33 -1 -5 -335 -8 -743 -8 l-743 1 -3 43 c-2 29 1 42 10 43 7 0 49 1 93 2
l80 2 1 55 c2 88 0 92 -59 90 -29 -1 -69 -1 -89 -1 -38 1 -38 1 -38 44 0 24 2
46 5 49 3 3 338 6 745 6 l738 0 4 -40z m494 -490 c1 -381 -2 -528 -10 -529
-59 -4 -341 -3 -354 2 -17 6 -18 43 -16 530 1 288 2 525 3 525 0 1 85 1 189 0
l187 -1 1 -527z m-3436 93 c3 -1 5 -69 5 -152 0 -137 -2 -152 -20 -165 -30
-22 -112 -21 -157 2 l-28 15 0 149 c0 131 2 149 17 152 14 2 167 2 183 -1z
m2128 -147 c3 -180 1 -183 -96 -185 -99 -2 -102 3 -102 182 0 89 4 149 10 151
5 2 49 3 97 2 l88 -1 3 -149z m-2404 -6 c12 -62 11 -63 -69 -82 -144 -34 -306
-135 -436 -272 -130 -139 -222 -326 -255 -519 -13 -77 -15 -158 -4 -165 6 -3
49 -6 96 -5 63 2 87 -1 91 -11 6 -16 -5 -27 -66 -72 l-45 -32 -723 0 -723 0 0
55 c0 30 3 56 8 56 4 1 96 2 204 3 108 1 199 4 201 6 3 3 7 26 10 51 7 60 25
126 44 163 25 48 89 103 140 120 55 18 132 26 134 14 4 -22 5 -234 1 -244 -2
-7 -16 -14 -31 -17 -29 -6 -72 -69 -57 -84 4 -4 135 -8 290 -8 l282 0 -2 35
c-1 19 -2 37 -3 40 -1 3 -70 5 -154 4 l-152 -1 0 87 0 87 170 1 c94 0 180 1
192 1 21 1 27 11 37 61 11 54 15 68 40 130 33 82 103 203 147 255 169 199 365
329 540 360 19 3 35 8 37 9 1 2 13 4 26 4 19 0 25 -7 30 -30z m496 5 c51 -14
85 -28 180 -71 52 -24 137 -79 207 -134 53 -42 87 -78 179 -191 8 -9 14 -20
14 -24 0 -3 6 -14 14 -22 45 -50 167 -356 157 -395 -1 -4 1 -17 5 -29 5 -15
15 8 39 84 17 57 38 118 45 134 7 17 14 32 14 35 5 22 98 181 137 233 48 64
165 188 204 217 73 54 96 69 150 97 69 35 186 79 234 86 34 6 36 4 44 -48 5
-26 2 -31 -14 -32 -39 -3 -182 -56 -240 -89 -53 -29 -116 -72 -145 -99 -6 -5
-24 -22 -40 -36 -65 -58 -172 -203 -219 -298 -69 -138 -95 -215 -111 -331 -3
-19 -7 -40 -9 -46 -4 -12 -162 -17 -170 -4 -3 4 -7 25 -10 47 -6 47 -49 195
-71 243 -77 167 -133 251 -238 355 -118 117 -244 194 -391 241 l-70 22 -3 41
c-4 47 -11 46 108 14z m2098 12 c47 -11 58 -14 98 -28 45 -16 146 -66 154 -76
3 -3 25 -20 49 -36 58 -39 229 -209 268 -265 73 -108 135 -249 148 -341 4 -24
10 -48 15 -53 5 -4 93 -9 197 -10 l188 -1 0 -85 0 -85 -149 0 -149 0 -2 -37
c-2 -21 2 -38 9 -40 9 -3 497 -2 564 1 19 1 22 5 17 24 -10 31 -42 64 -70 71
-22 6 -22 8 -21 133 l1 128 50 -2 c62 -3 147 -44 180 -87 40 -52 65 -120 71
-193 4 -37 10 -70 14 -73 5 -3 99 -5 209 -4 111 0 202 -2 202 -5 4 -18 5 -88
1 -98 -3 -10 -167 -12 -723 -13 l-719 0 -57 42 c-83 62 -78 73 32 75 50 1 94
2 99 2 10 1 2 107 -13 188 -29 152 -133 370 -220 463 -14 15 -39 43 -56 61
-48 52 -173 147 -234 178 -64 33 -202 81 -230 81 -15 0 -20 9 -23 39 -6 67 -1
69 100 46z m-1238 -17 c39 -17 96 -76 111 -116 29 -75 9 -191 -40 -241 -98
-100 -238 -101 -335 -4 -96 96 -78 281 36 347 61 36 161 42 228 14z m-2212
-553 c4 -4 7 -40 7 -80 l0 -73 -192 0 -193 0 0 78 c0 42 2 79 4 81 7 7 367 1
374 -6z m4559 6 c8 -1 11 -26 10 -80 l-1 -80 -190 2 -191 2 -1 75 c-1 66 2 76
18 80 15 4 299 5 355 1z m-4406 -741 c12 0 16 -12 18 -48 l1 -49 -725 0 -725
0 0 48 c0 47 1 48 33 51 24 2 1299 1 1398 -2z m5319 1 c23 -1 25 -5 26 -46 0
-33 -4 -46 -15 -49 -9 -2 -335 -3 -726 -3 l-710 2 0 45 c0 44 1 45 35 50 27 4
1255 4 1390 1z m-6152 -196 c2 -47 6 -54 65 -110 l63 -60 -2 -140 c-1 -77 -3
-147 -3 -156 -1 -14 -29 -16 -246 -16 -218 0 -245 2 -246 16 -1 9 -1 80 -1
159 l0 143 56 59 c52 55 56 62 56 107 l0 49 128 0 127 -1 3 -50z m5802 8 c0
-24 0 -46 -1 -49 0 -3 8 -13 19 -22 11 -9 40 -35 65 -58 l45 -40 -1 -160 0
-160 -246 -1 -247 -1 -1 159 -1 158 57 60 c52 55 56 63 55 103 -1 24 0 45 2
48 1 3 59 6 128 6 l126 0 0 -43z m-4953 -106 l1 -57 -319 0 c-295 1 -320 2
-318 18 3 37 -2 48 -36 66 -19 11 -35 22 -35 26 0 3 159 6 353 6 l352 -1 2
-58z m5319 1 l1 -58 -68 0 c-38 0 -69 3 -70 8 -3 31 -11 48 -33 71 -14 15 -26
29 -26 32 0 3 44 5 97 5 l98 -1 1 -57z m-6576 34 c0 -4 -11 -16 -25 -26 -16
-12 -25 -29 -25 -45 0 -27 -1 -27 -67 -26 l-68 0 -3 53 -3 52 95 0 c53 0 96
-3 96 -8z m5840 3 c0 -2 -16 -12 -35 -21 -29 -14 -35 -22 -35 -48 l0 -32 -315
-1 c-177 -1 -316 3 -316 8 -4 28 -5 76 -1 87 3 9 83 12 353 12 192 0 349 -2
349 -5z m-5892 -266 l3 -56 -71 0 -70 0 0 57 0 57 68 -1 67 -1 3 -56z m1303
52 c3 0 5 -25 5 -53 l-1 -53 -313 -1 -312 -2 -6 23 c-4 17 0 88 5 90 3 2 617
-2 622 -4z m4518 -48 c0 -47 -2 -53 -22 -58 -12 -2 -155 -3 -317 -2 l-295 2 0
55 -1 56 317 0 317 0 1 -53z m812 48 c3 0 5 -25 5 -53 l-1 -53 -67 -2 c-38 -1
-69 2 -69 5 -4 19 -7 88 -4 98 2 8 106 13 136 5z m-5333 -240 c8 -1 11 -17 10
-56 -2 -47 -5 -55 -23 -56 -11 0 -336 -1 -722 -2 l-703 -2 0 57 c0 45 3 57 17
60 14 2 1379 1 1421 -1z m5323 0 c22 -1 21 -111 -1 -112 -8 0 -332 -1 -718 -2
-459 -1 -706 1 -711 8 -7 8 -8 83 -2 105 1 4 1360 5 1432 1z m-6516 -291 l0
-55 -122 -2 -123 -2 0 58 0 57 123 0 122 -1 0 -55z m1202 -2 l2 -57 -380 1
c-279 0 -379 3 -380 11 -4 44 -3 84 3 93 5 7 127 10 380 10 l373 -1 2 -57z
m4629 53 c6 0 10 -22 10 -53 l-2 -53 -379 0 -380 0 0 55 -1 56 371 -2 c203 -1
375 -2 381 -3z m694 0 c3 0 6 -25 6 -55 l-1 -54 -127 0 -128 0 0 52 c0 29 2
55 5 57 3 4 230 4 245 0z m-6522 -282 l3 -56 -126 -1 -125 0 0 57 0 57 123 0
122 -1 3 -56z m1208 1 c1 -30 2 -57 3 -60 0 -3 25 -6 54 -5 49 0 52 -2 53 -25
0 -14 -9 -36 -22 -50 -21 -23 -22 -34 -21 -167 0 -138 1 -143 24 -158 12 -9
23 -23 23 -33 0 -9 -25 -55 -57 -101 l-56 -83 20 -64 c19 -58 20 -64 5 -65
-19 0 -654 0 -663 1 -4 0 -6 56 -6 125 l0 125 264 0 264 0 -3 23 -3 22 -262 0
-262 0 1 25 c1 14 8 30 16 35 21 17 20 290 -1 332 -10 18 -17 40 -17 50 0 16
-8 18 -60 16 -56 -2 -60 0 -61 20 -2 23 -1 77 0 89 1 4 173 6 383 5 l383 -2 1
-55z m4637 23 c-2 -73 0 -70 -45 -70 -83 -2 -86 -2 -83 -20 1 -10 -4 -31 -12
-47 -11 -21 -16 -68 -17 -169 -1 -118 2 -144 16 -162 9 -12 15 -30 14 -41 -3
-18 -14 -19 -272 -19 l-269 0 -3 -22 c-2 -17 2 -23 15 -24 10 0 133 0 274 -1
l256 0 0 -122 0 -121 -341 1 c-188 1 -342 2 -343 3 -2 0 6 25 17 54 11 28 20
58 20 65 0 13 -52 95 -75 119 -7 6 -18 26 -25 43 -11 28 -11 36 4 61 25 42 27
300 3 327 -25 28 -22 62 6 63 12 1 34 2 49 3 36 2 42 10 44 64 1 26 2 48 3 50
0 1 173 1 383 0 l382 -3 -1 -32z m682 -23 l0 -55 -126 -2 -127 -2 -1 57 0 58
127 0 127 -1 0 -55z m-6525 -252 l0 -56 -125 -1 -125 -1 0 58 0 58 125 -1 125
0 0 -57z m510 0 l0 -59 -37 3 c-36 3 -36 3 -36 48 1 25 1 50 2 55 1 6 17 11
36 11 l35 1 0 -59z m5325 2 l0 -55 -40 0 -40 0 -1 50 c0 28 0 52 2 55 1 3 20
6 41 5 l38 0 0 -55z m681 47 c4 -4 8 -30 9 -57 l1 -49 -127 0 -128 0 1 52 c0
29 1 54 3 57 5 9 233 6 241 -3z m-6543 -236 c28 -1 28 -1 25 -63 l-3 -63 -120
0 -120 0 -3 62 -3 62 33 3 c18 2 62 2 98 1 36 -1 78 -2 93 -2z m537 -65 l0
-63 -38 -1 -37 -2 1 59 c2 73 5 79 44 73 30 -4 30 -5 30 -66z m6006 65 c8 -1
12 -84 5 -122 -1 -4 -57 -6 -126 -6 l-125 1 0 62 0 63 53 3 c43 2 145 2 193
-1z m-681 -63 l0 -63 -40 0 -40 0 -1 63 0 62 41 0 41 0 -1 -62z m645 -187 l45
-1 1 -54 c1 -64 7 -62 -146 -61 l-105 1 -3 57 -3 56 53 3 c29 2 67 2 83 1 17
-1 50 -2 75 -2z m-6480 -58 l0 -58 -125 0 -125 0 0 57 0 58 125 0 125 0 0 -57z
m508 0 c-3 -56 -3 -57 -35 -58 -18 -1 -33 1 -34 4 -13 85 -4 111 38 111 l34 0
-3 -57z m5327 0 c1 -48 -1 -53 -22 -54 -13 -1 -31 -2 -40 -3 -15 -1 -18 8 -19
49 -1 28 1 54 3 58 3 4 21 7 41 5 l37 -3 0 -52z"/>
<path d="M1102 5028 c1 -145 -10 -129 93 -129 25 0 56 0 70 0 l25 1 0 125 c0
69 -3 126 -7 127 -5 0 -47 2 -95 3 l-87 1 1 -128z"/>
<path d="M1538 5123 c-26 -28 -32 -54 -29 -133 1 -26 9 -40 29 -55 26 -20 43
-20 819 -21 764 0 793 0 799 18 3 10 18 21 33 24 27 6 28 8 27 68 -1 52 -5 67
-28 94 l-27 32 -798 0 -799 0 -26 -27z"/>
<path d="M5662 5146 c-9 -13 -7 -234 2 -243 7 -7 161 -7 173 0 6 4 10 215 4
248 -2 10 -171 6 -179 -5z"/>
<path d="M3765 5120 c-26 -27 -30 -39 -31 -92 -1 -57 1 -61 27 -70 15 -5 29
-17 32 -27 4 -17 46 -18 778 -18 752 -1 775 0 822 19 27 12 47 27 48 37 7 105
0 129 -46 159 l-35 22 -783 0 -783 0 -29 -30z"/>
<path d="M3252 4580 c-4 -3 -7 -21 -7 -41 l-1 -36 213 0 c143 0 216 3 220 10
12 20 12 56 0 64 -13 9 -414 11 -425 3z"/>
<path d="M3206 4311 c-3 -9 -4 -41 -3 -71 l2 -55 273 -1 273 -1 -3 71 -3 71
-267 1 c-235 0 -268 -2 -272 -15z"/>
<path d="M1126 4169 c-13 -20 -13 -24 5 -49 16 -20 19 -37 15 -71 -4 -38 -12
-51 -62 -96 l-57 -53 38 -89 c35 -85 36 -90 20 -114 -12 -19 -13 -25 -3 -24
48 2 56 -4 70 -45 10 -34 18 -43 36 -44 25 -1 51 19 53 42 4 40 5 41 43 48 38
7 42 13 16 21 -15 5 -19 12 -15 23 4 10 20 54 35 99 l28 82 -55 49 c-47 43
-54 54 -57 93 -2 26 2 56 11 73 11 22 12 34 4 52 -9 21 -18 24 -60 24 -40 0
-53 -4 -65 -21z m103 -280 l21 -52 -28 -49 -29 -49 -30 49 -30 48 30 52 c16
29 32 52 37 52 4 0 17 -23 29 -51z"/>
<path d="M1754 4321 c-2 -2 -4 -35 -4 -73 l0 -68 99 0 c70 0 100 4 103 13 3
10 3 75 -1 124 -1 8 -31 11 -97 10 -52 -1 -97 -4 -100 -6z"/>
<path d="M2122 4316 c-5 -6 -8 -38 -8 -71 l1 -60 100 0 100 0 0 70 0 70 -93 1
c-56 1 -95 -3 -100 -10z"/>
<path d="M2475 4322 c-3 -3 -5 -36 -5 -74 l0 -68 94 0 94 0 -1 73 -2 72 -87 1
c-48 0 -90 -1 -93 -4z"/>
<path d="M4290 4253 l0 -74 92 3 93 3 1 70 1 71 -94 0 -93 0 0 -73z"/>
<path d="M4642 4316 c-6 -9 -7 -48 -3 -118 1 -16 13 -18 99 -18 l99 0 -1 73
-1 72 -93 1 c-56 1 -95 -3 -100 -10z"/>
<path d="M4995 4322 c-3 -3 -5 -36 -5 -74 l0 -68 94 0 94 0 1 73 1 73 -90 0
c-49 0 -92 -2 -95 -4z"/>
<path d="M5686 4176 c-12 -19 -12 -26 0 -47 7 -13 13 -47 14 -75 0 -48 -2 -53
-46 -90 -26 -21 -51 -42 -57 -46 -6 -4 3 -43 25 -106 32 -93 33 -101 16 -105
-10 -3 -18 -10 -18 -17 0 -6 4 -9 9 -5 5 3 21 0 35 -6 24 -11 32 -33 27 -75 0
-5 19 -11 44 -13 46 -2 49 1 46 45 -2 23 33 44 77 45 l27 1 -27 10 c-18 6 -28
17 -28 29 0 17 37 106 71 170 6 12 -7 28 -56 68 l-65 51 4 50 c1 28 10 58 19
68 22 24 21 27 -4 51 -30 28 -93 26 -113 -3z m99 -382 c-14 -24 -30 -44 -34
-44 -5 0 -19 20 -32 45 l-24 45 29 56 30 56 28 -57 29 -56 -26 -45z"/>
<path d="M3440 3753 c-8 -3 -34 -26 -58 -50 l-42 -45 23 -43 c16 -28 21 -48
16 -58 -10 -17 16 -33 26 -17 11 17 23 11 42 -20 20 -35 38 -38 53 -9 8 14 19
19 38 17 21 -2 27 1 28 17 0 11 8 34 17 52 22 41 22 43 -8 75 -14 15 -25 34
-25 41 0 8 -6 19 -12 25 -16 13 -78 23 -98 15z"/>
<path d="M431 2090 l-35 -5 3 -65 c1 -36 6 -67 11 -70 6 -4 208 -5 308 -1 21
1 22 5 22 71 0 70 0 70 -27 71 -16 0 -77 1 -138 2 -60 1 -125 0 -144 -3z"/>
<path d="M6209 2085 c-1 -14 -1 -107 0 -122 1 -10 42 -13 171 -13 l171 0 -3
72 -3 73 -167 0 c-108 0 -168 -3 -169 -10z"/>
<path d="M1017 1103 c-10 -18 -4 -192 7 -196 6 -2 83 -3 171 -3 l160 1 0 100
0 100 -167 3 c-91 1 -169 -1 -171 -5z"/>
<path d="M1430 1007 l0 -103 55 0 c48 1 55 3 56 21 1 24 1 167 0 178 -1 4 -26
7 -56 7 l-55 0 0 -103z"/>
<path d="M5417 1103 c-2 -5 -3 -51 -3 -103 l1 -94 48 -1 c53 -2 49 -10 49 105
0 39 -1 77 -1 85 -1 11 -13 15 -45 15 -25 0 -46 -3 -49 -7z"/>
<path d="M5588 1103 c-4 -7 -3 -146 1 -183 1 -13 27 -15 174 -15 l172 0 3 103
3 102 -175 0 c-96 0 -176 -3 -178 -7z"/>
<path d="M3769 6207 l-20 -22 21 -3 c17 -3 20 -10 18 -42 -1 -23 -8 -42 -16
-45 -22 -8 -101 34 -120 64 -25 39 -25 39 -84 32 -4 -1 -2 -14 3 -29 6 -19 25
-36 53 -50 45 -23 47 -26 77 -149 10 -44 18 -54 51 -73 28 -16 49 -20 70 -16
22 4 37 1 50 -11 16 -14 20 -15 33 -2 24 24 -16 177 -60 229 -7 8 -13 33 -13
55 0 69 -1 73 -22 78 -13 3 -28 -2 -41 -16z"/>
<path d="M3423 6044 c-40 -24 -52 -42 -37 -56 3 -3 18 0 33 8 42 21 79 -2 116
-71 16 -30 33 -55 37 -55 21 0 43 114 25 128 -14 11 -123 72 -129 72 -1 -1
-22 -12 -45 -26z"/>
<path d="M3180 2018 l0 -648 -27 -1 c-16 -1 -34 -1 -40 0 -15 2 -14 22 -15
-313 l0 -269 -49 -82 -50 -83 17 -40 c22 -56 85 -109 137 -117 23 -4 182 -5
353 -3 l311 3 35 27 c39 30 68 82 68 122 0 14 -21 60 -47 103 l-48 78 0 285 0
285 -34 5 -34 5 0 643 c0 467 -3 642 -11 643 -6 1 -136 2 -288 3 l-278 1 0
-647z m460 523 c22 -1 22 -88 1 -93 -9 -2 -88 -4 -176 -3 l-160 0 -3 39 c-2
21 -1 43 1 50 3 8 52 11 163 9 88 0 166 -2 174 -2z m15 -298 l0 -58 -179 0
-179 0 1 38 c1 84 -19 75 180 77 l178 1 -1 -58z m-4 -177 c1 -6 2 -35 3 -63
l2 -53 -177 0 -177 0 -4 51 c-1 28 0 56 4 63 10 17 347 19 349 2z m-4 -240 c4
-4 8 -29 8 -57 l1 -49 -36 0 c-53 -1 -261 -1 -292 -1 -27 1 -28 3 -28 59 l0
57 170 -1 c93 0 173 -4 177 -8z m8 -285 l0 -56 -178 -1 -177 -1 0 57 0 57 178
0 178 0 -1 -56z m0 -226 c0 -49 1 -50 31 -51 17 -1 36 -4 42 -8 14 -8 9 -50
-7 -70 -9 -11 -14 -59 -15 -162 -1 -122 1 -148 15 -160 21 -19 18 -57 -6 -86
-11 -13 -39 -49 -63 -79 l-42 -56 20 -58 c11 -31 18 -60 16 -64 -7 -11 -336
-7 -337 4 0 6 7 35 16 66 l17 56 -65 82 c-66 84 -72 104 -43 140 7 9 11 69 12
157 1 120 -2 147 -16 161 -10 12 -14 27 -10 43 5 21 11 25 43 24 l37 0 0 51
c0 28 3 55 7 59 4 3 83 5 177 4 l171 -3 0 -50z"/>
<path d="M3330 1005 l0 -104 140 1 140 1 0 103 0 103 -140 0 -140 1 0 -105z"/>
<path d="M3379 787 c0 -1 -2 -12 -3 -24 -3 -21 0 -22 91 -21 89 0 93 1 93 23
0 21 -4 22 -90 23 -49 1 -90 1 -91 -1z"/>
</g>
</svg>
