<svg width="70" height="70" viewBox="0 0 70 70" fill="none" xmlns="http://www.w3.org/2000/svg">
<path fill-rule="evenodd" clip-rule="evenodd" d="M41.4995 14.0001L9.49968 14.0002C7.56669 14.0003 5.99969 15.5673 5.99969 17.5002V21.5001H2.99969V17.5002C2.99969 13.9104 5.90983 11.0003 9.49967 11.0002L41.4995 11.0001C45.0894 11.0001 47.9995 13.9103 47.9995 17.5001V21.236C48.7496 20.8526 49.5993 20.6363 50.4995 20.6363H55.0028C56.6486 20.6363 58.2079 21.3733 59.2526 22.645L65.1278 29.7967C66.23 31.1384 66.8325 32.8211 66.8325 34.5575L66.8325 45.0001C66.8325 48.5899 63.9224 51.5001 60.3325 51.5001H58.6259C58.5331 50.4075 58.1855 49.3876 57.6427 48.5001H60.3325C62.2655 48.5001 63.8325 46.933 63.8325 45.0001L63.8325 34.5575C63.8325 33.5157 63.471 32.5061 62.8097 31.701L56.9345 24.5493C56.4597 23.9713 55.7509 23.6363 55.0028 23.6363H50.4995C49.1188 23.6363 47.9995 24.7556 47.9995 26.1363V46.0001C47.9995 46.1012 48.0055 46.2009 48.0172 46.2989C46.3351 47.3871 45.1572 49.1881 44.9109 51.2743C44.467 51.4208 43.9925 51.5001 43.4995 51.5001L23.7782 51.5002C23.6854 50.4077 23.3379 49.3878 22.7952 48.5002L43.4995 48.5001C44.328 48.5001 44.9995 47.8285 44.9995 47.0001V46.0001V26.1363V17.5001C44.9995 15.5671 43.4325 14.0001 41.4995 14.0001ZM11.0233 48.5002L9.4997 48.5002C7.5667 48.5003 5.99969 46.9333 5.99969 45.0002V40.1668H2.99969V45.0002C2.99969 48.5901 5.90985 51.5003 9.49971 51.5002L10.0403 51.5002C10.1331 50.4077 10.4806 49.3878 11.0233 48.5002Z" fill="white"/>
<path d="M22.3327 51.5001C22.3327 54.5377 19.8703 57.0001 16.8327 57.0001C13.7951 57.0001 11.3327 54.5377 11.3327 51.5001C11.3327 48.4626 13.7951 46.0001 16.8327 46.0001C19.8703 46.0001 22.3327 48.4626 22.3327 51.5001Z" stroke="white" stroke-width="3" stroke-linecap="round" stroke-linejoin="round"/>
<path d="M57.1814 51.5001C57.1814 54.5377 54.719 57.0001 51.6814 57.0001C48.6438 57.0001 46.1814 54.5377 46.1814 51.5001C46.1814 48.4626 48.6438 46.0001 51.6814 46.0001C54.719 46.0001 57.1814 48.4626 57.1814 51.5001Z" stroke="white" stroke-width="3" stroke-linecap="round" stroke-linejoin="round"/>
<path d="M25.4995 21.4999H4.49951" stroke="white" stroke-width="3" stroke-linecap="round" stroke-linejoin="round"/>
<path d="M18.4995 30.8333H4.49951" stroke="white" stroke-width="3" stroke-linecap="round" stroke-linejoin="round"/>
<path d="M9.16618 40.1666H4.49951" stroke="white" stroke-width="3" stroke-linecap="round" stroke-linejoin="round"/>
</svg>
