<svg width="70" height="70" viewBox="0 0 70 70" fill="none" xmlns="http://www.w3.org/2000/svg">
<path fill-rule="evenodd" clip-rule="evenodd" d="M8.2204 32.0001C8.69552 32.0001 9.1032 31.6645 9.21271 31.2022C11.9792 19.5228 22.4747 10.8334 34.9999 10.8334C47.525 10.8334 58.0206 19.5228 60.787 31.2022C60.8965 31.6645 61.3042 32.0001 61.7793 32.0001H62.8199C63.4441 32.0001 63.9166 31.4338 63.7795 30.8248C60.8159 17.664 49.0559 7.83337 34.9999 7.83337C20.9438 7.83337 9.18386 17.664 6.22024 30.8248C6.08311 31.4338 6.55564 32.0001 7.17985 32.0001H8.2204Z" fill="white"/>
<path d="M8.1665 31.0001H61.8332" stroke="white" stroke-width="3" stroke-linecap="round"/>
<path d="M4.6665 65.3334H65.3332" stroke="white" stroke-width="3" stroke-linecap="round"/>
<path d="M34.9999 5.00006L34.9999 9.00006" stroke="white" stroke-width="3" stroke-linecap="round"/>
<path fill-rule="evenodd" clip-rule="evenodd" d="M11.6665 31.6667V55.6667C11.6665 58.4281 13.9051 60.6667 16.6665 60.6667H53.3332C56.0946 60.6667 58.3332 58.4281 58.3332 55.6667V31.6667H55.3332V55.6667C55.3332 56.7713 54.4377 57.6667 53.3332 57.6667H16.6665C15.5619 57.6667 14.6665 56.7713 14.6665 55.6667V31.6667H11.6665ZM18.6665 31.6667V34.5C18.6665 34.7762 18.8904 35 19.1665 35H22.8332C23.1093 35 23.3332 34.7762 23.3332 34.5C23.3332 34.7762 23.557 35 23.8332 35H27.4998C27.776 35 27.9998 34.7762 27.9998 34.5V31.6667H18.6665ZM32.6665 31.6667V34.5C32.6665 34.7762 32.8904 35 33.1665 35H36.8332C37.1093 35 37.3332 34.7762 37.3332 34.5V31.6667H32.6665ZM41.9998 31.6667V34.5C41.9998 34.7762 42.2237 35 42.4998 35H46.1665C46.4426 35 46.6665 34.7762 46.6665 34.5C46.6665 34.7762 46.8904 35 47.1665 35H50.8332C51.1093 35 51.3332 34.7762 51.3332 34.5V31.6667H41.9998ZM21.6665 50.6667V42.6667H29.6665V50.6667H21.6665ZM18.6665 40.6667C18.6665 40.1144 19.1142 39.6667 19.6665 39.6667H31.6665C32.2188 39.6667 32.6665 40.1144 32.6665 40.6667V52.6667C32.6665 53.219 32.2188 53.6667 31.6665 53.6667H19.6665C19.1142 53.6667 18.6665 53.219 18.6665 52.6667V40.6667ZM42.4998 49C42.2237 49 41.9998 49.2239 41.9998 49.5V53.1667C41.9998 53.4428 42.2237 53.6667 42.4998 53.6667H46.1665C46.4426 53.6667 46.6665 53.4428 46.6665 53.1667V49.5C46.6665 49.2239 46.4426 49 46.1665 49H42.4998ZM37.3332 44.8334C37.3332 44.5572 37.557 44.3334 37.8332 44.3334H41.4998C41.776 44.3334 41.9998 44.5572 41.9998 44.8334V48.5C41.9998 48.7762 41.776 49 41.4998 49H37.8332C37.557 49 37.3332 48.7762 37.3332 48.5V44.8334ZM42.4998 39.6667C42.2237 39.6667 41.9998 39.8906 41.9998 40.1667V43.8334C41.9998 44.1095 42.2237 44.3334 42.4998 44.3334H46.1665C46.4426 44.3334 46.6665 44.1095 46.6665 43.8334C46.6665 44.1095 46.8904 44.3334 47.1665 44.3334C46.8904 44.3334 46.6665 44.5572 46.6665 44.8334V48.5C46.6665 48.7762 46.8904 49 47.1665 49H50.8332C51.1093 49 51.3332 48.7762 51.3332 48.5V44.8334C51.3332 44.5572 51.1093 44.3334 50.8332 44.3334C51.1093 44.3334 51.3332 44.1095 51.3332 43.8334V40.1667C51.3332 39.8906 51.1093 39.6667 50.8332 39.6667H47.1665C46.8904 39.6667 46.6665 39.8906 46.6665 40.1667C46.6665 39.8906 46.4426 39.6667 46.1665 39.6667H42.4998ZM37.3332 35.5C37.3332 35.2239 37.557 35 37.8332 35H41.4998C41.776 35 41.9998 35.2239 41.9998 35.5V39.1667C41.9998 39.4428 41.776 39.6667 41.4998 39.6667H37.8332C37.557 39.6667 37.3332 39.4428 37.3332 39.1667V35.5Z" fill="white"/>
</svg>
