<svg width="31" height="30" viewBox="0 0 31 30" fill="none" xmlns="http://www.w3.org/2000/svg">
<rect x="2.86365" y="2" width="26" height="26" rx="5" stroke="#47474A" stroke-width="2" stroke-linecap="round" stroke-linejoin="round"/>
<path d="M20.8636 14.2125C21.0179 15.2528 20.8402 16.3153 20.3558 17.2488C19.8715 18.1823 19.1051 18.9393 18.1657 19.4121C17.2263 19.8849 16.1617 20.0495 15.1234 19.8824C14.0851 19.7153 13.1258 19.2251 12.3822 18.4815C11.6385 17.7378 11.1483 16.7786 10.9812 15.7403C10.8142 14.702 10.9787 13.6374 11.4516 12.698C11.9244 11.7586 12.6814 10.9922 13.6149 10.5078C14.5484 10.0234 15.6108 9.84575 16.6511 10C17.7123 10.1574 18.6947 10.6518 19.4533 11.4104C20.2118 12.1689 20.7063 13.1514 20.8636 14.2125Z" stroke="#47474A" stroke-width="2" stroke-linecap="round" stroke-linejoin="round"/>
<path d="M22.7386 8.125H22.7503" stroke="#47474A" stroke-width="2" stroke-linecap="round" stroke-linejoin="round"/>
</svg>
