<svg width="30" height="30" viewBox="0 0 30 30" fill="none" xmlns="http://www.w3.org/2000/svg">
<path d="M15.0163 3.00004L15.0175 3.00004C17.7933 3.00409 20.4818 3.97031 22.6252 5.73414C24.7685 7.49796 26.2341 9.95028 26.7723 12.6734C27.3105 15.3965 26.888 18.222 25.5767 20.6686C24.2655 23.1151 22.1467 25.0315 19.5811 26.0911C17.0156 27.1508 14.162 27.2883 11.5064 26.4802C8.85089 25.6721 6.55762 23.9683 5.01725 21.6592C3.47689 19.35 2.78469 16.5782 3.05858 13.816C3.33246 11.0537 4.55548 8.47188 6.51932 6.51016L6.52013 6.50935C7.63499 5.39312 8.95961 4.50841 10.4177 3.90613C11.8759 3.30386 13.4387 2.99592 15.0163 3.00004Z" stroke="#47474A" stroke-width="2"/>
<mask id="mask0_2966_10994" style="mask-type:alpha" maskUnits="userSpaceOnUse" x="2" y="2" width="26" height="26">
<path fill-rule="evenodd" clip-rule="evenodd" d="M15.019 2.00004C18.0261 2.00443 20.9386 3.05117 23.2606 4.96198C25.5825 6.87278 27.1703 9.52947 27.7533 12.4795C28.3363 15.4296 27.8786 18.4905 26.4581 21.1409C25.0376 23.7914 22.7422 25.8674 19.9629 27.0154C17.1835 28.1634 14.0921 28.3123 11.2153 27.4369C8.33846 26.5614 5.85409 24.7157 4.18536 22.2141C2.51662 19.7125 1.76675 16.7097 2.06346 13.7173C2.36016 10.7249 3.6851 7.92787 5.81259 5.80267C7.02064 4.59314 8.45598 3.63448 10.036 2.98187C11.616 2.32926 13.3095 1.99558 15.019 2.00004Z" fill="#C4C4C4"/>
</mask>
<g mask="url(#mask0_2966_10994)">
<path fill-rule="evenodd" clip-rule="evenodd" d="M23.4048 4.15643C22.8093 4.22222 22.5622 4.16592 21.5189 4.64753C21.3361 4.75606 20.9221 4.88426 20.7033 5.083C20.4004 5.28243 20.0926 5.38214 19.9277 5.59242C19.8118 5.66636 19.7421 5.7213 19.5937 5.81219C19.4971 5.84272 19.3322 6.00212 19.2418 6.06589C19.0265 6.2219 18.8113 6.27277 18.8754 6.59022C18.9472 6.96737 19.7621 7.14169 20.0388 6.90089C20.1568 6.8005 20.2548 6.65331 20.3735 6.53867C20.6861 6.23004 20.96 5.98313 21.2981 5.70027C21.9875 5.12981 22.879 4.59326 23.9989 4.52C24.2431 4.50508 24.5454 4.59801 24.533 4.35653C24.5226 4.10623 23.6663 4.12861 23.4048 4.15643ZM14.4703 18.3922C13.6581 18.1358 12.7376 18.3258 11.9889 18.6039C11.982 18.0992 11.9365 17.6576 11.8606 17.275C11.9793 17.2811 12.0966 17.2934 12.2229 17.3076C12.837 17.3734 13.4677 17.2038 13.9969 17.3754C14.0363 17.3897 14.5855 17.4826 15.1796 17.5816C14.9512 17.895 14.5407 18.4153 14.4703 18.3922ZM11.0912 18.6968C11.0367 17.6407 10.8228 17.0824 10.7283 16.883C10.6993 16.8158 10.6862 16.8002 10.6862 16.8002L11.0843 16.5499C11.1078 16.5832 11.4887 17.1936 11.568 18.6724L11.0912 18.6968ZM8.72856 16.3797C8.45186 16.3797 8.26486 16.3464 8.25382 16.3458H8.2559L8.34077 15.8865C8.34077 15.8852 8.48912 15.9137 8.72925 15.9137C9.19916 15.9137 9.94025 15.7997 10.3874 15.2157L10.76 15.4965C10.17 16.2623 9.26126 16.3797 8.72856 16.3797ZM7.51618 17.874L7.6466 17.7885C7.74527 17.6929 7.98126 17.5518 7.99437 17.4236L7.99576 17.3714C8.1172 17.8665 8.36353 18.4892 8.84655 19.2299C8.45393 19.1723 7.9509 18.8888 7.51618 17.874ZM5.50544 25.7716L5.49095 26.376C4.97895 26.4011 4.44142 26.4418 3.95012 26.4859C3.37187 26.5334 2.78673 26.6202 2.18916 26.6297C2.27473 26.4418 2.17191 26.1705 2.20849 25.9371C2.2285 25.8055 2.37754 25.6217 2.4493 25.4671C2.99719 24.2658 3.19385 22.8942 3.50298 21.5057C3.61546 21.9608 3.74656 22.3977 4.00118 22.7395C4.15644 22.9424 4.43728 23.0563 4.59461 23.2652C4.76504 23.4972 4.90649 23.8547 5.03967 24.1559C5.17698 24.4726 5.39503 24.7508 5.48267 25.0675C5.53925 25.2676 5.49578 25.5173 5.50544 25.7716ZM15.7758 8.10558C15.8938 7.83629 16.6149 7.69045 17.0179 7.81254C16.9344 8.41964 16.036 8.15781 15.7758 8.10558ZM15.4198 7.69384C15.3052 7.70198 15.2176 7.53579 15.1803 7.46593C15.2286 7.24615 15.3756 7.12541 15.5771 7.05215C15.5626 7.1695 15.4198 7.48017 15.4198 7.69384ZM23.1653 26.4859C23.097 26.3604 22.9273 26.045 22.812 25.9928C22.5202 25.8652 22.3187 26.0633 22.1344 26.1847C21.9509 25.6556 21.7611 24.841 21.6293 24.3024C21.5803 24.1036 21.4975 23.89 21.481 23.7014C21.4741 23.6207 21.5086 23.5305 21.4989 23.4457C21.4727 23.1954 21.2974 22.9512 21.2236 22.7212C21.1297 22.4424 21.0738 22.0138 21.0366 21.6481C20.9869 21.1537 20.8565 20.6449 20.7978 20.1206C20.7378 19.6098 20.6495 19.0929 20.537 18.593C20.321 17.6108 20.1961 16.5866 20.0036 15.5569C19.8125 14.5441 19.6696 13.486 19.5399 12.4468C19.404 11.3561 19.2784 10.2253 19.3743 9.19156C19.3895 9.01384 19.4516 8.82663 19.4675 8.66519C19.4896 8.33756 19.4399 7.9923 19.5199 7.71962C19.5592 7.5887 19.7207 7.42523 19.689 7.24751C19.5806 7.15865 19.435 7.24208 19.3005 7.23055C19.0203 7.2041 18.8582 7.0101 18.7257 6.84866C18.7064 6.75166 18.6967 6.6472 18.6519 6.57462C17.8583 6.58954 17.3208 6.47084 17.4119 5.66703C17.5126 4.75131 17.8797 3.36822 17.5057 2.55764C17.4001 2.33244 17.1414 1.92409 16.8578 2.01227C16.7612 2.16218 17.238 2.30598 17.2173 2.97344C17.2187 3.50931 16.9026 4.38705 16.9309 4.57427C16.895 4.66991 16.904 4.76895 16.8191 4.90325C16.7798 5.14066 16.6384 5.37536 16.6549 5.61073C16.6163 5.73215 16.57 5.7525 16.5825 6.01094C16.588 6.14932 16.5624 6.31957 16.599 6.42946C16.4086 6.62821 16.1429 6.66619 15.8952 6.73809C15.103 6.97008 14.4668 7.39063 13.8044 7.73861C13.1254 8.0954 12.59 8.59871 12.0669 9.08439C11.8854 9.25464 11.6936 9.4154 11.6032 9.64739C11.4038 9.87259 11.0084 9.97298 10.9553 10.302C10.8918 10.7239 11.2209 10.9993 11.5108 11.0834C11.5646 11.0997 11.6343 11.0834 11.6978 11.1017C11.8082 11.1363 11.9048 11.2231 12.0096 11.2469C12.7204 11.4097 13.3931 11.0936 13.9728 10.9396C14.8401 10.7062 15.8338 10.3684 16.637 10.2111C17.0538 10.5977 17.0848 11.3391 17.1159 12.0473C17.151 12.788 17.1586 13.602 17.1159 14.3203C17.0475 15.5189 16.5838 15.7197 16.0463 16.4122L16.0373 16.4265C15.9083 16.4271 15.7765 16.4319 15.6488 16.4305C15.1279 16.4305 14.5959 16.4543 14.0749 16.5052C13.5401 16.5574 13.0067 16.5418 12.5065 16.5961C12.247 16.6252 11.9579 16.6496 11.7074 16.6524C11.3645 15.5426 10.8297 15.0895 10.8297 15.0895C10.8297 15.0895 10.3274 14.5665 9.13844 14.9416C8.15653 15.2543 8.013 15.7705 7.98885 15.9415L7.98747 15.936C7.91571 15.8384 7.56379 15.7393 7.42647 15.702C7.24845 15.6539 6.98141 15.582 6.81029 15.5725C6.5398 15.5589 6.25205 15.6356 6.05539 15.7563C6.12025 16.0541 6.08506 16.0805 6.16234 16.3363C6.18718 16.4149 6.33554 16.8423 6.4004 16.8776C6.22169 17.2391 6.24032 17.4663 6.34176 17.9025C6.5184 17.9072 6.78061 17.9412 7.03179 17.9412L7.03661 17.9622C7.55758 19.2951 8.36422 19.7082 8.98663 19.7082H9.00389L9.16673 19.6939C9.27299 19.8384 9.38685 19.9869 9.51312 20.1355C9.2447 20.4014 8.99077 20.691 8.80998 20.9739C8.61471 21.2846 8.38975 21.6427 8.25313 21.9961C7.96745 22.7457 7.76942 23.9659 7.83774 25.0221L7.58933 24.9346C7.5638 24.8715 7.5355 24.8206 7.51549 24.7948C7.39542 24.6388 7.02696 24.5188 6.86687 24.3221C6.66262 24.067 6.57222 23.6872 6.36797 23.3934C6.21755 23.1798 5.97466 22.9559 5.77731 22.7579C5.55788 22.5422 5.35433 22.3638 5.18458 22.1209C5.01138 21.874 4.87613 21.6102 4.72433 21.3565C4.56562 21.0906 4.34205 20.8789 4.18748 20.6469C4.05017 20.4435 3.88594 20.069 3.74311 19.9747C3.24008 19.6546 2.70392 20.0962 2.61422 20.4842C2.58248 20.6246 2.6501 20.7582 2.63216 20.9217C2.61767 21.058 2.48864 21.1801 2.4293 21.3212C2.23057 21.8042 2.16363 22.496 2.02079 23.1757C1.85174 23.9788 1.67441 24.7725 1.57574 25.5776C1.26729 25.7113 0.957461 25.6204 0.689731 25.7038C0.18187 25.8612 -0.152788 26.218 -0.307355 26.7057C-1.09606 26.8576 -1.93375 26.6548 -2.76869 26.61C-3.73196 26.5673 -4.78495 26.6405 -5.61781 26.7396C-5.70751 26.3577 -5.85933 25.967 -6.15121 25.7397C-6.30439 25.621 -6.57902 25.4555 -6.80052 25.3768C-7.04617 25.288 -7.58853 25.075 -7.87558 25.1774C-7.97909 25.5532 -7.77484 26.4384 -7.68997 26.8875C-7.8611 27.0713 -8.16539 27.0496 -8.4 27.4572C-8.19989 27.58 -7.57749 27.5637 -7.31873 27.5773C-7.04824 27.5915 -6.74531 27.6282 -6.48586 27.6112C-6.26919 27.599 -6.08013 27.4728 -5.91383 27.4674C-5.80205 27.4674 -5.64058 27.6818 -5.48808 27.6926C-5.32938 27.713 -5.16722 27.7408 -5.02301 27.7482C-4.12804 27.8154 -3.12129 27.6472 -2.38227 27.6051C-1.33205 27.5454 -0.4564 27.5108 0.488248 27.5888C1.53571 27.6723 2.56316 27.4973 3.68652 27.5515C6.02641 27.6621 8.66715 27.6316 11.0657 27.5515C11.891 27.519 12.7321 27.5176 13.4904 27.6241C14.148 27.7136 14.709 27.6668 15.495 27.7143C15.8641 27.7353 16.4645 27.8323 16.8937 27.8323C17.3284 27.8323 17.7845 27.8473 18.0612 27.7408C18.2137 27.6797 18.4504 27.4722 18.5587 27.3412C19.1652 26.6032 19.3384 25.4983 19.2377 24.4265C19.1928 23.9666 18.903 23.5366 18.9934 23.1086C19.0528 22.8352 19.1652 22.494 19.2377 22.1759C19.3081 21.8476 19.2073 21.4636 19.2777 21.1387C19.3122 20.963 19.4619 20.7752 19.5406 20.6605C19.6006 20.5757 19.6358 20.1029 19.7421 20.1063C19.7511 20.1063 19.9001 20.3044 19.9457 20.3763C20.2327 20.8504 20.1955 21.4935 20.3893 22.0673C20.4666 22.2939 20.5253 22.4893 20.5743 22.7056C20.6322 22.958 20.6378 23.1784 20.6681 23.447C20.6992 23.7353 20.8813 23.8547 20.9641 24.069C21.0518 24.2922 21.0877 24.5873 21.1663 24.8681C21.2802 25.2615 21.4685 25.8245 21.4803 26.3238L21.3526 26.3394C21.227 26.378 21.0221 26.591 20.9434 26.705C20.7509 26.9926 20.6322 27.6655 20.7164 27.9999C21.1663 28.0053 21.9385 27.8147 22.2593 27.5651C22.3062 27.6234 22.6554 27.7577 22.732 27.7638C23.0598 27.8018 23.1674 27.8303 23.48 27.8317C23.5552 27.616 23.4958 27.3073 23.422 27.0496C23.3772 26.8868 23.2481 26.6446 23.1653 26.4859Z" fill="#47474A"/>
</g>
</svg>
