<svg width="30" height="30" viewBox="0 0 30 30" fill="none" xmlns="http://www.w3.org/2000/svg">
<path d="M15.0163 3.00004L15.0175 3.00004C17.7933 3.00409 20.4818 3.97031 22.6252 5.73414C24.7685 7.49796 26.2341 9.95028 26.7723 12.6734C27.3105 15.3965 26.888 18.222 25.5767 20.6686C24.2655 23.1151 22.1467 25.0315 19.5811 26.0911C17.0156 27.1508 14.162 27.2883 11.5064 26.4802C8.85089 25.6721 6.55762 23.9683 5.01725 21.6592C3.47689 19.35 2.78469 16.5782 3.05858 13.816C3.33246 11.0537 4.55548 8.47188 6.51932 6.51016L6.52013 6.50935C7.63499 5.39312 8.95961 4.50841 10.4177 3.90613C11.8759 3.30386 13.4387 2.99592 15.0163 3.00004Z" stroke="#47474A" stroke-width="2"/>
<path fill-rule="evenodd" clip-rule="evenodd" d="M23.6478 20.9141V20.8465L23.6256 20.8007L23.6033 20.7549L23.5811 20.7091L23.5367 20.6633L23.4922 20.6404L23.4478 20.6175L23.4034 20.5946L23.3378 20.5717H23.1011L23.0134 20.5946L22.9256 20.6175L22.8145 20.6404L22.7034 20.6633L22.5712 20.6862H22.1012L21.9246 20.6633L21.7024 20.6175L21.4801 20.5499L21.2579 20.4595L21.0357 20.345L20.8135 20.2087L20.5913 20.0495L20.3691 19.8674L20.1469 19.6636L19.9247 19.4597L19.7025 19.2307L19.6147 19.1402L19.4603 19.0498L19.3492 18.9135L19.217 18.7772L19.0848 18.618L18.9303 18.4589L18.7759 18.2768L18.5992 18.0947L18.4226 17.9126L18.2459 17.7305L18.0482 17.5015L17.8504 17.2977L17.6526 17.0938L17.476 16.89L17.2782 16.6861L17.0804 16.4823L16.8827 16.2785L16.6849 16.0964L16.5083 15.9143L16.3316 15.7322L16.155 15.5501L15.9783 15.3909L15.8239 15.2547L15.6694 15.1184L15.515 15.0039L15.3828 14.8894L15.2283 14.7748L15.1172 14.7073L15.2717 14.571L15.4694 14.3889L15.6916 14.1851L15.9339 13.9812L16.1761 13.7774L16.4183 13.5484L16.6827 13.3193L16.976 13.0869L17.2404 12.8372L17.5049 12.5876L17.7693 12.3379L18.0559 12.0654L18.3637 11.8157L18.6715 11.5661L19.0048 11.3164L19.3381 11.0874L19.6714 10.8584L20.0047 10.6545L20.338 10.4724L20.6713 10.2903L21.0046 10.1312L21.2268 10.0407L21.4246 9.97314L21.6224 9.90557L21.799 9.85976L21.9534 9.81396L22.1079 9.79105L22.2401 9.76815L22.3512 9.74525H22.6156L22.6601 9.72234L22.7045 9.69944L22.7267 9.67654L22.749 9.65363V9.59065L22.7267 9.56774V9.54484L22.7045 9.49903L22.6601 9.45323L22.5945 9.43032L22.529 9.40742L22.4634 9.38452L22.3756 9.33871L22.2879 9.31581L22.1557 9.27L22.0234 9.22419L21.869 9.20129L21.7146 9.17839H21.0757L20.8991 9.20129L20.7224 9.22419L20.5247 9.27L20.3269 9.31581L20.1047 9.38337L19.8625 9.47384L19.7303 9.51965L19.5981 9.56545L19.4658 9.63302L19.3336 9.70058L19.2225 9.76815L19.1114 9.83571L19.0003 9.90328L18.8892 9.97085L18.8014 10.0384L18.7137 10.106L18.6481 10.1735L18.5826 10.2193L18.4948 10.2423L18.4504 10.2652L18.4281 10.2193L18.4059 10.1518L18.3615 10.0613L18.317 9.97085L18.2315 9.88038L18.1659 9.76586L18.0782 9.65134L17.9904 9.56774L17.8793 9.47728L17.7248 9.38681L17.5704 9.29634L17.416 9.20587L17.2393 9.1383L17.0416 9.07074L16.8194 9.02493L16.5971 8.97913L16.3549 8.95622L16.0905 8.93332H15.435L15.2806 8.95622L15.1261 8.97913L14.9717 9.00203L14.8173 9.02493L14.6628 9.07074L14.5084 9.11655L14.3762 9.16235L14.244 9.20816L14.1118 9.27573L13.9795 9.34329L13.8684 9.41086L13.7573 9.50132L13.6462 9.59179L13.5585 9.68226L13.4707 9.79678L13.4051 9.9113L13.3607 10.0258L13.3385 10.1621V10.2984V10.453L13.3607 10.5892L13.4051 10.7255L13.4496 10.84L13.5151 10.9545L13.5807 11.045L13.6685 11.1355L13.7562 11.226L13.8673 11.2935L13.9784 11.3611L14.0895 11.4069L14.2006 11.4527L14.3117 11.4985L14.4228 11.5214L14.5339 11.5443L14.6451 11.5672H15.0895L15.2006 11.5443L15.2883 11.5214L15.3761 11.4985L15.435 11.4733L15.4794 11.4275L15.5239 11.3817L15.5461 11.3359V11.313L15.5683 11.2672V11.1332L15.5461 11.0874V11.0645L15.5239 11.0416H15.5017L15.4794 11.0187H14.9906L14.925 10.9958L14.8595 11.0633L14.7484 10.9958L14.6828 10.9282L14.6173 10.8377L14.5728 10.7473L14.5506 10.6568L14.5284 10.5663V10.4301L14.5506 10.3843L14.5728 10.3384L14.5951 10.2926L14.6395 10.2468L14.6839 10.201L14.7495 10.1552L14.815 10.1094L14.9028 10.0636L14.9906 10.0178L15.1017 9.99489L15.2339 9.97199L15.3661 9.94909L15.5205 9.92618L15.6972 9.90328H16.0938L16.2705 9.92618L16.4249 9.94909L16.5571 9.97199L16.6894 10.0178L16.8005 10.0636L16.8882 10.1094L16.976 10.177L17.0416 10.2445L17.1071 10.3121L17.1516 10.3797L17.196 10.4472L17.2182 10.5148L17.2404 10.5824V10.8114L17.2182 10.9019L17.196 10.9923L17.1738 11.0828L17.1293 11.1733L17.0638 11.2637L16.9982 11.3783L16.9105 11.4928L16.7994 11.6291L16.6227 11.7882L16.5116 11.9028L16.3794 12.039L16.2249 12.1753L16.0483 12.3345L15.8716 12.4937L15.6739 12.6757L15.4517 12.8578L15.2295 13.0617L14.9873 13.2655L14.7228 13.4945L14.4584 13.7236L14.1718 13.9732L14.0395 14.0877L13.7529 13.9973L13.4451 13.9068L13.1374 13.8392L12.8041 13.7717L12.4296 13.7259L12.0774 13.6801L11.7252 13.6572V11.2523L11.7475 11.0931L11.7697 10.9568L11.7919 10.8423L11.8364 10.7278L11.8808 10.6373L11.9252 10.5698L11.9697 10.5022L12.0141 10.4564L12.0797 10.4106L12.1452 10.3648L12.2108 10.3419L12.2763 10.319L12.3419 10.2961L12.4074 10.2732L12.473 10.2503L12.5463 10.2239L12.6119 10.201L12.6774 10.1781L12.7885 10.1106L12.8763 10.043L12.9418 9.97543L13.0074 9.90786L13.0518 9.8403L13.074 9.77273L13.0963 9.70516V9.65936V9.341H7.2V9.65821V9.72578L7.22222 9.79334L7.24444 9.86091L7.28888 9.92847L7.33332 9.99604L7.39888 10.0636L7.48665 10.1312L7.59775 10.1987L7.65775 10.2239L7.7233 10.2468L7.78885 10.2697L7.8544 10.2926L7.91995 10.3155L7.99106 10.3384L8.05661 10.3613L8.12216 10.3843L8.18771 10.4301L8.25326 10.4759L8.2977 10.5217L8.34215 10.5892L8.38659 10.6568L8.43103 10.7473L8.47547 10.8618L8.49769 10.9763L8.51991 11.1126L8.54213 11.2718V14.0408L8.45436 14.1084L8.27771 14.1988L8.12327 14.2893L7.99106 14.3798L7.87995 14.4702L7.76885 14.5847L7.68108 14.6993L7.61553 14.8138L7.57109 14.9283L7.54887 15.0646V15.2008V15.3371L7.57109 15.4516L7.61553 15.5662L7.68108 15.6807L7.76885 15.7711L7.87995 15.8616L7.99106 15.9521L8.12327 16.0426L8.27771 16.133L8.45436 16.2006L8.60879 16.2681V18.9914L8.58657 19.1505L8.56435 19.3326L8.54213 19.4471L8.49769 19.5376L8.47547 19.6281L8.43103 19.6957L8.38659 19.7632L8.34215 19.809L8.25437 19.8548L8.18882 19.9006L8.12327 19.9235L8.05772 19.9464L7.99106 19.9579L7.92551 19.9808L7.88106 20.0037L7.81551 20.0266L7.74996 20.0495L7.68441 20.0724L7.57331 20.14L7.48554 20.2075L7.41999 20.2751L7.35443 20.3427L7.30999 20.4102L7.28777 20.4778L7.26555 20.5454V20.6129V20.9301H13.1663V20.6129V20.5671L13.1007 20.4996L13.0785 20.432L13.0341 20.3644L12.9685 20.3014L12.8807 20.211L12.793 20.1434L12.6607 20.0976L12.5952 20.0747L12.5296 20.0518L12.4852 20.006H12.4196L12.3541 19.9831L12.2863 19.9579L12.2208 19.9121L12.1552 19.8892L12.0897 19.8434L12.0241 19.7976L11.9797 19.7518L11.9352 19.6842L11.8908 19.6166L11.8464 19.5262L11.8019 19.4357L11.7797 19.3212L11.7575 19.1849L11.7353 19.0257V16.6025L11.933 16.5796L12.1552 16.5338L12.353 16.488L12.5296 16.4422L12.6841 16.3964L12.8163 16.3506L12.9485 16.3048L13.0596 16.259L13.1474 16.2132L13.2129 16.1674L13.2574 16.1445H13.2796L13.3018 16.1903L13.3463 16.2361L13.3907 16.2819L13.4351 16.3495L13.5007 16.417L13.5662 16.4846L13.6318 16.5522L13.6973 16.6197L13.7629 16.6873L13.8284 16.7548L13.8729 16.8224L13.9173 16.8682L14.0284 17.0045L14.1606 17.1637L14.2929 17.3229L14.4473 17.5049L14.6017 17.687L14.7784 17.8691L14.955 18.0729L15.1317 18.2768L15.3083 18.4806L15.485 18.6845L15.6828 18.8883L15.8805 19.0921L16.0783 19.296L16.2549 19.4998L16.4316 19.7037L16.6083 19.8857L16.7849 20.0678L16.9393 20.227L17.0938 20.3862L17.226 20.5225L17.4482 20.7515L17.6704 20.9553L17.9571 21.1374L18.2215 21.2966L18.4859 21.4558L18.7503 21.5921L19.037 21.7066L19.3236 21.797L19.6314 21.8646L19.9391 21.9104L20.2469 21.9333H21.1057L21.3479 21.9104L21.5701 21.8875L21.7923 21.8646L21.9901 21.8417L22.1879 21.7959L22.3645 21.7501L22.5412 21.7043L22.7178 21.6367L22.8723 21.5692L23.0267 21.5016L23.1811 21.434L23.2922 21.3665L23.38 21.2989L23.4678 21.2313L23.5333 21.1638L23.5778 21.0962L23.6 21.0286L23.6222 20.9611V20.9153H23.6667L23.6478 20.9141ZM12.5463 15.1734V15.0588L12.5241 14.9913L12.4796 14.9237L12.4141 14.8562L12.2819 14.7886L12.1941 14.721L12.083 14.6752L11.9508 14.6294L11.8186 14.5836L11.6641 14.5378L11.5097 14.5149L11.3331 14.492H10.6353L10.4587 14.5149L10.3042 14.5378L10.1498 14.5836L10.0176 14.6294L9.88538 14.6752L9.77427 14.721L9.66317 14.7886L9.57539 14.8562L9.50984 14.9237L9.4654 14.9913L9.44318 15.0588V15.2627L9.4654 15.3303L9.50984 15.3978L9.57539 15.4654L9.66317 15.5329L9.75094 15.6005L9.86204 15.6463L9.99426 15.6921L10.1265 15.7379L10.2809 15.7837L10.4353 15.8066L10.612 15.8295L10.7886 15.8525H11.1408L11.3175 15.8295L11.4942 15.8066L11.6486 15.7837L11.803 15.7379L11.9352 15.6921L12.0675 15.6463L12.1786 15.6005L12.2663 15.5547L12.3541 15.4871L12.4196 15.4196L12.4641 15.352L12.4863 15.2844V15.2627L12.5519 15.1722L12.5463 15.1734Z" fill="#47474A"/>
</svg>
