<svg width="56" height="28" viewBox="0 0 56 28" fill="none" xmlns="http://www.w3.org/2000/svg">
<path fill-rule="evenodd" clip-rule="evenodd" d="M43.2221 10.1125C43.2221 10.1125 22.7783 9.73287 16.4398 10.9298C15.1092 11.3022 16.0138 11.879 16.7948 12.3522C17.9043 13.0229 22.8915 11.2003 35.1171 11.0916C40.4625 11.0443 43.366 10.9645 43.366 10.9645C43.366 10.9645 43.7953 10.95 43.8015 10.5806C43.8091 10.2111 43.6097 10.0984 43.2221 10.1125ZM19.6058 5.78191C20.3538 5.7364 20.8523 5.31418 20.902 4.77891C20.9347 4.40076 20.7635 4.08978 20.4611 3.86729C20.1497 3.6383 19.4938 3.69429 18.8781 3.69501C18.5877 3.69537 17.7295 3.69501 17.6102 3.69501C17.4561 3.69501 16.7139 3.69501 16.7139 3.69501L16.7215 4.94217C16.7215 4.94217 16.8419 4.98587 17.046 4.95517C17.5214 4.84031 17.2915 4.58388 17.4634 4.36681C17.6102 4.1826 19.2694 3.92111 19.1783 4.83237C19.1192 5.4424 18.3227 5.5699 17.8205 5.52295C17.7429 5.52331 17.7096 5.55906 17.7096 5.63202L17.6976 6.03799C17.6976 6.13262 17.7571 6.20088 17.8437 6.20088L18.1109 6.20052C18.4677 6.20052 19.2262 6.18644 19.2262 6.99548C19.2262 7.59287 19.0243 7.91902 18.3009 7.9378C17.8992 7.94827 17.1508 7.90891 17.1073 7.11395C17.0935 6.88026 17.1671 6.57868 16.8213 6.57976C16.4456 6.58048 16.4286 7.00848 16.4286 7.3256C16.4286 8.13139 17.2291 8.54567 18.3281 8.53953C19.4343 8.53339 20.8904 8.11731 21.0191 7.07349C21.1203 6.21063 20.3324 5.87546 19.604 5.83934C19.5572 5.83717 19.5634 5.78372 19.6058 5.78191ZM5.56007 5.90074L5.551 5.96178L5.54593 5.97478L5.51946 6.03474L5.51728 6.04305L5.47341 6.103L5.47015 6.10842L5.4096 6.16151L5.40597 6.16585L5.33273 6.21569L5.32911 6.21858L5.24318 6.2677H5.24136L5.14166 6.31321H5.13912L5.02926 6.35077L5.02708 6.35258L4.90635 6.38797L4.77437 6.41831H4.77147L4.63224 6.43962L4.48649 6.4584H4.48431L4.3313 6.46888H4.32985L4.17286 6.47213L4.01514 6.46924H4.0126L3.85706 6.45877H3.85488L3.70876 6.43998L3.5699 6.41867H3.567L3.43828 6.38834L3.31501 6.35294L3.3132 6.35113L3.2037 6.31357H3.20116L3.10073 6.26806H3.09892L3.01299 6.21894L3.01009 6.21605L2.93721 6.16621L2.93286 6.16187L2.87303 6.10878L2.86796 6.10336L2.82517 6.04341L2.82336 6.0351L2.7958 5.97514L2.79073 5.96214L2.78166 5.9011V5.89027L2.79073 5.82814L2.7958 5.81695L2.82336 5.75555L2.82517 5.74688L2.86796 5.68837L2.87303 5.68331L2.93286 5.62985L2.93721 5.6266L3.01009 5.57315L3.01299 5.57098L3.09892 5.5215H3.10073L3.20116 5.4778H3.2037L3.3132 5.43843L3.31501 5.4359L3.43828 5.40123L3.567 5.37017H3.5699L3.70876 5.34994L3.85488 5.32971H3.85706L4.0126 5.31996H4.01514L4.17286 5.31707L4.32985 5.31996H4.3313L4.48431 5.32971H4.48649L4.63224 5.34994L4.77147 5.37017H4.77437L4.90635 5.40123L5.02708 5.4359L5.02926 5.43843L5.13912 5.4778H5.14166L5.24136 5.5215H5.24318L5.32911 5.57098L5.33273 5.57315L5.40597 5.6266L5.4096 5.62985L5.47015 5.68331L5.47341 5.68837L5.51728 5.74688L5.51946 5.75555L5.54593 5.81695L5.551 5.82814L5.56007 5.89027V5.90074ZM15.3383 10.8493V10.8431L15.3289 10.8002L15.3245 10.79L15.3053 10.7489L15.3039 10.7449L15.281 10.7099L15.2785 10.707L15.2502 10.6741L15.2488 10.6719L15.2154 10.642L15.2121 10.6391L15.1784 10.6145L15.1763 10.6127L15.1389 10.5932H15.1371L15.099 10.5766L15.0947 10.5741L15.0316 10.5585H15.0276L14.9609 10.5527H14.8851L14.8101 10.5614H14.809L14.7288 10.5737L14.6429 10.5903C12.921 10.8218 12.3507 9.96294 11.0596 8.58034L10.912 8.42431L10.7561 8.26142V8.25961L10.5948 8.09311L10.4298 7.92335V7.92083L10.2619 7.7489C9.67492 7.14862 9.08138 6.54509 8.44942 5.99176L8.31237 5.87329L8.18546 5.76855V5.76638L8.06727 5.67464L7.94037 5.57495L7.85226 5.50705L7.98532 5.39762L8.16697 5.24195L8.35986 5.07327C9.05637 4.47408 9.73474 3.85826 10.4106 3.23667L10.6825 3.0131L10.9602 2.78953L11.2431 2.57752L11.5302 2.37417L11.8232 2.18058L12.1129 2.0054L12.4037 1.84432L12.6904 1.6966L12.9754 1.5691L13.1705 1.49397L13.3518 1.43402L13.5182 1.38309L13.6734 1.34553L13.8144 1.31555L13.9428 1.29749L14.0526 1.28051L14.1556 1.26932L14.243 1.26246L14.3188 1.25379H14.3206L14.379 1.2462H14.3829L14.4279 1.23609L14.4352 1.23356L14.4667 1.2155L14.4765 1.20864L14.4943 1.18769L14.5037 1.16855L14.5102 1.13063L14.5088 1.11148L14.4979 1.07717L14.4943 1.06236L14.4707 1.02986L14.4638 1.02516L14.4279 0.992654L14.4239 0.990126L14.3764 0.96087V0.956175L14.3209 0.928002H14.3191L14.2575 0.900553L14.1926 0.873103H14.1908L14.1204 0.847098L14.0113 0.809174H14.0091L13.888 0.78028H13.8862L13.7524 0.760415H13.7502L13.6081 0.744884L13.4573 0.737299H13.4555L13.3017 0.732965L13.1767 0.737299H13.1752L13.0403 0.744884L12.8924 0.757887H12.8909L12.7321 0.780641L12.5592 0.809535H12.5567L12.3732 0.853599L12.172 0.906693H12.1705L11.958 0.976401L11.8456 1.01721H11.8446L11.7343 1.06417L11.6227 1.11907H11.6205L11.5114 1.17469L11.4055 1.23753L11.2996 1.30002L11.2967 1.30255L11.1995 1.36323L11.106 1.42318L11.0183 1.48241L10.9396 1.53659L10.8732 1.58752L10.8134 1.63086L10.7655 1.6659L10.7307 1.68901L10.7177 1.64928V1.6482L10.6945 1.58535L10.6916 1.5821L10.6608 1.51239L10.6194 1.43077L10.6169 1.42788L10.5654 1.34553V1.34264L10.5056 1.25307L10.5041 1.24981L10.4294 1.16205L10.4287 1.15952L10.3439 1.07645H10.3417L10.2442 0.995182L10.2416 0.993015L10.1209 0.912111L10.118 0.90886C9.20285 0.39201 8.00708 0.386954 7.03937 0.77125L6.92226 0.826511H6.92081L6.80841 0.885022L6.80623 0.88755L6.70363 0.952202L6.61044 1.02335L6.60827 1.02552L6.52125 1.1039L6.51726 1.10606L6.44112 1.19022L6.43967 1.19275L6.37586 1.28088L6.37441 1.28593L6.32329 1.38309L6.32075 1.38598L6.28195 1.48892L6.2805 1.49614L6.25693 1.60666V1.61316L6.24896 1.73019V1.7356L6.2544 1.8743V1.87899L6.2776 2.00504L6.2805 2.01118L6.31495 2.12712L6.31712 2.13218L6.36353 2.23873L6.36716 2.24089L6.42336 2.33372L6.42589 2.3395L6.49369 2.42546L6.49732 2.42907L6.57201 2.50383H6.57455L6.65613 2.57174L6.65794 2.57463L6.74822 2.63097L6.75003 2.63278L6.84249 2.68479H6.84612L6.94075 2.72741H6.94365L7.04191 2.76461L7.04408 2.76786L7.1427 2.79784L7.24205 2.82167H7.24386L7.34067 2.83684L7.4353 2.85093H7.43784L7.52703 2.85815H7.52812L7.61586 2.8596H7.69309L7.81528 2.85635H7.81927L7.92151 2.84334L8.00817 2.82565H8.01034L8.08286 2.80506L8.08793 2.80325L8.14413 2.77544L8.14921 2.77255L8.19453 2.74294L8.19852 2.74005L8.23296 2.70754L8.2384 2.70393L8.26088 2.67034L8.26523 2.66023L8.27865 2.62339L8.28844 2.56054V2.54898L8.2859 2.50636L8.28336 2.49589L8.27176 2.46374L8.26088 2.44785L8.2384 2.42943L8.22825 2.42365L8.19852 2.41209L8.19272 2.40993L8.15501 2.40668H8.14957L8.1057 2.40993L8.0553 2.41426L7.99801 2.42185H7.99693L7.94109 2.42979L7.88018 2.43124H7.81963L7.75727 2.42365L7.69563 2.40632L7.59266 2.36695L7.50419 2.31241L7.43095 2.24812L7.37402 2.17877L7.33088 2.1022L7.30622 2.02202L7.29208 1.94111L7.29716 1.86129L7.30369 1.82626L7.31783 1.78725L7.33523 1.75294L7.36097 1.71249L7.39252 1.67167L7.43349 1.63447L7.48679 1.59691L7.5477 1.5626C8.05276 1.30977 9.1481 1.29605 9.55346 1.73921L9.59443 1.79375L9.62416 1.84901L9.64736 1.90608L9.66005 1.9599L9.66948 2.01769L9.67166 2.07114L9.66767 2.15313L9.65606 2.23909L9.63504 2.31638L9.60639 2.39693L9.55962 2.47964L9.5085 2.56524L9.44142 2.66239L9.35984 2.75991L9.26303 2.86718L9.15064 2.98493L9.04477 3.09148L8.92548 3.2038C8.39503 3.70368 7.79533 4.18694 7.23407 4.65828L6.97701 4.87426L6.85446 4.97973L6.61479 4.89666L6.61298 4.89449L6.34613 4.81828L6.06586 4.75435H6.06368L5.77181 4.6962L5.46689 4.65467H5.46435L5.14565 4.62108L4.84326 4.60049V2.69345L4.84906 2.54501L4.86066 2.41246L4.87843 2.29471L4.9049 2.19791L4.93499 2.10834L4.97016 2.03574L5.0104 1.97037L5.055 1.91728L5.10032 1.87141L5.15036 1.83673L5.20329 1.80459L5.25949 1.77678L5.31497 1.7533L5.3737 1.73091L5.43063 1.71646L5.48792 1.69948H5.49082L5.54883 1.68143V1.67781L5.60503 1.65542H5.60684L5.65941 1.63411H5.66268L5.75948 1.5821L5.7613 1.58029L5.84288 1.52359H5.84541L5.91176 1.46977L5.91648 1.46436L5.96688 1.40657L5.96869 1.40151L6.00531 1.34589L6.00785 1.343L6.03504 1.28918L6.03613 1.28304L6.05208 1.2332L6.05462 1.22814L6.06405 1.17794V1.17324L6.06622 1.13026V0.900553H0.863647V1.13026L0.865098 1.17324V1.17794L0.874162 1.22814L0.876337 1.2332L0.895191 1.28304L0.897004 1.28918L0.922022 1.343L0.92456 1.34806L0.962267 1.4044L0.965531 1.40657L1.01484 1.46436L1.01955 1.46652L1.083 1.52178L1.0859 1.52359L1.16821 1.58029L1.17038 1.5821L1.27046 1.63411L1.32267 1.65542H1.3252C1.83208 1.86238 2.01301 1.81037 2.08298 2.54429L2.08625 2.69273V4.92628L1.95028 4.98226L1.80416 5.05413H1.80235L1.66965 5.12998L1.66747 5.13251L1.54927 5.21341L1.5471 5.21594L1.44195 5.30226H1.43905C1.02934 5.71509 0.999613 6.14779 1.43905 6.55267L1.44195 6.5552L1.5471 6.63647H1.55072L1.66965 6.70906V6.71123L1.80235 6.78202H1.80416L1.95028 6.84342H1.95137L2.08625 6.89471V9.08491L2.08298 9.23516L2.07029 9.36735L2.05071 9.48329L2.02678 9.58298L1.99524 9.66822L1.96188 9.74479L1.92055 9.80655L1.87704 9.86289L1.83136 9.90226L1.77915 9.94344L1.7273 9.97522L1.67219 10.003L1.61526 10.0272L1.55616 10.0485L1.49815 10.0655L1.44231 10.0818H1.43941L1.37995 10.1002V10.1038L1.32557 10.1255H1.32303L1.27082 10.1471L1.17075 10.1984L1.16857 10.2006L1.08627 10.2573L1.08337 10.2598L1.01992 10.3133L1.0152 10.3162L0.965893 10.3725L0.96263 10.375L0.924922 10.4314L0.922384 10.4368L0.897004 10.4913L0.895191 10.4971L0.876337 10.5477L0.874162 10.5538L0.865098 10.6022V10.6073L0.863647 10.6503V10.8771H6.06622V10.6495L6.06405 10.6066V10.6015L6.05462 10.5531L6.05208 10.547L6.03613 10.4964L6.03504 10.4906L6.00785 10.4357L6.00531 10.4328L5.96869 10.3779L5.96688 10.3714L5.91648 10.3151L5.91176 10.3104L5.84541 10.2562H5.84288L5.7613 10.1995L5.75948 10.1973L5.66268 10.1461H5.65941L5.60684 10.1244H5.60503L5.54883 10.1027V10.0991L5.49082 10.0807H5.48719L5.4299 10.0644L5.37298 10.0475L5.31424 10.0261L5.25877 10.003L5.20257 9.97594L5.14963 9.94416L5.0996 9.9066L5.05428 9.86326L5.00968 9.80691L4.96943 9.74515L4.93426 9.66858L4.90417 9.58334L4.8777 9.48365L4.85994 9.36772L4.84906 9.23516L4.84326 9.08491V7.15693L5.02382 7.13201L5.21562 7.10275L5.39074 7.06699H5.39401L5.55064 7.02618L5.69422 6.98645H5.6964L5.82221 6.94636V6.94347L5.93316 6.90591H5.93678L6.02815 6.86834L6.10429 6.83439L6.16375 6.80478L6.2069 6.78455H6.2098L6.22394 6.77624L6.23083 6.78455L6.25476 6.81453L6.28993 6.85462L6.3309 6.90302L6.37876 6.95647L6.42952 7.0139L6.481 7.0753L6.53539 7.13742L6.58833 7.19955L6.64054 7.26167H6.64235L6.69202 7.31476L6.7359 7.36822L6.77433 7.413L6.87766 7.52461L6.99115 7.65247L7.11587 7.78863H7.11841L7.25329 7.93527L7.3965 8.09094L7.5477 8.25203C8.29315 9.05963 9.6557 10.7236 10.7677 11.3286H10.7703L11.0117 11.4413H11.0139L11.2626 11.5366V11.5391L11.5179 11.6168H11.5197L11.7826 11.6771H11.7836L12.0512 11.723H12.0534L12.325 11.749H12.3261L12.6016 11.7573C13.4109 11.7483 14.0254 11.728 14.7763 11.4095L14.9203 11.343L15.0207 11.2885L15.0236 11.2859L15.1066 11.2318L15.1763 11.1816L15.1799 11.1783L15.2343 11.1245L15.2375 11.1205L15.2781 11.0696L15.2829 11.0613L15.3097 11.0107L15.3111 11.0086L15.3303 10.9591L15.3318 10.9486L15.3391 10.8998V10.8923L15.3383 10.8493ZM43.4693 8.25492V8.25131L43.465 8.22458L43.4643 8.22277L43.4545 8.19641L43.453 8.19207L43.4371 8.16282L43.4342 8.15993L43.4113 8.12959L43.4099 8.12814L43.3802 8.0978L43.3754 8.096L43.3348 8.06602L43.333 8.06494L43.2819 8.0346L43.2808 8.03207L43.1122 7.94286L43.0807 7.92985L43.0509 7.91035L43.0248 7.89121L43.0005 7.86448L42.9781 7.83414L42.9578 7.79622L42.94 7.74674L42.9255 7.6875L42.9153 7.61888L42.9077 7.53833L42.8932 7.43106C42.8954 7.3935 42.8954 7.35522 42.8954 7.3144V4.76266C42.8954 4.36175 43.0422 4.14107 43.3388 4.09989L43.3392 3.67081H40.7363V4.09989C41.0329 4.14937 41.2236 4.42134 41.1801 4.77458C41.1801 5.08483 39.6656 6.32693 39.6656 6.32693V4.76266C39.6656 4.57449 39.7044 4.42134 39.7816 4.30288C39.8606 4.18405 39.9723 4.11687 40.1213 4.09989V3.67081H37.5068V4.09989C37.8034 4.14937 37.9513 4.37006 37.9513 4.76266V7.3144C37.9513 7.36244 37.9521 7.40975 37.9528 7.4549L37.9466 7.54556L37.9357 7.61816L37.9173 7.69509L37.9057 7.75396L37.8875 7.80344L37.8672 7.84137L37.844 7.87207L37.8212 7.89915L37.7929 7.91721L37.7653 7.93636L37.7323 7.94972L37.5645 8.04001L37.5641 8.04182L37.5108 8.0718L37.5101 8.07324L37.4702 8.10286L37.4651 8.10611L37.4358 8.13537L37.4347 8.13717L37.4115 8.16679L37.4089 8.17112L37.3941 8.19857L37.3908 8.20435L37.3814 8.23036L37.3796 8.23252L37.3752 8.25889V8.2625L37.3727 8.28526V8.41311H37.5101L37.5072 8.41781H40.1881V8.27875L40.1859 8.256V8.25239L40.1815 8.22566L40.1797 8.22386L40.171 8.19749L40.1674 8.19316L40.1525 8.1639L40.1503 8.16101L40.1275 8.13067L40.126 8.12923L40.0963 8.09889L40.0905 8.09708L40.0506 8.0671L40.0485 8.06602L39.9966 8.03568V8.03099L39.8273 7.94177L39.7965 7.92877L39.7667 7.90927L39.7399 7.89012L39.7156 7.8634L39.6942 7.83306L39.6732 7.79513L39.6562 7.74565L39.6431 7.68642L39.6333 7.61779L39.6282 7.5777C39.6293 7.43504 39.6805 7.27828 39.7899 7.14754L41.1804 5.5959V7.31332C41.1804 7.34546 41.1822 7.37544 41.1844 7.40578L41.1757 7.54448L41.1652 7.61707L41.1463 7.694L41.1326 7.75288L41.1152 7.80236L41.0952 7.84028L41.0724 7.87098L41.0484 7.89807L41.0202 7.91613L40.9926 7.93527L40.96 7.94864L40.7921 8.03893L40.7903 8.04074L40.7395 8.07071L40.7384 8.07216L40.6975 8.10178L40.6928 8.10503L40.663 8.13428L40.6616 8.13609L40.6387 8.16571L40.6366 8.17004L40.6224 8.19749L40.6202 8.20327L40.609 8.22927L40.6072 8.23144L40.6028 8.25781V8.26142L40.601 8.28417V8.41203H40.7413L42.8479 8.41564V8.41673H43.4719V8.27767L43.4693 8.25492ZM34.6385 7.91505H34.2451V6.18607H34.6022C35.265 6.18607 35.6809 6.48802 35.6809 7.093C35.6809 7.64091 35.2792 7.91505 34.6385 7.91505ZM35.5014 4.92122C35.5014 5.208 35.43 5.32538 35.2857 5.43987C35.1403 5.55509 34.9213 5.61216 34.6262 5.61216H34.2451V4.14901H34.6262C35.2088 4.14901 35.5014 4.40726 35.5014 4.92122ZM36.8796 6.34463C36.6091 6.12431 36.4601 6.05569 35.7922 6.02571V5.97695C36.3745 5.94408 36.5373 5.83898 36.7505 5.60168C36.9644 5.36403 37.0028 5.08158 37.0028 4.81106C37.0028 4.04247 36.3676 3.65853 35.095 3.65853H34.917V3.65636H34.6885V3.65564H31.9935V4.08472C32.2887 4.13384 32.5193 4.35489 32.5193 4.74677L32.5225 4.74568L32.5243 7.49283L32.5164 7.5777L32.5055 7.6503L32.4899 7.7117L32.4718 7.76443L32.4522 7.80452L32.4275 7.83595L32.4021 7.86376L32.3746 7.88362L32.3441 7.90421L32.3111 7.91793L32.2723 7.93094L32.2346 7.94322L32.1955 7.95405L32.1567 7.96886L32.115 7.98223L32.0468 8.01256L32.0457 8.01365L31.9924 8.04543L31.9892 8.0476L31.9478 8.07902L31.9428 8.08155L31.9112 8.11261L31.9098 8.11478L31.8855 8.14584L31.8822 8.15017L31.8663 8.17979L31.8644 8.18485L31.8565 8.21302L31.8547 8.21519L31.8478 8.243V8.24661L31.846 8.27045V8.40372H32.3706L34.8368 8.40408C35.6254 8.40408 36.2313 8.33654 36.653 8.20182C37.0757 8.0671 37.2878 7.72507 37.2878 7.17679C37.2864 6.84414 37.1511 6.56567 36.8796 6.34463ZM14.289 7.12081L14.2426 7.25192C14.1212 7.53545 14.007 7.74999 13.7028 7.86159L13.6342 7.88001L13.5679 7.89012L13.5001 7.89265L13.429 7.89012L13.3656 7.88001L13.2959 7.86159C12.9936 7.74999 12.8772 7.53508 12.7572 7.25192L12.7111 7.12081C12.5429 6.42012 12.5255 5.6266 12.6988 4.92447L12.7372 4.80022C12.8793 4.47263 12.9986 4.27759 13.3656 4.20427L13.4315 4.19669L13.5001 4.19416L13.565 4.19669L13.6317 4.20427C13.9866 4.27254 14.1306 4.47805 14.26 4.80022L14.3006 4.92447C14.4689 5.62552 14.4605 6.42193 14.289 7.12081ZM15.8873 4.72474C15.6353 4.34838 15.3028 4.06269 14.8895 3.86585C14.4765 3.67009 14.0138 3.57185 13.5004 3.57185C12.7111 3.57185 12.0534 3.79506 11.5255 4.24003C10.9994 4.68573 10.7354 5.28023 10.7354 6.02463C10.7354 6.78527 11.0034 7.39061 11.54 7.8392C12.0773 8.28995 12.73 8.51497 13.5004 8.51497C13.9859 8.51497 14.4417 8.41853 14.8688 8.22638C15.2948 8.0346 15.6353 7.74818 15.8873 7.3675C16.1393 6.9879 16.2643 6.54003 16.2643 6.02463C16.2643 5.5345 16.1393 5.10109 15.8873 4.72474ZM29.7278 7.56073L29.6676 7.64091L29.6078 7.70339L29.5447 7.75721L29.4791 7.80055L29.4127 7.83739L29.3453 7.86195L29.2757 7.88037L29.2097 7.89049L29.1412 7.89301L29.0708 7.89049L29.0059 7.88037L28.9374 7.86195L28.8714 7.83739L28.8032 7.80055L28.7372 7.75721L28.6763 7.70339L28.614 7.64091L28.556 7.56073C28.1201 6.86509 28.0658 5.11517 28.5766 4.44446L28.6325 4.3845L28.6912 4.33466L28.7499 4.29385L28.8137 4.2599L28.8776 4.23425L28.9432 4.21764L29.0059 4.20464L29.0733 4.19705L29.1415 4.19452L29.2079 4.19705L29.2742 4.20464L29.3413 4.21764L29.4029 4.23425L29.4667 4.2599L29.5291 4.29385L29.5889 4.33466L29.648 4.3845L29.7042 4.44446C30.2155 5.10687 30.1607 6.87015 29.7278 7.56073ZM31.5287 4.72474C31.2767 4.34838 30.9446 4.06269 30.5305 3.86585C30.119 3.67009 29.6542 3.57185 29.1426 3.57185C28.3536 3.57185 27.6945 3.79506 27.1677 4.24003C26.6401 4.68573 26.3769 5.28023 26.3769 6.02463C26.3769 6.78527 26.6452 7.39061 27.1807 7.8392C27.7191 8.28995 28.3721 8.51497 29.1426 8.51497C29.6281 8.51497 30.0838 8.41853 30.5106 8.22638C30.9366 8.0346 31.2767 7.74818 31.5287 7.3675C31.7803 6.9879 31.9061 6.54003 31.9061 6.02463C31.9061 5.5345 31.7807 5.10109 31.5287 4.72474ZM50.1603 8.10431C50.0965 8.05699 50.0037 8.01979 49.9029 7.98403L49.8989 7.98223L49.8583 7.96814H49.8564C49.8488 7.96525 49.8416 7.96236 49.834 7.95983L49.8166 7.95369L49.8111 7.95225C49.7673 7.93816 49.7248 7.92335 49.6846 7.90927L49.6708 7.90313L49.6411 7.88435L49.6128 7.86304L49.5871 7.83523L49.5646 7.80308L49.5432 7.7601L49.5236 7.71098L49.5098 7.64886L49.4986 7.57554L49.4917 7.49102L49.4884 7.39242L49.4859 4.74821C49.4859 4.56004 49.5247 4.40726 49.6019 4.28915C49.6802 4.17032 49.7934 4.10242 49.942 4.08581V3.65672H49.9166V3.65564H47.3315L47.3329 3.65672H47.3279V4.08581C47.6234 4.13529 47.7716 4.35561 47.7716 4.74821L47.7753 7.49102L47.7677 7.57554L47.7546 7.64886C47.6995 7.90313 47.5809 7.92624 47.3463 7.97283L47.2532 7.9797L47.032 7.99523H47.0284H46.809L46.6915 7.98728L46.5675 7.96742H46.5661L46.5273 7.95297L46.4881 7.9425L46.4508 7.92985L46.4145 7.91649C46.2311 7.84245 46.2173 7.66511 46.2013 7.49066L46.1984 7.39206L46.1966 4.73846C46.1977 4.55462 46.2369 4.40473 46.3123 4.28843C46.3906 4.1696 46.5041 4.1017 46.6524 4.08508V3.656H46.3797V3.65492L46.3725 3.656H44.0382V4.08508C44.3337 4.13457 44.4809 4.35489 44.4809 4.74749H44.4842L44.4864 7.4903L44.4777 7.57481L44.4664 7.64813L44.4519 7.71026L44.4323 7.76227L44.4128 7.80236L44.3888 7.8345L44.3638 7.86231L44.3344 7.88182L44.3047 7.90277L44.2714 7.91649L44.2322 7.92985L44.1963 7.9425L44.1564 7.95297L44.1176 7.96742H44.1158L44.0756 7.9815L44.0074 8.01076V8.01293L43.9512 8.04507L43.9505 8.04652L43.9077 8.0783L43.903 8.08047L43.8714 8.11189L43.87 8.11442L43.8457 8.14476L43.8442 8.14909L43.8268 8.17943L43.825 8.18413L43.8156 8.2123L43.8131 8.21374L43.8091 8.24119V8.2448L43.8062 8.269V8.40372H48.863C49.5352 8.40372 50.144 8.49221 50.1182 9.07046C50.1092 9.29078 50.0769 9.48149 49.7723 9.67508C49.7611 9.6823 49.7509 9.68808 49.7408 9.69495C49.5011 9.77657 49.1041 9.82461 48.2647 9.46054C46.4512 8.56373 45.697 8.7761 45.2478 9.06468C44.7975 9.35399 44.2728 10.0612 44.4157 10.236C44.5592 10.4108 44.8221 10.067 44.8221 10.067C44.9755 9.90985 45.4639 9.41756 46.3888 9.84447C49.6976 11.1465 50.3862 9.70903 50.4257 9.61801C50.5109 9.47354 50.5609 9.31643 50.5747 9.16112C50.6102 8.82161 50.6389 8.45429 50.1603 8.10431ZM53.0979 7.10925C53.0979 7.68714 53.1048 8.01834 52.6689 8.09455C52.2415 8.17004 51.769 7.93383 51.769 7.1479C51.769 6.60721 52.2085 5.37558 53.0979 5.07039V7.10925ZM55.3027 8.22891L55.3019 8.22638L55.2715 8.19532L55.2693 8.19279L55.2283 8.16101L55.2276 8.15993L55.1769 8.12706L55.174 8.12561L55.1109 8.09564L55.0724 8.08155H55.071L55.0336 8.06855L54.9959 8.05663L54.9633 8.04399L54.9292 8.03099L54.8966 8.01726L54.8687 7.99884L54.8429 7.97681L54.8179 7.94828L54.7958 7.91685L54.7769 7.87387L54.7574 7.82403L54.7454 7.76227L54.7345 7.68967L54.728 7.57048L54.7265 4.86921V4.86668C54.7265 3.45916 53.8948 2.70393 52.7425 2.70393C52.3524 2.70393 51.8281 2.82204 51.277 3.09545C50.6595 3.40245 50.3934 3.6979 50.4543 3.89835C50.496 4.03741 50.6991 3.95 50.8847 3.84996C51.1581 3.70621 51.7549 3.35297 52.4528 3.35442C53.2171 3.35514 53.0957 3.85104 53.0895 4.70234C52.9855 4.72221 50.6179 5.23039 50.4815 7.01065C50.4438 7.49716 50.6327 7.90313 50.9663 8.19171C51.2183 8.40986 51.4953 8.53411 52.0315 8.54133C52.8684 8.55253 53.2886 8.35352 53.6501 7.87062C53.6501 7.87062 53.8379 8.31885 54.4118 8.45862C55.2813 8.55795 55.3027 8.22891 55.3027 8.22891ZM26.4545 8.32065V8.31704L26.4498 8.28923L26.4465 8.28706L26.4389 8.25925L26.4356 8.25383L26.4189 8.22349L26.4168 8.21988L26.3925 8.18882V8.18593L26.3588 8.15487L26.3562 8.15198L26.3123 8.12092L26.3116 8.11875L26.258 8.08733L26.2543 8.08552L26.188 8.05554L26.147 8.04182H26.1441L26.106 8.02773L26.0651 8.01654L26.0277 8.00426L25.9922 7.99053L25.9592 7.97717L25.928 7.95803L25.8994 7.93636L25.874 7.90818L25.8522 7.87604L25.8309 7.83342L25.8105 7.78322L25.7975 7.72109L25.7859 7.64813L25.7794 7.56398L25.7772 7.46501V2.51611H25.7377L25.7199 2.52045L25.6898 2.52334L25.6445 2.52803H25.6423L25.5883 2.5349L25.5223 2.54248L25.4476 2.54898H25.4458L25.3649 2.55873L25.2761 2.57065L25.1826 2.57932H25.1804L25.0792 2.59305L24.9774 2.60424H24.973L24.8682 2.61688L24.7598 2.62808H24.758L24.6456 2.64108L24.5296 2.65409L24.419 2.66781L24.3088 2.68009L24.2022 2.69201H24.1996L24.0938 2.70501L23.9926 2.71657L23.8947 2.72813L23.803 2.73969L23.7185 2.74799L23.6449 2.75702L23.5738 2.76461L23.5176 2.77219L23.468 2.77725L23.435 2.78158H23.4324L23.3864 2.78917V2.91703L23.3871 2.94122V2.94484L23.3944 2.97337L23.3954 2.97481L23.4045 3.00371L23.4063 3.00985L23.4241 3.03983L23.4248 3.0438L23.4484 3.07595L23.4509 3.07739L23.4817 3.10917L23.485 3.1099L23.53 3.14168L23.5314 3.14313L23.5865 3.1731L23.5876 3.17563L23.654 3.20561H23.6547L23.6967 3.21897H23.6986L23.7373 3.23306L23.7765 3.24389L23.812 3.2569L23.8497 3.27026L23.8795 3.28651L23.9107 3.30457L23.9371 3.32444L23.964 3.35117L23.9857 3.38548L24.006 3.42665L24.026 3.47902L24.0379 3.54115L24.0495 3.61302L24.0571 3.69898V3.70296C23.9636 3.70296 23.4527 3.70946 23.0858 3.83262C22.6794 3.96878 22.0514 4.50008 21.7682 5.53197C21.5101 6.47502 21.4622 8.86423 20.2142 9.01087C19.7976 9.05999 19.5964 9.09539 19.6022 9.26333C19.6065 9.40528 20.1189 9.43309 20.646 9.32582C21.1747 9.21999 22.5608 8.83028 22.9502 6.8297C23.3262 4.8981 22.8733 4.17791 24.059 4.19019V7.46465L24.0564 7.56362L24.0488 7.64777L24.0372 7.72073L24.0227 7.78285L24.0028 7.83559L23.9832 7.87532L23.9592 7.90746L23.935 7.93563L23.9049 7.9555L23.8751 7.97609L23.8403 7.98945L23.8026 8.00317L23.7664 8.01545L23.7268 8.02665L23.687 8.04074L23.6449 8.05446L23.5767 8.08444V8.08625L23.5216 8.11767L23.5194 8.11984L23.4781 8.1509L23.473 8.15379L23.4422 8.18485L23.4408 8.18774L23.4154 8.2188L23.4128 8.22349L23.3976 8.25383L23.3954 8.25925L23.386 8.28706L23.3842 8.28923L23.378 8.31704V8.32065L23.3755 8.34521V8.47849H26.4559V8.34521L26.4545 8.32065Z" fill="#47474A"/>
<path fill-rule="evenodd" clip-rule="evenodd" d="M17.3725 19.0444C16.5676 19.0444 15.749 19.321 15.1263 19.8041C14.4123 20.3562 14.02 21.1373 14.02 22.0034C14.02 23.464 15.0261 24.4075 16.5844 24.4075C18.515 24.4075 19.8633 23.1669 19.8633 21.3908C19.8633 20.6446 19.6074 20.0319 19.1236 19.6184C18.6851 19.2433 18.079 19.0444 17.3725 19.0444ZM14.734 25.0669C15.5189 25.7907 16.3054 26.2794 17.1893 26.3655C18.138 26.4511 18.5353 26.2142 18.8861 26.3137C19.147 26.388 19.4354 26.7382 18.6511 27.0525C17.8637 27.387 17.1265 27.5 15.7165 27.5C14.3196 27.5 13.0013 27.0381 12.05 26.2023C11.1153 25.3391 9.15847 23.6069 8.35826 22.8339C8.13449 22.6351 7.63639 22.1332 7.63639 22.1332C7.63639 22.1332 7.01408 22.4466 5.8406 22.5602L5.83935 24.6662C5.83935 25.7635 6.47634 25.6774 6.88768 25.8397C7.31212 26.0122 7.3864 26.2132 7.38796 26.3499C7.3864 26.4882 7.3864 26.5487 7.3864 26.5487L0.863647 26.5491V26.349C0.863647 26.2107 0.937614 26.011 1.3502 25.8381C1.77402 25.6758 2.41069 25.7632 2.41069 24.6662L2.41194 22.284C1.65012 22.0596 1.18947 21.7325 1.18854 21.2847C1.18947 20.848 1.65012 20.4745 2.41194 20.2263L2.41132 17.792C2.41194 16.695 1.77652 16.7821 1.35207 16.621C0.939486 16.4588 0.865208 16.2459 0.865208 16.1214C0.866144 15.9844 0.866144 15.922 0.866144 15.922L7.3864 15.9244C7.3864 15.9244 7.38796 15.9862 7.3889 16.122C7.38952 16.2478 7.31368 16.46 6.89017 16.6214C6.47759 16.7836 5.84216 16.6959 5.84123 17.7942L5.84154 19.8893C6.8393 19.9392 7.7013 20.0644 8.43597 20.3012C8.48591 20.2638 8.5477 20.212 8.61012 20.1758C9.93465 19.2164 10.8553 18.5922 11.3818 18.1444C11.879 17.7084 12.0531 17.4571 12.0528 17.1351C12.0531 16.8089 11.7417 16.3608 10.5189 16.3608C9.29735 16.3604 8.98651 16.671 8.94749 16.8954C8.91036 17.1447 9.0973 17.4334 9.48367 17.532C9.87067 17.645 10.282 17.371 10.2059 17.7074C10.1569 17.8198 9.9824 17.9321 9.48367 17.9321C8.88476 17.9568 7.7013 17.7452 7.70068 16.7708C7.70318 15.8118 9.38443 15.4991 10.444 15.5C11.5057 15.5 12.2267 15.6988 12.7014 16.0115C13.2016 16.3111 13.3246 16.7846 13.3246 16.7846C13.3246 16.7846 14.1738 16.211 14.9232 15.9987C15.6694 15.7881 16.2177 15.7372 16.6184 15.7384C17.0182 15.7372 17.3912 15.7759 17.6424 15.862C17.8896 15.95 18.1646 16.0362 18.0897 16.1495C18.0397 16.2871 17.3912 16.1367 16.1952 16.5602C14.9968 16.984 13.6763 17.7564 12.5884 18.6191C11.5039 19.4542 10.3803 20.2888 9.62068 20.8246C9.73272 20.887 9.83353 20.9613 9.93246 21.0365C11.179 21.8358 13.9463 24.331 14.734 25.0669ZM5.02916 20.6804C4.10193 20.717 3.3657 20.9982 3.37756 21.3099C3.39004 21.6192 4.14687 21.8408 5.07441 21.8037C5.99727 21.7668 6.736 21.485 6.72414 21.1754C6.71072 20.8646 5.95171 20.6433 5.02916 20.6804ZM55.1227 22.8657C55.0088 22.8657 54.9186 22.9378 54.7812 23.0477C54.6545 23.1491 54.4626 23.2964 54.3153 23.3139C54.2747 23.2156 54.2747 22.9185 54.2747 22.7178L54.2791 22.1354L54.2894 20.647C54.2894 19.5841 53.7154 19.0444 52.5844 19.0444C52.2024 19.0444 51.6509 19.1958 51.1101 19.4483C50.5034 19.7317 50.1947 19.9932 50.1947 20.2242C50.1947 20.4049 50.3542 20.5569 50.5427 20.5569C50.6803 20.5569 50.8258 20.4907 51.0271 20.3992C51.3273 20.2632 51.738 20.0759 52.2492 20.0759C52.8669 20.0759 52.9661 20.2601 52.9789 21.2347L52.9727 21.2403C52.6793 21.1361 52.2555 21.0134 51.856 21.0134C50.8638 21.0134 49.8598 21.6236 49.8598 22.7908C49.8598 23.6971 50.5184 24.4072 51.3598 24.4072C51.9818 24.4072 52.9789 23.7452 52.9817 23.7436L52.9808 23.9574C52.9808 24.4072 53.3821 24.4072 53.5329 24.4072C54.4682 24.4072 55.4123 23.5586 55.4123 23.1697C55.4126 22.9937 55.29 22.8657 55.1227 22.8657ZM52.9811 21.9747V22.8507L52.9792 22.8598C52.6868 23.116 52.3223 23.434 51.8563 23.434C51.3382 23.434 51.1535 23.0265 51.1535 22.6448C51.1535 22.0449 51.4549 21.7534 52.0745 21.7534C52.429 21.7534 52.6974 21.8536 52.9752 21.9635C52.9892 21.9688 52.9811 21.9747 52.9811 21.9747ZM45.0795 20.5509C45.4484 20.3325 45.9736 20.0435 46.532 20.0435C47.267 20.0435 47.3363 20.5409 47.3363 21.8549C47.3363 22.2406 47.3247 23.063 47.3044 23.5249L47.3007 23.5217C47.0591 23.5636 46.7926 23.6151 46.6019 23.679L46.6372 23.6697C46.4374 23.6987 46.3176 23.8276 46.3176 24.0161C46.3176 24.1562 46.4128 24.3201 46.6812 24.3201C46.7261 24.3201 46.7888 24.3132 46.8934 24.301C47.1178 24.2754 47.4929 24.2333 47.9792 24.2333C48.4642 24.2333 48.8396 24.2754 49.0643 24.301C49.1682 24.3129 49.231 24.3201 49.2765 24.3201C49.5437 24.3201 49.6389 24.1565 49.6389 24.0161C49.6389 23.8276 49.5197 23.6984 49.3199 23.6697L49.3552 23.679C49.1935 23.6244 48.9673 23.5667 48.6664 23.5149C48.6461 23.0539 48.6349 22.245 48.6349 21.8583C48.6349 21.6685 48.6414 21.47 48.6492 21.2609C48.6567 21.0453 48.6639 20.8224 48.6639 20.604C48.6639 19.5853 48.1549 19.0894 47.1059 19.0894C46.6556 19.0894 45.9943 19.3182 45.0876 19.7872L45.0814 19.7804C45.082 19.7563 45.0839 19.7326 45.0845 19.7092C45.0914 19.5809 45.0967 19.4705 45.0967 19.4133C45.0967 19.1247 44.9097 19.0217 44.7484 19.0217C44.6488 19.0217 44.5586 19.0479 44.4085 19.0906C44.2986 19.1225 44.1492 19.1649 43.9301 19.2167C43.6117 19.2954 43.3823 19.3425 43.2135 19.3771C42.8318 19.4564 42.6218 19.4985 42.6218 19.7932C42.6218 19.9723 42.7585 20.0975 42.9551 20.0975C43.0553 20.0975 43.2993 20.0884 43.5353 20.0803C43.5924 20.0781 43.6657 20.0625 43.7188 20.0612C43.7397 20.5444 43.7512 21.4335 43.7512 21.8411C43.7512 22.2378 43.74 23.0798 43.7188 23.5327C43.4772 23.5742 43.2135 23.6266 43.0241 23.689L43.0593 23.6812C42.8596 23.7093 42.7407 23.8395 42.7407 24.0273C42.7407 24.1668 42.8349 24.3316 43.1024 24.3316C43.1483 24.3316 43.2116 24.3238 43.3155 24.3113C43.5399 24.2864 43.9148 24.2436 44.4004 24.2436C44.8863 24.2436 45.2618 24.2864 45.4858 24.3113C45.5907 24.3238 45.6534 24.3316 45.6996 24.3316C45.9662 24.3316 46.0613 24.1672 46.0613 24.0273C46.0613 23.8391 45.9421 23.709 45.7424 23.6812L45.7777 23.689C45.616 23.6357 45.3963 23.5857 45.096 23.5327C45.067 23.077 45.067 22.1953 45.067 21.8361L45.0742 21.1217L45.0795 20.5509ZM41.3912 19.9452C41.6196 19.8977 41.8259 19.83 41.9735 19.7691L41.9801 19.7666L41.9857 19.7635C41.9935 19.7598 42.0044 19.7566 42.0172 19.7529C42.1149 19.7223 42.2438 19.658 42.2438 19.4371C42.2438 19.2969 42.1486 19.1321 41.8809 19.1321C41.839 19.1321 41.7875 19.1409 41.7023 19.1537C41.5407 19.1783 41.2701 19.2198 40.9483 19.2198C40.6144 19.2198 40.3413 19.1783 40.1774 19.1531C40.0929 19.1403 40.0411 19.1321 40.0002 19.1321C39.733 19.1321 39.6378 19.2969 39.6378 19.4371C39.6378 19.658 39.7667 19.7223 39.8632 19.7529C39.8772 19.7566 39.8875 19.7598 39.8956 19.7635C40.0099 19.8209 40.1509 19.8721 40.2973 19.9108C40.0826 20.6146 39.7424 21.6008 39.2483 22.7222C39.0024 22.1595 38.7549 21.5771 38.5315 21.0503C38.343 20.6077 38.1722 20.2301 38.0418 19.9352L38.0331 19.9155C38.1963 19.8805 38.3526 19.8372 38.4768 19.7691L38.4703 19.7726C38.4744 19.7707 38.4834 19.7688 38.4937 19.7663C38.6516 19.7289 38.7281 19.6243 38.7281 19.4461C38.7281 19.3054 38.6329 19.1421 38.3657 19.1421C38.3252 19.1421 38.2756 19.1487 38.1932 19.1618C38.0253 19.1871 37.7431 19.2295 37.3736 19.2295C36.9357 19.2295 36.5725 19.1871 36.3546 19.1618C36.2457 19.1493 36.1805 19.1421 36.1337 19.1421C35.8665 19.1421 35.7716 19.3054 35.7716 19.4461C35.7716 19.6499 35.9199 19.7201 35.9998 19.7585C36.0098 19.7635 36.0194 19.7685 36.0294 19.7729L36.0322 19.7741L36.0357 19.7757C36.1686 19.8359 36.3296 19.8756 36.4994 19.9168C36.5272 19.9236 36.5622 19.9274 36.5909 19.9349C36.6811 20.1374 36.77 20.3284 36.8565 20.5141L36.8549 20.5107C37.4185 21.7846 38.1882 23.499 38.5074 24.1359C38.5677 24.2573 38.6797 24.4811 38.906 24.4811C39.1475 24.4811 39.2271 24.3213 39.3201 24.1359L39.6166 23.5476C40.1481 22.4906 41.0226 20.7538 41.3912 19.9452ZM33.175 19.0444C32.3707 19.0444 31.5524 19.321 30.9289 19.8041C30.216 20.3562 29.8228 21.1373 29.8228 22.0034C29.8228 23.464 30.829 24.4075 32.387 24.4075C34.3179 24.4075 35.6665 23.1669 35.6665 21.3908C35.6665 20.6446 35.4105 20.0319 34.9268 19.6184C34.4874 19.2433 33.8816 19.0444 33.175 19.0444ZM31.1458 21.6679C31.1458 20.4614 31.7787 19.7407 32.8389 19.7407C34.0823 19.7407 34.3432 20.8674 34.3432 21.813C34.3432 22.5221 34.1347 23.7115 32.7368 23.7115C31.3527 23.7115 31.1458 22.431 31.1458 21.6679ZM28.62 23.5261L28.6166 23.5196C28.605 22.5365 28.6181 20.026 28.6259 19.5582L28.6319 19.233C28.6487 18.2455 28.6624 17.3932 28.6624 17.0592C28.6624 16.8467 28.6624 16.4051 28.1977 16.4051C27.7614 16.4051 27.185 16.7019 26.9578 16.8298C26.4375 17.1226 26.1732 17.3719 26.1732 17.5695C26.1732 17.7658 26.298 17.9028 26.4769 17.9028C26.5961 17.9028 26.7 17.8379 26.8095 17.7686C26.915 17.7018 27.0361 17.6263 27.1475 17.6263L27.1372 17.6216C27.1719 17.6469 27.2371 17.8098 27.2371 18.0941C27.2371 18.4995 27.2459 19.061 27.2549 19.5588C27.263 20.0144 27.2668 22.543 27.2549 23.5183L27.2499 23.523C27.0096 23.5633 26.7478 23.6144 26.5586 23.6784L26.5939 23.6691C26.3941 23.6984 26.2752 23.827 26.2752 24.0149C26.2752 24.1556 26.3701 24.3195 26.6379 24.3195C26.6828 24.3195 26.7459 24.3129 26.8507 24.3004C27.0745 24.2745 27.45 24.2318 27.9356 24.2318C28.4209 24.2318 28.796 24.2745 29.021 24.3004C29.125 24.3126 29.1886 24.3195 29.2339 24.3195C29.5014 24.3195 29.5965 24.1559 29.5965 24.0149C29.5965 23.8267 29.4773 23.6981 29.2766 23.6691C29.2763 23.6694 28.9068 23.582 28.62 23.5261ZM25.4251 24.5261C25.4251 24.4543 25.4164 24.3866 25.4061 24.3073C25.3892 24.1843 25.3664 24.0158 25.3664 23.7243C25.3664 23.553 25.392 23.3339 25.4154 23.141C25.4366 22.9625 25.4544 22.8071 25.4544 22.6891C25.4544 22.5065 25.3237 22.3695 25.1505 22.3695C24.8324 22.3695 24.7613 22.7843 24.702 23.1301L24.697 23.1341C24.1992 23.4893 23.5407 23.5795 22.3744 23.5938C22.3719 23.5938 22.3719 23.5938 22.3728 23.586C22.3744 23.5826 23.8256 21.4778 24.8961 20.2251L24.8892 20.2326C25.4404 19.6521 25.4404 19.531 25.4404 19.4517C25.4404 19.2929 25.3234 19.1325 25.0634 19.1325C24.8852 19.1325 24.6936 19.1446 24.4891 19.1568C24.3662 19.1637 24.2382 19.1712 24.1068 19.1765H24.1018L24.0981 19.1774C23.7626 19.2064 23.4059 19.2345 23.0507 19.2345C22.536 19.2345 21.9621 19.2354 21.4322 19.1581L21.4256 19.1518C21.3723 18.8856 21.3073 18.5635 21.009 18.5635C20.8651 18.5635 20.719 18.688 20.719 18.9255C20.719 19.1156 20.7384 19.2788 20.7546 19.4218C20.7671 19.5282 20.778 19.6203 20.778 19.6986C20.778 19.8731 20.7537 20.0547 20.7315 20.2295C20.7106 20.3896 20.6903 20.5409 20.6903 20.6758C20.6903 20.8739 20.828 21.0234 21.009 21.0234C21.303 21.0234 21.3654 20.6714 21.4306 20.2975L21.4347 20.276L21.4394 20.271C21.8491 20.1302 22.5779 19.9383 23.5919 19.8952L23.6003 19.8993C22.9667 20.7432 21.6996 22.4129 21.0421 23.2168C20.9818 23.292 20.9244 23.3613 20.8682 23.4272C20.6666 23.6675 20.544 23.8117 20.544 23.9718C20.544 24.1768 20.6997 24.3195 20.9213 24.3195C20.9968 24.3195 21.0895 24.3123 21.2059 24.3017C21.3139 24.2926 21.4344 24.2829 21.5742 24.2758L21.5785 24.2748L21.5839 24.2745C21.8454 24.2477 22.1902 24.2327 22.5548 24.2327C23.3381 24.2327 24.0035 24.2701 24.5378 24.3007L24.7045 24.3101H24.7095L24.7101 24.3135C24.7675 24.5657 24.8593 24.8594 25.1208 24.8594C25.3031 24.86 25.4251 24.6871 25.4251 24.5261ZM15.3429 21.6679C15.3429 20.4614 15.9762 19.7407 17.0363 19.7407C18.2794 19.7407 18.5406 20.8674 18.5406 21.813C18.5406 22.5221 18.3318 23.7115 16.934 23.7115C15.5501 23.7115 15.3429 22.431 15.3429 21.6679Z" fill="#47474A"/>
</svg>
