<svg width="174" height="151" viewBox="0 0 174 151" fill="none" xmlns="http://www.w3.org/2000/svg">
<path fill-rule="evenodd" clip-rule="evenodd" d="M144.555 72.8302V70.906L146.039 70.5212H147.149L145.666 69.7611V69.1839L147.699 64.7967L144.555 62.3434V59.8708L145.666 58.726L144.555 57.5811H142.521L141.784 58.726L142.521 59.8708V62.353L139.722 64.8352L141.206 69.2224L141.579 69.6072L139.713 70.3672H141.197L142.307 70.7521V72.6763H144.555V72.8302ZM143.818 63.6807L142.335 66.567L143.818 69.0492L145.302 66.567L143.818 63.6807ZM107.236 57.9659H111.901V54.3388H107.236V57.9659ZM115.922 57.9659H120.914V54.3388H115.922V57.9659ZM124.795 57.9659H129.46V54.3388H124.795V57.9659ZM30.7322 72.8302L31.1054 71.3005V70.9156L32.2157 70.5308H33.3259L31.8425 69.7708L32.2157 69.3859L33.6991 64.9988L30.9002 62.5166V60.0633L31.6372 58.9184L30.9002 57.7735H28.4651L27.728 58.9184L28.8383 60.0633L28.4651 62.5455L25.6662 65.0276L27.5321 69.4148V69.7996L26.4219 70.5597H27.5321L28.6424 70.9445V71.3293L29.0155 72.8591L30.7322 72.8302ZM29.9952 63.6807L28.3345 66.567L29.8179 69.0492L31.3013 66.567L30.0045 63.6807H29.9952ZM61.791 57.9563H66.4559V54.3388H61.791V57.9659V57.9563ZM52.9184 57.9563H57.9098V54.3388H52.8717V57.9659L52.9184 57.9563ZM43.8592 57.9563H48.8506V54.3388H43.7939V57.9659L43.8592 57.9563ZM86.7761 75.2739L87.5131 74.8891L87.8863 74.129H88.2595L88.9966 74.5139L89.3698 74.129L88.9966 73.369L89.3698 72.9841L90.1068 71.4544L89.3698 70.6944L88.9966 70.3095L88.5767 69.1839L88.2035 68.799L86.7108 68.4527L85.6005 68.8375L85.0501 69.2224L84.6769 69.9824L83.9398 70.3672L83.5666 71.1273L84.3037 72.657L84.6769 73.0419L84.3037 73.8019L84.6769 74.1868L85.4139 73.8019H85.7871L86.1603 74.562L86.7108 75.322L86.7761 75.2739ZM155.182 113.758H163.691V110.13H155.182V113.758ZM139.648 139.878H148.52V134.798H139.648V139.946V139.878ZM135.393 139.878H137.801V134.798H135.393V139.946V139.878ZM25.1997 139.878H33.8857V134.798H25.3303V139.946L25.1997 139.878ZM35.7423 139.878H38.5412V134.798H35.7423V139.946V139.878ZM9.98284 113.825H18.4916V110.198H9.98284V113.825ZM78.9484 39.6573C78.9484 39.6573 78.2114 38.5125 80.4318 38.5125V35.2702L78.9484 33.7405H39.1943L37.7109 35.2702V38.5125L39.1943 39.6573H78.9484ZM27.5508 40.0422H32.2157V33.5866H27.5508V40.071V40.0422ZM81.1596 49.9421H92.0661V47.8543H81.1596V49.9421ZM80.0493 57.9467H93.7267V54.3388H80.0493V57.9659V57.9467ZM134.031 39.667L136.065 38.5221V35.2702L134.031 33.7405H94.8463L93.3629 35.2702V38.5125C95.2288 38.5125 94.8463 39.6573 94.8463 39.6573L134.031 39.667ZM141.43 40.0518H146.095V33.5866H141.43V40.071V40.0518ZM131.083 150.962H174V90.9464H166.947L166.573 89.2338C166.395 87.1346 165.529 85.1605 164.119 83.6358C162.708 82.1112 160.836 81.1268 158.811 80.8444V78.9202L157.337 76.8806L154.538 73.6384L155.275 71.1562C155.307 70.6535 155.24 70.1493 155.079 69.6737C154.918 69.1981 154.666 68.7607 154.338 68.3874C154.01 68.0141 153.612 67.7126 153.169 67.5007C152.726 67.2888 152.246 67.1708 151.758 67.1539V51.8663H154.557V47.8543L156.04 44.9681V43.0439H151.375L149.892 39.8017V30.7003L150.629 28.2181L147.112 24.9759V22.8785L146.001 21.7336H145.264V20.5983L146.001 19.4535L146.375 18.3086L147.112 14.6815L146.001 11.7952H141.747L140.637 14.6815L141.374 18.3086L141.747 19.4535L142.857 20.9832V21.7432H141.747L140.637 22.8881V24.4178L139.153 25.5627L136.354 28.805H103.719V25.5531H100.575V24.0234H100.202V23.4558L99.8284 23.0709L99.0914 21.926L97.6079 20.7811V22.8785L97.9811 24.0234H92.0661L92.4392 23.2633L93.5495 22.8785H96.6936L96.3204 19.6363L96.6936 17.5389H94.4731L92.9897 16.7788L92.6165 17.5389H91.8795V15.4512L90.7692 16.5961C90.396 17.7409 89.659 19.0782 86.888 19.0782C86.318 19.0503 85.7598 18.9003 85.249 18.6379C84.7381 18.3754 84.2858 18.0063 83.9208 17.5538C83.5558 17.1014 83.286 16.5757 83.1287 16.0099C82.9714 15.4442 82.9299 14.8509 83.0069 14.2678C82.9033 13.4657 83.0433 12.6503 83.4075 11.9336C83.7717 11.2169 84.3423 10.6342 85.0408 10.2655L85.7778 9.12061L84.6676 8.73578L83.1841 9.12061L82.0459 9.91915L82.4191 11.064L81.682 12.7766L81.3088 12.0165V10.8716L80.9357 10.4868L80.0027 9.91915L80.3759 9.1591L81.1129 8.77426V7.61013L80.0027 6.27282L78.8924 9.1591L78.5193 10.304L77.409 11.8337L76.476 13.9311L75.739 16.8173L76.8492 16.4325L77.5863 15.2876L78.3233 14.5276L78.1367 17.5774V20.4636L77.3997 23.3499H77.0265V20.7811L75.9816 20.0211L74.1156 24.0234H73.3786V25.5531H70.2344V28.7761H36.9738L34.1749 25.5339L33.0647 24.7738V23.2633L31.9544 22.1184H31.2454V21.3584L31.9824 19.8287L32.7195 18.6838L33.4565 15.0567L31.9731 12.1704H28.1012L26.4405 14.6526L27.1776 18.2797L27.9146 19.4246L28.6517 20.5695V21.7144H27.9333L26.8231 22.8593V24.9566L23.2684 28.2181L24.0055 30.7003V39.8498L22.522 43.092H17.5586V45.0162L19.5925 47.9025V52.0972H22.3914V67.2597C21.3739 67.2979 20.4081 67.7318 19.6881 68.4743C18.9681 69.2167 18.5473 70.2127 18.5102 71.262L19.6205 73.7442L16.6629 76.794L15.1795 78.8914V80.8155C13.1544 81.0979 11.2827 82.0823 9.87207 83.607C8.4614 85.1316 7.59567 87.1058 7.41716 89.205L7.04396 90.9175H0V150.962H42.7023C43.7419 150.807 44.6971 150.285 45.405 149.485C46.1129 148.685 46.5294 147.656 46.5835 146.574L43.4394 142.572V128.882H41.2282V97.8061L43.6353 95.7087V90.5615H39.3809C39.7069 87.4667 40.6605 84.4772 42.1798 81.7873C43.6441 79.093 45.6592 76.7595 48.0855 74.9486C50.5117 73.1378 53.291 71.8929 56.2305 71.3005L58.0964 73.2247H62.7613L64.2447 71.3005C69.1773 72.0838 73.6573 74.7133 76.8291 78.6868C80.0008 82.6603 81.6421 87.6994 81.4395 92.8417H92.3459C92.311 89.841 92.8847 86.8659 94.0303 84.1073C95.1759 81.3487 96.868 78.8675 98.9981 76.8229C101.89 73.923 105.565 71.9944 109.541 71.2909L111.407 73.215H116.072L118.105 71.2909C121.022 71.8144 123.778 73.0359 126.153 74.8571C128.529 76.6784 130.457 79.0487 131.783 81.7776C133.503 84.3973 134.582 87.408 134.927 90.5519H130.561V95.6991L132.968 97.7964V129.064H130.561V142.793L127.417 146.796C127.404 147.853 127.783 148.876 128.477 149.655C129.17 150.435 130.126 150.912 131.148 150.99L131.083 150.962ZM165.286 146.959V149.846H171.612V146.959H165.286ZM152.346 146.959V149.846H154.38V146.959H152.346ZM132.567 130.94V132.47L133.304 133.23V140.475L132.567 141.235V142.38L135.365 146.382L134.255 149.624H151.45V143.525H137.735V142.38H151.413V141.235L150.676 140.475V133.23L151.413 132.085V130.94H154.557V128.275H135.337V131.162H132.539L132.567 130.94ZM22.55 143.948V150.048H39.7448L38.6345 146.805L41.4335 142.803V141.658L40.3232 140.898V133.644L41.4335 132.884V131.354H38.6345V128.304H19.4059V131.191H22.55V132.335L23.2871 133.48V140.725L22.55 141.485V142.63H35.677V143.775H22.55V143.948ZM19.4059 146.998V149.884H21.2718V146.998H19.4059ZM2.21115 146.998V149.884H8.49941V146.998H2.21115ZM165.277 140.706V143.948H171.612V140.706H165.277ZM152.336 140.706V143.948H154.37V140.706H152.336ZM19.4059 140.706V143.948H21.2718V140.706H19.4059ZM2.21115 140.706V143.948H8.49941V140.706H2.21115ZM165.286 134.606V137.492H171.612V134.606H165.286ZM152.346 134.606V137.492H154.38V134.606H152.346ZM19.4152 134.606V137.492H21.2812V134.606H19.4152ZM2.22048 134.606V137.492H8.50874V134.606H2.22048ZM165.286 128.314V131.2H171.612V128.314H165.286ZM2.22048 128.314V131.2H8.50874V128.314H2.22048ZM165.286 122.59V125.476H171.612V122.59H165.286ZM135.337 122.59V125.476H154.38V122.59H135.337ZM19.4152 122.59V125.476H38.4573V122.59H19.4152ZM2.22048 122.59V125.476H8.50874V122.59H2.22048ZM135.337 116.682V119.569H171.612V116.682H135.337ZM2.22048 116.682V119.569H38.4573V116.682H2.22048ZM155.863 102.578V105.06L153.064 107.946V115.951H165.454V107.946L162.31 105.06V102.578H155.863ZM10.7292 102.578V105.06L7.9303 107.946V115.951H20.3389V107.946L17.1947 105.06V102.578H10.7292ZM168.066 110.583V113.469H171.612V110.583H168.066ZM135.337 110.583V113.469H151.198V110.583H135.337ZM22.5594 110.583V113.469H38.4199V110.583H22.5594ZM2.22048 110.583V113.469H5.72847V110.583H2.22048ZM166.424 105.051L167.908 106.58V107.725H171.425V104.839H166.434L166.424 105.051ZM135.365 105.051V107.937H151.226V106.407L153.26 105.262H135.337L135.365 105.051ZM20.5535 105.051L22.5873 106.195V107.725H38.4479V104.839H20.5161L20.5535 105.051ZM2.24847 105.051V107.937H5.72847V106.792L7.2119 105.262H2.22048L2.24847 105.051ZM135.365 98.9509V101.433H171.612V98.9509H135.365ZM2.24847 98.9509V101.433H38.4573V98.9509H2.24847ZM132.595 92.8513V93.6113L135.393 95.7087H171.612V92.8224H161.069C161.069 84.6254 156.078 83.8654 154.044 83.8654H153.307V90.3499C153.625 90.3419 153.941 90.4008 154.237 90.5227C154.532 90.6446 154.801 90.8272 155.026 91.0593C155.251 91.2914 155.428 91.5681 155.546 91.8729C155.664 92.1776 155.721 92.5039 155.714 92.8321H140.879V90.9079H148.455V86.5207H138.659C137.94 81.1527 135.301 76.2558 131.26 72.7917C127.784 68.9044 123.048 66.4643 117.947 65.932V68.4142C121.527 68.9727 124.903 70.4849 127.743 72.8013C130.725 75.1692 133.154 78.1975 134.85 81.6628C136.545 85.1281 137.464 88.9418 137.539 92.8224L132.595 92.8513ZM2.24847 92.8513V95.7376H38.4573L41.2562 93.6402V92.8513H36.2368C36.2462 88.9582 37.1366 85.121 38.8373 81.6453C40.538 78.1695 43.0019 75.1511 46.033 72.8302C48.8554 70.4843 52.2402 68.9685 55.8293 68.4431L55.4561 65.9609C50.3747 66.5641 45.6614 68.9926 42.1425 72.8206C38.2685 76.4245 35.6659 81.254 34.744 86.5496H25.1344V90.9367H32.8967V92.8609H18.4822C18.4746 92.5328 18.5316 92.2065 18.6498 91.9017C18.7681 91.597 18.9451 91.3202 19.1702 91.0881C19.3953 90.856 19.6637 90.6735 19.9592 90.5516C20.2547 90.4296 20.5711 90.3708 20.8893 90.3787V83.8942H20.1523C18.1184 83.8942 12.7538 84.6543 12.7538 92.8513H2.22048H2.24847ZM65.2523 65.9705V68.0679C70.8157 69.3635 75.7771 72.5943 79.303 77.2173C82.2407 81.2411 84.1496 85.9623 84.8542 90.9464H89.1085C89.6727 85.9235 91.5965 81.1657 94.6597 77.2173C98.0011 72.3883 103.046 69.1032 108.71 68.0679L108.337 65.9705C103.506 66.8584 99.0544 69.2526 95.5834 72.8302C91.2533 77.3037 88.2943 82.9915 87.0746 89.1857C86.2118 82.9494 83.3475 77.1911 78.9391 72.8302C75.0535 69.3286 70.3318 66.9605 65.2617 65.9705H65.2523ZM138.836 80.4596V84.4619H148.446V80.4596H138.836ZM24.7612 80.4596V84.4619H34.3708V80.4596H24.7612ZM138.845 52.0491V78.5546H148.455V52.0491H138.845ZM24.7705 52.0491V78.5546H34.3802V52.0491H24.7705ZM86.151 66.3457C85.466 66.3816 84.7951 66.56 84.1787 66.8702C83.5623 67.1804 83.0131 67.616 82.5642 68.1508C82.1154 68.6856 81.776 69.3086 81.5667 69.9821C81.3574 70.6557 81.2824 71.3659 81.3462 72.0702C81.3462 77.2173 86.8974 77.7946 86.8974 77.7946C86.8974 77.7946 92.6258 77.4098 92.6258 72.0702C92.6829 71.336 92.591 70.5976 92.356 69.9021C92.1209 69.2066 91.7479 68.5692 91.2608 68.0307C90.7736 67.4921 90.1829 67.0641 89.5264 66.774C88.8699 66.4839 88.162 66.338 87.4478 66.3457H86.151ZM110.744 62.911V70.5404L111.854 71.3005H114.653L115.764 70.5404V62.9207L110.744 62.911ZM57.4993 62.911V70.5404L59.16 71.3005H61.5204L62.6307 70.5404V62.9207L57.4993 62.911ZM98.7275 57.9563V60.4385H136.047V57.9659H133.248V54.3388H136.047V52.0491H98.7275V54.5313H103.392V58.1583H98.7275V57.9563ZM70.2531 48.0179H74.5075V50.1153H77.6516V60.602H95.9566V50.1441H98.7555V48.0179H103.42V50.1153H107.236V48.0179H111.901V50.1153H115.782V48.0179H120.774V50.1153H124.655V48.0179H129.32V50.1153H132.464V48.0179H133.201L130.794 44.7757H42.7023L39.9034 48.0179H41.2002V50.1153H43.9991V48.0179H48.9906V50.1153H52.8717V48.0179H57.8632V50.1153H61.7443V48.0179H66.4092V50.1153H70.2904V48.0179H70.2531ZM37.7109 57.9659V60.4481H74.6847V57.9659H70.4303V54.3388H74.6847V52.0491H37.7109V54.5313H40.118V58.1583H37.7109V57.9659ZM134.041 44.8045L136.075 48.0468H140.329V50.1441H147.354V48.0179H152.019L153.503 44.7757H148.511L147.774 39.9652V30.8927L148.147 29.7478C148.147 29.7478 146.281 26.8615 143.893 26.8615C142.96 26.7073 142.004 26.865 141.165 27.3117C140.325 27.7584 139.647 28.4705 139.228 29.3437V30.8927H88.5767L87.8397 40.9946L90.2467 42.5244H136.438L138.304 40.0422H139.965L138.855 44.8526L134.041 44.8045ZM20.1523 44.8045L21.6357 48.0468H26.4405V50.1441H33.0926V48.0179H37.7575L39.6235 44.7757H34.5668L33.8297 39.9652H35.3131L37.347 42.4474H83.5666L85.9737 40.9177L85.2367 30.8157H34.2029V29.1706C33.8219 28.3604 33.2108 27.689 32.4509 27.2457C31.691 26.8023 30.8182 26.6079 29.9485 26.6884C27.5414 26.6884 25.6942 29.5746 25.6942 29.5746L26.0673 30.7003V39.8498L24.9571 44.6602H20.1523V44.8045ZM83.5946 27.2656L84.7049 29.5554L85.0781 30.3155H88.5767L88.9499 29.5554L90.0602 27.2656H83.5946ZM92.4672 27.2656L92.094 28.7954H100.603V27.2656H92.4672ZM73.052 27.2656V28.7761H81.1876V27.2656H73.052ZM82.4844 18.6838L82.1112 19.8287L82.4844 20.9736L82.8576 22.5033L83.2308 23.2633V23.6482H91.7395V19.6459L91.3663 19.261L88.9592 20.4059H84.7049L82.4844 18.6934V18.6838ZM84.3504 143.948H89.0152V142.803H84.3504V143.948ZM83.2401 139.946H90.2654V134.798H83.2401V139.946ZM79.4989 150.962H94.2865C94.8126 150.931 95.3275 150.793 95.8011 150.555C96.2748 150.317 96.6977 149.984 97.0452 149.575C97.3926 149.167 97.6576 148.691 97.8247 148.176C97.9919 147.661 98.0577 147.116 98.0184 146.574L95.6114 142.572V128.314H93.9507V95.9011H79.4989V128.314H77.465V142.803L75.0579 146.805C75.2104 147.928 75.737 148.96 76.5474 149.726C77.3578 150.491 78.4014 150.942 79.4989 151V150.962ZM80.4318 130.94V132.47L81.1689 133.23V140.475L80.4318 141.235V142.38L83.576 146.382L82.4657 149.624H91.3756L90.2654 146.382L93.4095 142.38V141.235L92.6725 140.475V133.23L93.4095 132.47V130.94H91.3756V128.275H82.5031V131.162H80.4692L80.4318 130.94ZM82.4657 122.551V125.437H91.3756V122.551H82.4657ZM82.4657 116.644V119.53H91.3756V116.644H82.4657ZM82.4657 110.544V113.786H91.3756V110.554L82.4657 110.544ZM82.4657 105.012V107.898H91.3756V105.012H82.4657ZM82.4657 98.9125V101.395H91.3756V98.9125H82.4657ZM87.1306 7.96611L87.8677 6.82122L88.6047 6.06117L89.715 5.67633L89.5284 4.33902V3.62708L90.2654 2.48219L89.8922 1.3373L88.4088 2.09735L87.4758 2.28977V1.14489L87.849 0H87.112L86.3749 2.09735L86.7481 4.19471V5.68595L85.6379 7.61013L87.1213 7.99497L87.1306 7.96611ZM97.3001 16.3555L98.0371 15.5955L97.6639 14.4506L97.2907 12.3532L96.5537 10.8235L95.8166 10.0635V7.17719L94.7064 6.79235L93.5961 7.93724H94.7064V9.86142L93.9693 10.2463L92.8591 9.86142L91.3756 8.77426L91.0025 8.01421L90.6293 7.62938H89.1458V8.01421L89.519 9.1591L90.2561 9.54393L91.7395 10.304L92.4766 13.1903L92.8498 14.72L94.8836 15.8649L96.3671 15.48L97.3001 16.4421V16.3555ZM89.5377 15.9707L90.2747 12.7285L86.7108 10.6792L84.3037 12.2089L84.6769 12.969L86.1603 12.2089L87.6438 12.969L88.3808 14.4987L89.4911 16.0284L89.5377 15.9707Z" fill="white"/>
</svg>
