<svg width="70" height="70" viewBox="0 0 70 70" fill="none" xmlns="http://www.w3.org/2000/svg">
<path d="M4.66663 33.2471C4.66663 27.7355 6.69167 21 12.2033 21C17.715 21 19.74 27.7355 19.74 33.2471C19.74 38.7588 15.5103 41.7259 12.2033 41.7259C8.89633 41.7259 4.66663 38.7588 4.66663 33.2471Z" stroke="white" stroke-width="3" stroke-linecap="round" stroke-linejoin="round"/>
<path d="M57.8592 39.9616C54.5311 39.9616 50.2745 35.744 50.2745 30.1973V23.3333M57.8592 39.9616C61.1872 39.9616 65.4438 35.744 65.4438 30.1973V23.3333M57.8592 39.9616V23.3333" stroke="white" stroke-width="3" stroke-linecap="round" stroke-linejoin="round"/>
<path fill-rule="evenodd" clip-rule="evenodd" d="M20.8092 17.6213C21.2788 17.7331 21.7717 17.622 22.162 17.3379C25.7651 14.7144 30.2017 13.1667 34.9999 13.1667C39.7264 13.1667 44.1022 14.6686 47.6759 17.2212C48.0697 17.5024 48.5649 17.6088 49.0343 17.4914C50.256 17.186 50.6331 15.6631 49.6156 14.9212C45.5149 11.9311 40.4635 10.1667 34.9999 10.1667C29.4548 10.1667 24.3342 11.9841 20.2013 15.0558C19.1892 15.8079 19.5826 17.3292 20.8092 17.6213ZM14.0287 41.0954C13.7977 40.299 13.0031 39.7819 12.1929 39.9581C11.3838 40.134 10.8658 40.9345 11.0897 41.7317C14.0242 52.1759 23.6178 59.8334 34.9999 59.8334C47.7281 59.8334 58.2198 50.2575 59.6637 37.917C59.7495 37.1833 59.337 36.5385 58.615 36.3819C57.715 36.1867 56.7765 36.8363 56.6617 37.7501C55.3094 48.5101 46.1266 56.8334 34.9999 56.8334C25.0572 56.8334 16.6668 50.1873 14.0287 41.0954Z" fill="white"/>
<path d="M34.9999 21.2119V34.9999" stroke="white" stroke-width="3" stroke-linecap="round" stroke-linejoin="round"/>
<path d="M34.9999 35L41.3635 41.3636" stroke="white" stroke-width="3" stroke-linecap="round" stroke-linejoin="round"/>
</svg>
