<svg width="70" height="70" viewBox="0 0 70 70" fill="none" xmlns="http://www.w3.org/2000/svg">
<g clip-path="url(#clip0_2981_5261)">
<path d="M58.6799 35V59.6C58.6799 62.3614 56.4414 64.6 53.6799 64.6H16.3199C13.5585 64.6 11.3199 62.3614 11.3199 59.6V35" stroke="white" stroke-width="3" stroke-linecap="round" stroke-linejoin="round"/>
<path d="M59.5999 20.2H10.3999C7.63848 20.2 5.3999 22.4386 5.3999 25.2V30C5.3999 32.7614 7.63848 35 10.3999 35H59.5999C62.3613 35 64.5999 32.7614 64.5999 30V25.2C64.5999 22.4386 62.3613 20.2 59.5999 20.2Z" stroke="white" stroke-width="3" stroke-linecap="round" stroke-linejoin="round"/>
<path d="M34.9999 35V20.2" stroke="white" stroke-width="3" stroke-linecap="round" stroke-linejoin="round"/>
<path d="M34.9998 20.2H21.6798C19.7172 20.2 17.835 19.4204 16.4473 18.0326C15.0595 16.6448 14.2798 14.7626 14.2798 12.8C14.2798 10.8374 15.0595 8.9552 16.4473 7.56743C17.835 6.17967 19.7172 5.40002 21.6798 5.40002C32.0398 5.40002 34.9998 20.2 34.9998 20.2Z" stroke="white" stroke-width="3" stroke-linecap="round" stroke-linejoin="round"/>
<path d="M34.9999 20.2H48.3199C50.2825 20.2 52.1647 19.4204 53.5525 18.0326C54.9402 16.6448 55.7199 14.7626 55.7199 12.8C55.7199 10.8374 54.9402 8.9552 53.5525 7.56743C52.1647 6.17967 50.2825 5.40002 48.3199 5.40002C37.9599 5.40002 34.9999 20.2 34.9999 20.2Z" stroke="white" stroke-width="3" stroke-linecap="round" stroke-linejoin="round"/>
<path d="M33.5188 52.35V53.975C33.5188 54.6083 33.6438 55.05 33.8938 55.3C34.1605 55.55 34.5105 55.675 34.9438 55.675C35.3772 55.675 35.7188 55.55 35.9688 55.3C36.2355 55.05 36.3688 54.6083 36.3688 53.975V50.125C36.3688 49.4917 36.2355 49.05 35.9688 48.8C35.7188 48.5333 35.3772 48.4 34.9438 48.4C34.5105 48.4 34.1605 48.5333 33.8938 48.8C33.6438 49.05 33.5188 49.4917 33.5188 50.125V50.65H30.9188L31.4188 40.5H38.6688V43H33.8938L33.6688 47.175C34.1855 46.325 34.9855 45.9 36.0688 45.9C37.0855 45.9 37.8438 46.2417 38.3438 46.925C38.8605 47.6083 39.1188 48.6 39.1188 49.9V53.8C39.1188 55.2167 38.7688 56.3083 38.0688 57.075C37.3855 57.825 36.3688 58.2 35.0188 58.2C33.6688 58.2 32.6438 57.825 31.9438 57.075C31.2605 56.3083 30.9188 55.2167 30.9188 53.8V52.35H33.5188Z" fill="white"/>
</g>
<defs>
<clipPath id="clip0_2981_5261">
<rect width="70" height="70" fill="white" transform="translate(-0.00012207)"/>
</clipPath>
</defs>
</svg>
