<svg width="70" height="70" viewBox="0 0 70 70" fill="none" xmlns="http://www.w3.org/2000/svg">
<path d="M35.5677 62.1124L34.6591 60.919L34.6591 60.919L35.5677 62.1124ZM49.8491 14.0157L50.9469 12.9934L49.8491 14.0157ZM20.1506 14.0157L19.0529 12.9934L20.1506 14.0157ZM34.432 62.1124L33.5233 63.3059L33.5233 63.3059L34.432 62.1124ZM54.4999 29.9617C54.4999 37.3534 50.4906 44.4162 45.8799 50.062C41.296 55.6748 36.2906 59.6767 34.6591 60.919L36.4764 63.3059C38.1993 61.9941 43.4099 57.8292 48.2035 51.9596C52.9703 46.1227 57.4999 38.3873 57.4999 29.9617H54.4999ZM48.7514 15.0379C52.4213 18.9789 54.4999 24.3455 54.4999 29.9617H57.4999C57.4999 23.6161 55.1535 17.5107 50.9469 12.9934L48.7514 15.0379ZM34.9999 8.91058C40.1357 8.91058 45.0848 11.1005 48.7514 15.0379L50.9469 12.9934C46.7369 8.47249 41.0031 5.91058 34.9999 5.91058V8.91058ZM21.2484 15.0379C24.9149 11.1005 29.864 8.91058 34.9999 8.91058V5.91058C28.9966 5.91058 23.2629 8.47249 19.0529 12.9934L21.2484 15.0379ZM15.4999 29.9617C15.4999 24.3455 17.5785 18.9789 21.2484 15.0379L19.0529 12.9934C14.8463 17.5107 12.4999 23.6161 12.4999 29.9617H15.4999ZM35.3407 60.919C33.7091 59.6767 28.7037 55.6748 24.1198 50.062C19.5091 44.4162 15.4999 37.3534 15.4999 29.9617H12.4999C12.4999 38.3873 17.0295 46.1227 21.7962 51.9596C26.5898 57.8292 31.8005 61.9941 33.5233 63.3059L35.3407 60.919ZM34.6591 60.919C34.8553 60.7696 35.1444 60.7696 35.3407 60.919L33.5233 63.3059C34.4008 63.9739 35.599 63.9739 36.4764 63.3059L34.6591 60.919ZM34.9999 39.0981C40.9024 39.0981 45.6874 34.3131 45.6874 28.4106H42.6874C42.6874 32.6563 39.2456 36.0981 34.9999 36.0981V39.0981ZM24.3124 28.4106C24.3124 34.3131 29.0973 39.0981 34.9999 39.0981V36.0981C30.7542 36.0981 27.3124 32.6563 27.3124 28.4106H24.3124ZM34.9999 17.7231C29.0973 17.7231 24.3124 22.508 24.3124 28.4106H27.3124C27.3124 24.1649 30.7542 20.7231 34.9999 20.7231V17.7231ZM45.6874 28.4106C45.6874 22.508 40.9024 17.7231 34.9999 17.7231V20.7231C39.2456 20.7231 42.6874 24.1649 42.6874 28.4106H45.6874Z" fill="white"/>
</svg>
