<svg width="0" height="0" class="hidden">

	<symbol id="vegan" viewBox="0 0 30 30" fill="none" xmlns="http://www.w3.org/2000/svg">
		<path d="M26.4966 12.444C26.687 11.926 26.7921 11.3645 26.7921 10.7774C26.7921 8.18616 24.7615 6.08555 22.2567 6.08555C22.0815 6.08555 21.9091 6.09688 21.7391 6.11678C20.6699 3.34962 18.0565 1.39368 14.9999 1.39368C11.9433 1.39368 9.3299 3.34962 8.26079 6.11678C8.09082 6.09688 7.91835 6.08555 7.74322 6.08555C5.23837 6.08555 3.20777 8.18616 3.20777 10.7774C3.20777 11.3645 3.3129 11.926 3.50329 12.444C2.23561 13.2759 1.39355 14.7396 1.39355 16.4076C1.39355 18.9988 3.42415 21.0994 5.929 21.0994C6.8613 21.0994 7.72759 20.8078 8.44825 20.3088C10.1298 21.2181 11.2808 23.0393 11.2808 25.1344V28.6064H18.6283V25.1344C18.6283 23.0179 19.8029 21.1812 21.5124 20.2814C22.2408 20.7972 23.1216 21.0994 24.0708 21.0994C26.5757 21.0994 28.6063 18.9988 28.6063 16.4076C28.6063 14.7396 27.7643 13.2759 26.4966 12.444ZM13.6393 22.6709C13.0916 20.8619 11.9573 19.3189 10.468 18.2811C11.2546 17.6681 11.842 16.7966 12.1126 15.7884C12.5963 16.0057 13.1079 16.1682 13.6393 16.2729V22.6709ZM16.3606 22.3907V16.2728C16.892 16.1681 17.4036 16.0056 17.8873 15.7883C18.1531 16.7784 18.7246 17.6366 19.49 18.2476C18.0547 19.2321 16.9436 20.6835 16.3606 22.3907Z" fill="#23A67E"/>
	</symbol>

	<symbol id="halal" viewBox="0 0 30 30" fill="none" xmlns="http://www.w3.org/2000/svg">
		<path d="M27.4222 14.4782L24.1566 11.2126V6.59446C24.1566 6.18402 23.8238 5.85118 23.4133 5.85118H18.795L15.5296 2.58563C15.3903 2.44626 15.2012 2.36792 15.004 2.36792C14.8068 2.36792 14.6178 2.44626 14.4784 2.58563L11.2129 5.85125H6.59461C6.18417 5.85125 5.85133 6.1841 5.85133 6.59454V11.2127L2.58585 14.4782C2.2956 14.7684 2.2956 15.2391 2.58585 15.5294L5.85133 18.795V23.4132C5.85133 23.8236 6.18417 24.1564 6.59461 24.1564H11.213L14.4785 27.4221C14.6179 27.5614 14.807 27.6398 15.0041 27.6398C15.2012 27.6398 15.3903 27.5614 15.5296 27.4221L18.7951 24.1564H23.4134C23.8239 24.1564 24.1567 23.8236 24.1567 23.4132V18.795L27.4223 15.5294C27.5617 15.39 27.64 15.201 27.64 15.0038C27.64 14.8067 27.5616 14.6176 27.4222 14.4782Z" stroke="#23A67E" stroke-width="2.6"/>
		<path d="M12.9552 11.4123C12.9874 11.4104 13.0165 11.3931 13.0337 11.3659C13.0508 11.3388 13.0539 11.3051 13.0419 11.2753L12.4006 9.67943C12.3891 9.65065 12.3649 9.62886 12.3348 9.62046C12.3047 9.61197 12.2729 9.61806 12.2479 9.63665C12.1488 9.71102 12.0359 9.78289 11.9165 9.85905C11.6627 10.0206 11.4003 10.1876 11.227 10.4054C11.2028 10.4358 11.1983 10.4774 11.2157 10.512C11.7565 11.6045 11.55 13.3169 11.384 14.6931C11.3456 15.0126 11.3093 15.3145 11.2847 15.5873C11.197 16.563 10.3955 16.9997 9.63997 16.9997C9.09313 16.9997 8.61665 16.7673 8.39666 16.393C8.16127 15.9927 8.21604 15.4587 8.55518 14.8489C8.57447 14.8143 8.57158 14.7716 8.54759 14.74C8.5263 14.7118 8.49351 14.6956 8.45763 14.6956C8.22454 14.6956 7.27089 16.0835 7.22132 17.1225C7.19453 17.684 7.41423 18.3774 8.61246 18.4917C8.71871 18.5019 8.83095 18.507 8.9461 18.507C10.1074 18.507 12.004 17.9441 12.1481 16.4338C12.1692 16.2124 12.1803 15.8532 12.1934 15.4372C12.2335 14.1433 12.3176 11.4507 12.9552 11.4123Z" fill="#23A67E"/>
		<path d="M24.4125 15.757C23.8812 15.6907 23.4126 15.4714 23.0177 15.1033C22.861 14.9643 22.7013 14.8159 22.5466 14.6722C22.1089 14.2654 21.6562 13.8447 21.1547 13.5253C21.0416 13.4533 20.915 13.4169 20.7778 13.4169C20.0879 13.4169 19.3596 14.3082 19.2853 14.8471C19.2501 15.1026 19.3549 15.2842 19.5732 15.3456C19.6132 15.3566 19.6562 15.3422 19.681 15.3086C19.9004 15.0097 20.1117 14.8644 20.3266 14.8644C20.6264 14.8644 20.9429 15.143 21.2781 15.4382C21.4174 15.5606 21.5596 15.686 21.7101 15.8014C21.193 15.8644 20.7053 15.8976 20.2874 15.8976C19.4878 15.8976 18.5237 15.7779 18.4731 15.2083C18.3795 14.1608 18.5662 13.0458 18.7463 11.9676C18.8414 11.3995 18.9396 10.8121 18.9935 10.2494C18.997 10.2117 18.979 10.1752 18.947 10.1551C18.9149 10.1351 18.8742 10.135 18.8418 10.1545C17.8318 10.7704 17.4791 11.6901 17.1059 12.6637C16.8535 13.3224 16.5933 14.0015 16.1142 14.6492C15.8366 12.6998 15.0952 11.217 13.8522 10.1214C13.8256 10.098 13.7883 10.0902 13.7549 10.1015C13.7213 10.1124 13.6959 10.1406 13.6883 10.1751C13.6491 10.3543 13.6011 10.5331 13.5544 10.706C13.3152 11.593 13.0894 12.431 14.1359 13.0612C14.1652 13.079 14.2017 13.0803 14.2326 13.0649C14.2633 13.0494 14.2838 13.0193 14.2871 12.985L14.2983 12.865C14.8977 13.7335 15.229 14.5108 15.3884 15.413C15.1107 15.6559 14.7036 15.8704 14.3094 16.078C13.8138 16.3391 13.3015 16.6089 13.0258 16.947C12.9948 16.9851 12.9962 17.0401 13.0289 17.0768C13.4048 17.4971 13.8132 17.7103 14.2427 17.7103C15.7332 17.7103 17.0671 15.1795 17.6762 13.8193C17.6733 13.8382 17.6703 13.8571 17.6674 13.8757C17.4387 15.3482 17.2021 16.8708 19.0135 17.3473C19.0203 17.3492 19.0274 17.3502 19.0346 17.3505C19.1986 17.3575 19.3789 17.3611 19.5708 17.3611H19.571C20.2986 17.3611 23.952 17.2902 24.4933 15.8919C24.5044 15.8632 24.5017 15.831 24.4859 15.8046C24.4701 15.7784 24.443 15.7608 24.4125 15.757Z" fill="#23A67E"/>
	</symbol>

	<symbol id="spicy" viewBox="0 0 30 30" fill="none" xmlns="http://www.w3.org/2000/svg">
		<path d="M22.6806 5.67801C22.6806 5.67801 21.7724 2.56418 17.4478 1.74243" stroke="#D36148"/>
		<path d="M28.0345 9.18784C28.0339 9.18429 28.0339 9.18387 28.0332 9.18035C28.0105 9.06824 27.1058 4.72697 23.1559 4.72656C21.407 4.79257 19.7774 5.62982 20.1305 8.8642C23.51 22.253 5.57659 27.074 1.81205 15.2597C1.71217 14.9462 1.27179 14.9614 1.26057 15.2902C1.1227 19.3293 3.50575 23.3322 6.91233 25.8312C7.33531 26.1415 7.77407 26.4286 8.22574 26.6897C9.63435 27.504 11.1685 28.0654 12.7413 28.2888C19.9785 29.3162 27.8566 23.7394 28.3149 13.7349C28.3764 12.3944 28.3046 10.9744 28.0802 9.4801C28.0668 9.39079 28.0396 9.21999 28.0345 9.18784Z" fill="#D36148"/>
	</symbol>

	<symbol id="kosh" viewBox="0 0 30 30" fill="none" xmlns="http://www.w3.org/2000/svg">
		<path d="M25.8202 22.5186C26.2141 22.5186 26.578 22.3036 26.7749 21.9547C26.9718 21.6057 26.9719 21.1758 26.7749 20.8269L23.4864 14.9999L26.7749 9.17292C26.9719 8.82398 26.9719 8.39406 26.7749 8.04512C26.5779 7.69617 26.2141 7.48122 25.8202 7.48122H19.2433L15.9548 1.65423C15.7579 1.30529 15.394 1.09033 15.0001 1.09033C14.6063 1.09033 14.2423 1.30529 14.0454 1.65423L10.757 7.48122H4.18004C3.78619 7.48122 3.42225 7.69617 3.22536 8.04512C3.02847 8.39406 3.0284 8.82398 3.22536 9.17292L6.51383 14.9999L3.22536 20.8269C3.0284 21.1758 3.0284 21.6057 3.22536 21.9547C3.42232 22.3036 3.78619 22.5186 4.18004 22.5186H10.757L14.0454 28.3456C14.2424 28.6945 14.6063 28.9095 15.0001 28.9095C15.394 28.9095 15.7579 28.6945 15.9548 28.3456L19.2433 22.5186H25.8202ZM23.9108 20.263H20.5162L22.2134 17.2555L23.9108 20.263ZM17.9704 20.263H12.0299L9.05964 14.9999L12.0299 9.73682H17.9704L20.9406 14.9999L17.9704 20.263ZM23.9108 9.73682L22.2135 12.7443L20.5163 9.73682H23.9108ZM15.0001 4.47374L16.6974 7.48122H13.3029L15.0001 4.47374ZM6.08947 9.73682H9.48407L7.78681 12.7443L6.08947 9.73682ZM6.08947 20.263L7.78674 17.2555L9.48399 20.263H6.08947ZM15.0001 25.5261L13.3029 22.5186H16.6974L15.0001 25.5261Z" fill="#23A67E" stroke="#23A67E" stroke-width="0.7"/>
	</symbol>




</svg>