<svg width="70" height="70" viewBox="0 0 70 70" fill="none" xmlns="http://www.w3.org/2000/svg">
<path fill-rule="evenodd" clip-rule="evenodd" d="M16.6665 10.8333C14.7335 10.8333 13.1665 12.4003 13.1665 14.3333V55.6667C13.1665 57.5996 14.7335 59.1666 16.6665 59.1666H53.3332C55.2662 59.1666 56.8332 57.5997 56.8332 55.6667V14.3333C56.8332 12.4003 55.2662 10.8333 53.3332 10.8333H16.6665ZM10.1665 14.3333C10.1665 10.7435 13.0767 7.83331 16.6665 7.83331H53.3332C56.923 7.83331 59.8332 10.7435 59.8332 14.3333V55.6667C59.8332 59.2565 56.923 62.1666 53.3332 62.1666H16.6665C13.0767 62.1666 10.1665 59.2565 10.1665 55.6667V14.3333Z" fill="white"/>
<path d="M20.9999 30.3333H30.3332V21H20.9999V30.3333Z" stroke="white" stroke-width="3" stroke-linecap="round" stroke-linejoin="round"/>
<path d="M48.9998 23.3333L39.6665 23.3333" stroke="white" stroke-width="3" stroke-linecap="round" stroke-linejoin="round"/>
<path d="M44.3332 30.3333L39.6665 30.3333" stroke="white" stroke-width="3" stroke-linecap="round" stroke-linejoin="round"/>
<path d="M20.9999 49H30.3332V39.6667H20.9999V49Z" stroke="white" stroke-width="3" stroke-linecap="round" stroke-linejoin="round"/>
<path d="M48.9998 42L39.6665 42" stroke="white" stroke-width="3" stroke-linecap="round" stroke-linejoin="round"/>
<path d="M41.9998 49L39.6665 49" stroke="white" stroke-width="3" stroke-linecap="round" stroke-linejoin="round"/>
</svg>
