<svg width="0" height="0" class="hidden">

	<symbol id="cart" viewBox="0 0 30 30" fill="none" xmlns="http://www.w3.org/2000/svg">
		<path d="M11.7139 27C12.3188 27 12.8091 26.5096 12.8091 25.9047C12.8091 25.2999 12.3188 24.8095 11.7139 24.8095C11.109 24.8095 10.6187 25.2999 10.6187 25.9047C10.6187 26.5096 11.109 27 11.7139 27Z" stroke="#47474A" stroke-width="2" stroke-linecap="round" stroke-linejoin="round"/>
		<path d="M23.7617 27C24.3666 27 24.857 26.5096 24.857 25.9047C24.857 25.2999 24.3666 24.8095 23.7617 24.8095C23.1569 24.8095 22.6665 25.2999 22.6665 25.9047C22.6665 26.5096 23.1569 27 23.7617 27Z" stroke="#47474A" stroke-width="2" stroke-linecap="round" stroke-linejoin="round"/>
		<path d="M2.95215 4H7.3331L10.2683 18.6652C10.3685 19.1695 10.6428 19.6224 11.0433 19.9448C11.4437 20.2672 11.9448 20.4384 12.4588 20.4286H23.1045C23.6185 20.4384 24.1196 20.2672 24.5201 19.9448C24.9205 19.6224 25.1949 19.1695 25.295 18.6652L27.0474 9.47619H13.0221M14.7233 15.0233H25.295" stroke="#47474A" stroke-width="2" stroke-linecap="round" stroke-linejoin="round"/>
	</symbol>

	<symbol id="dashboard" viewBox="0 0 30 30" fill="none" xmlns="http://www.w3.org/2000/svg">
		<path d="M11.3333 6L6.66667 6C6.29848 6 6 6.29848 6 6.66667L6 11.3333C6 11.7015 6.29848 12 6.66667 12L11.3333 12C11.7015 12 12 11.7015 12 11.3333L12 6.66667C12 6.29848 11.7015 6 11.3333 6Z" stroke="#47474A" stroke-width="2" stroke-linecap="round" stroke-linejoin="round"/>
		<path d="M24.1111 5L17.8889 5C17.398 5 17 5.39797 17 5.88889L17 12.1111C17 12.602 17.398 13 17.8889 13L24.1111 13C24.602 13 25 12.602 25 12.1111V5.88889C25 5.39797 24.602 5 24.1111 5Z" stroke="#47474A" stroke-width="2" stroke-linecap="round" stroke-linejoin="round"/>
		<path d="M12.1111 17L5.88889 17C5.39797 17 5 17.398 5 17.8889L5 24.1111C5 24.602 5.39797 25 5.88889 25L12.1111 25C12.602 25 13 24.602 13 24.1111L13 17.8889C13 17.398 12.602 17 12.1111 17Z" stroke="#47474A" stroke-width="2" stroke-linecap="round" stroke-linejoin="round"/>
		<path d="M24.1111 17L17.8889 17C17.398 17 17 17.398 17 17.8889L17 24.1111C17 24.602 17.398 25 17.8889 25L24.1111 25C24.602 25 25 24.602 25 24.1111L25 17.8889C25 17.398 24.602 17 24.1111 17Z" stroke="#47474A" stroke-width="2" stroke-linecap="round" stroke-linejoin="round"/>
	</symbol>

	<symbol id="delivery" viewBox="0 0 30 30" fill="none" xmlns="http://www.w3.org/2000/svg">
		<path fill-rule="evenodd" clip-rule="evenodd" d="M1 6.99997C1 5.34312 2.34315 3.99997 4 3.99997H18C19.6569 3.99997 21 5.34312 21 6.99997V8.44341C21.3128 8.33286 21.6494 8.27271 22 8.27271H23.6261C24.4218 8.27271 25.1848 8.58878 25.7474 9.15138L28.1213 11.5253C28.6839 12.0879 29 12.8509 29 13.6466V18.7273C29 20.3841 27.6569 21.7273 26 21.7273H25.636C25.6362 21.7121 25.6364 21.697 25.6364 21.6818C25.6364 20.9324 25.3573 20.2481 24.8975 19.7273H26C26.5523 19.7273 27 19.2795 27 18.7273V13.6466C27 13.3814 26.8946 13.127 26.7071 12.9395L24.3332 10.5656C24.1457 10.3781 23.8913 10.2727 23.6261 10.2727H22C21.4477 10.2727 21 10.7204 21 11.2727V18.7273C21 18.8905 21.0391 19.0445 21.1084 19.1806C20.3409 19.6644 19.8117 20.4917 19.7365 21.4466C19.2464 21.7951 18.6471 22 18 22H10.2558C10.267 21.8955 10.2727 21.7893 10.2727 21.6818C10.2727 21.0569 10.0787 20.4773 9.74766 20H18C18.5523 20 19 19.5523 19 19V18.7273V11.2727V6.99997C19 6.44768 18.5523 5.99997 18 5.99997H4C3.44772 5.99997 3 6.44768 3 6.99997V8.99997H1V6.99997ZM1 17V19C1 20.6568 2.34315 22 4 22H4.38058C4.36939 21.8955 4.36365 21.7893 4.36365 21.6818C4.36365 21.0569 4.55765 20.4773 4.88872 20H4C3.44772 20 3 19.5523 3 19V17H1Z" fill="#47474A"/>
		<path d="M7.31832 24.6364C8.95007 24.6364 10.2729 23.3136 10.2729 21.6818C10.2729 20.0501 8.95007 18.7273 7.31832 18.7273C5.68657 18.7273 4.36377 20.0501 4.36377 21.6818C4.36377 23.3136 5.68657 24.6364 7.31832 24.6364Z" stroke="#47474A" stroke-width="2" stroke-linecap="round" stroke-linejoin="round"/>
		<path d="M22.6816 24.6364C24.3133 24.6364 25.6361 23.3136 25.6361 21.6818C25.6361 20.0501 24.3133 18.7273 22.6816 18.7273C21.0498 18.7273 19.7271 20.0501 19.7271 21.6818C19.7271 23.3136 21.0498 24.6364 22.6816 24.6364Z" stroke="#47474A" stroke-width="2" stroke-linecap="round" stroke-linejoin="round"/>
		<path d="M11 8.99997H2" stroke="#47474A" stroke-width="2" stroke-linecap="round" stroke-linejoin="round"/>
		<path d="M8 13H2" stroke="#47474A" stroke-width="2" stroke-linecap="round" stroke-linejoin="round"/>
		<path d="M4 17H2" stroke="#47474A" stroke-width="2" stroke-linecap="round" stroke-linejoin="round"/>
	</symbol>

	<symbol id="menu" viewBox="0 0 30 30" fill="none" xmlns="http://www.w3.org/2000/svg">
		<path fill-rule="evenodd" clip-rule="evenodd" d="M8 5C6.89543 5 6 5.89543 6 7V23C6 24.1046 6.89543 25 8 25H22C23.1046 25 24 24.1046 24 23V7C24 5.89543 23.1046 5 22 5H8ZM4 7C4 4.79086 5.79086 3 8 3H22C24.2091 3 26 4.79086 26 7V23C26 25.2091 24.2091 27 22 27H8C5.79086 27 4 25.2091 4 23V7Z" fill="#47474A"/>
		<path d="M9 16H13V12H9V16Z" stroke="#47474A" stroke-width="2" stroke-linecap="round" stroke-linejoin="round"/>
		<path d="M13 19L9 19" stroke="#47474A" stroke-width="2" stroke-linecap="round" stroke-linejoin="round"/>
		<path d="M11 22L9 22" stroke="#47474A" stroke-width="2" stroke-linecap="round" stroke-linejoin="round"/>
		<path d="M17 16H21V12H17V16Z" stroke="#47474A" stroke-width="2" stroke-linecap="round" stroke-linejoin="round"/>
		<path d="M21 19L17 19" stroke="#47474A" stroke-width="2" stroke-linecap="round" stroke-linejoin="round"/>
		<path d="M19 22L17 22" stroke="#47474A" stroke-width="2" stroke-linecap="round" stroke-linejoin="round"/>
		<path d="M21 8L9 8" stroke="#47474A" stroke-width="2" stroke-linecap="round" stroke-linejoin="round"/>
	</symbol>

	<symbol id="info" viewBox="0 0 30 30" fill="none" xmlns="http://www.w3.org/2000/svg">
		<path d="M15 26C21.0751 26 26 21.0751 26 15C26 8.92487 21.0751 4 15 4C8.92487 4 4 8.92487 4 15C4 21.0751 8.92487 26 15 26Z" stroke="#47474A" stroke-width="2" stroke-linecap="round" stroke-linejoin="round"/>
		<path d="M15 19.4V15" stroke="#47474A" stroke-width="2" stroke-linecap="round" stroke-linejoin="round"/>
		<path d="M15 10.6H15.011" stroke="#47474A" stroke-width="2" stroke-linecap="round" stroke-linejoin="round"/>
	</symbol>



	<!-- <symbol id="menu" viewBox="0 0 30 30" fill="none" xmlns="http://www.w3.org/2000/svg">
		<path fill-rule="evenodd" clip-rule="evenodd" d="M6.27295 16.0315C5.72066 16.0315 5.27295 16.4792 5.27295 17.0315V25.0315C5.27295 26.4571 6.26594 27.9406 7.85973 27.9406H22.1407C23.7345 27.9406 24.7275 26.4571 24.7275 25.0315V17.0315C24.7275 16.4792 24.2798 16.0315 23.7275 16.0315C23.1752 16.0315 22.7275 16.4792 22.7275 17.0315V25.0315C22.7275 25.3376 22.6238 25.5857 22.4937 25.7422C22.3653 25.8967 22.2361 25.9406 22.1407 25.9406H7.85973C7.76437 25.9406 7.63511 25.8967 7.50674 25.7422C7.37661 25.5857 7.27295 25.3376 7.27295 25.0315V17.0315C7.27295 16.4792 6.82523 16.0315 6.27295 16.0315Z" fill="#47474A"/>
		<path d="M17.6775 14.9406H12.3221C11.9935 14.9406 11.7271 15.307 11.7271 15.7588V20.6679C11.7271 21.1198 11.9935 21.4861 12.3221 21.4861H17.6775C18.0061 21.4861 18.2725 21.1198 18.2725 20.6679V15.7588C18.2725 15.307 18.0061 14.9406 17.6775 14.9406Z" stroke="#47474A" stroke-width="2" stroke-linecap="round" stroke-linejoin="round"/>
		<path d="M3 14.9407L15 3.27377L27 14.9407" stroke="#47474A" stroke-width="2" stroke-linecap="round" stroke-linejoin="round"/>
		<path d="M23.7271 11.6679L23.7271 5.66794" stroke="#47474A" stroke-width="2" stroke-linecap="round" stroke-linejoin="round"/>
	</symbol> -->

	<!-- <symbol id="promo" viewBox="0 0 30 30" fill="none" xmlns="http://www.w3.org/2000/svg">
		<path d="M21.2503 4L21.2493 4L15.2674 4.00648C14.9671 4.00005 14.5476 4.00105 14.1226 4.15717L14.0506 4.18365L13.9834 4.22081C13.6775 4.39003 13.3933 4.59942 13.1336 4.84849L13.126 4.85573L13.1186 4.86313L5.16926 12.8126L5.16257 12.8193L5.15601 12.8261C3.60117 14.441 3.61159 17.0086 5.20664 18.6037L11.3914 24.7918L11.3921 24.7925C13.0031 26.4014 15.618 26.4038 17.2265 24.792C17.2266 24.792 17.2266 24.7919 17.2267 24.7919C17.2269 24.7916 17.2272 24.7913 17.2274 24.7911L25.0979 16.9205C25.3538 16.6646 25.5658 16.384 25.738 16.0892L25.7473 16.074C25.7595 16.0538 25.7752 16.0271 25.7934 15.9937L25.8336 15.9201L25.8609 15.8408C25.872 15.8087 25.8914 15.7507 25.9063 15.6849C25.9086 15.6747 25.9122 15.6583 25.9161 15.637C25.9996 15.3048 26.0062 14.9904 25.9968 14.7263L26 8.75024V8.74905C25.9991 7.345 25.6471 6.10853 24.7687 5.23011C23.8902 4.35158 22.6539 4 21.2503 4Z" stroke="#47474A" stroke-width="2"/>
		<path d="M17.6214 12.5397L11.6299 18.5312" stroke="#47474A" stroke-width="1.3" stroke-linecap="round"/>
		<circle cx="12.9859" cy="11.7953" r="1.63973" stroke="#47474A" stroke-width="1.3"/>
		<circle cx="15.9815" cy="19.3302" r="1.63973" stroke="#47474A" stroke-width="1.3"/>
		<circle cx="21" cy="9" r="1" fill="#47474A"/>
	</symbol> -->
</svg>