<svg width="115" height="103" viewBox="0 0 115 103" fill="none" xmlns="http://www.w3.org/2000/svg">
<path d="M12 31.5H19.5V68C19.5 72.6944 15.6944 76.5 11 76.5C6.30558 76.5 2.5 72.6944 2.5 68V41C2.5 35.7533 6.7533 31.5 12 31.5Z" stroke="#47474A" stroke-width="5"/>
<rect x="34.4038" y="17.1861" width="30.4486" height="16.2692" rx="2.5" stroke="#47474A" stroke-width="5"/>
<path fill-rule="evenodd" clip-rule="evenodd" d="M11 79L12.1762 76H17V63H16.9946V12C16.9946 5.37258 22.3672 0 28.9946 0H70.3979C77.0253 0 82.3979 5.37258 82.3979 12V40H77.3979V12C77.3979 8.13401 74.2638 5 70.3979 5H28.9946C25.1286 5 21.9946 8.134 21.9946 12V63.7097V64.6548L21.6497 65.5347L18.3308 74H55V79H16.3705H11Z" fill="#47474A"/>
<path d="M35.6774 46.7204H56.0645" stroke="#47474A" stroke-width="5" stroke-linecap="round"/>
<path d="M35.6774 61.1613H45.8709" stroke="#47474A" stroke-width="5" stroke-linecap="round"/>
<path d="M93.1072 39.6667L93.1045 39.6667L78.5494 39.6824C77.8179 39.6668 76.7866 39.6688 75.7401 40.0532L75.56 40.1194L75.392 40.2123C74.6426 40.6269 73.9463 41.1399 73.3102 41.7499L73.2913 41.768L73.2729 41.7865L53.9294 61.1302L53.9127 61.147L53.8963 61.164C50.0878 65.1194 50.1132 71.4089 54.0204 75.3161L69.07 90.3739L69.0717 90.3755C73.0184 94.3171 79.4247 94.3224 83.3646 90.3727C83.3649 90.3725 83.3651 90.3722 83.3653 90.372L102.517 71.2204C103.144 70.5935 103.663 69.9065 104.084 69.1846L104.107 69.1477C104.137 69.098 104.176 69.0322 104.221 68.9498L104.321 68.7658L104.389 68.5677C104.416 68.489 104.465 68.345 104.502 68.1814C104.507 68.1563 104.516 68.1162 104.526 68.0641C104.731 67.2482 104.747 66.4773 104.723 65.8327L104.731 51.2923L104.731 51.2893C104.729 47.8625 103.87 44.8338 101.716 42.6795C99.561 40.5248 96.5328 39.6667 93.1072 39.6667ZM104.079 69.1937C104.076 69.1981 104.076 69.1987 104.079 69.1938L104.079 69.1937Z" stroke="#47474A" stroke-width="5"/>
<path d="M84.2774 60.5134L69.6981 75.0927" stroke="#47474A" stroke-width="3" stroke-linecap="round"/>
<ellipse cx="72.9976" cy="58.7019" rx="3.99001" ry="3.99001" stroke="#47474A" stroke-width="3"/>
<ellipse cx="80.2874" cy="77.0369" rx="3.99001" ry="3.99001" stroke="#47474A" stroke-width="3"/>
<ellipse cx="92.498" cy="51.9" rx="2.43333" ry="2.43333" fill="#47474A"/>
</svg>
