<svg width="158" height="158" viewBox="0 0 158 158" fill="none" xmlns="http://www.w3.org/2000/svg">
<path fill-rule="evenodd" clip-rule="evenodd" d="M14.9445 10.3368C13.6868 9.07912 11.6648 8.96891 10.4023 10.2219C4.28692 16.2911 0.5 24.7033 0.5 34V124C0.5 142.502 15.4985 157.5 34 157.5H124C133.297 157.5 141.709 153.713 147.778 147.598C149.031 146.335 148.921 144.313 147.663 143.056C146.196 141.588 143.783 141.754 142.28 143.186C137.525 147.718 131.087 150.5 124 150.5H34C19.3645 150.5 7.5 138.636 7.5 124V34C7.5 26.9125 10.2823 20.4749 14.8143 15.7199C16.2464 14.2174 16.4122 11.8045 14.9445 10.3368ZM151.618 128.625C150.784 127.791 150.398 126.62 150.461 125.442C150.487 124.965 150.5 124.484 150.5 124V34C150.5 19.3645 138.636 7.5 124 7.5H34C33.5162 7.5 33.0354 7.51297 32.558 7.53857C31.3801 7.60173 30.2086 7.21618 29.3746 6.38212C27.3122 4.31979 28.2561 0.86224 31.1625 0.618477C32.0979 0.54002 33.0443 0.5 34 0.5H124C142.502 0.5 157.5 15.4985 157.5 34V124C157.5 124.956 157.46 125.902 157.382 126.838C157.138 129.744 153.68 130.688 151.618 128.625Z" fill="#D36148"/>
<path d="M14.8333 14.8334L143.167 143.167" stroke="#D36148" stroke-width="7" stroke-linecap="round" stroke-linejoin="round"/>
<path fill-rule="evenodd" clip-rule="evenodd" d="M46.5339 41.7263C45.5603 40.7526 44.0965 40.4497 42.8331 40.997C34.1538 44.7567 26.0453 49.8761 18.8354 56.2315C17.3853 57.5097 17.246 59.7214 18.5242 61.1715C19.8024 62.6215 22.0141 62.7609 23.4641 61.4827C30.0432 55.6834 37.4327 50.999 45.3406 47.5399C47.6417 46.5334 48.3098 43.5022 46.5339 41.7263ZM68.1079 63.3003C67.3257 62.5181 66.2035 62.1716 65.1248 62.4166C55.3948 64.6261 46.2529 69.1083 38.4845 75.5788C36.9992 76.816 36.798 79.0229 38.0351 80.5081C39.2723 81.9934 41.4792 82.1946 42.9645 80.9575C49.7497 75.3059 57.7122 71.3586 66.1914 69.3548C68.8972 68.7154 70.0739 65.2663 68.1079 63.3003ZM93.7224 69.7249C93.0179 69.5383 92.37 69.1776 91.8546 68.6622C89.2399 66.0475 91.2736 61.8793 94.858 62.788C104.01 65.108 112.597 69.4521 119.952 75.5788C121.438 76.816 121.639 79.0229 120.402 80.5081C119.165 81.9934 116.958 82.1946 115.472 80.9575C109.083 75.6352 101.649 71.8244 93.7224 69.7249ZM98.0274 93.5397C98.6135 93.8996 99.1463 94.3387 99.6326 94.825L99.7787 94.9711C100.782 95.9749 101.773 97.2367 101.417 98.6111C101.314 99.0127 101.136 99.4025 100.881 99.7609C99.7619 101.337 97.5769 101.707 96.0011 100.587C91.0423 97.064 85.1101 95.1713 79.0272 95.1713C72.9444 95.1713 67.0122 97.064 62.0534 100.587C60.4776 101.707 58.2926 101.337 57.1731 99.7609C56.0535 98.1851 56.4234 96.0001 57.9992 94.8805C64.1424 90.5161 71.4915 88.1713 79.0272 88.1713C85.7505 88.1713 92.3251 90.0377 98.0274 93.5397ZM66.7309 41.4008C65.572 41.5719 64.3942 41.2019 63.5659 40.3735C61.5544 38.362 62.5575 34.9526 65.3701 34.5265C69.857 33.8466 74.4123 33.5 79.0001 33.5C101.154 33.5 122.546 41.5825 139.165 56.2315C140.615 57.5097 140.754 59.7214 139.476 61.1715C138.198 62.6215 135.986 62.7609 134.536 61.4827C119.196 47.9607 99.4492 40.5 79.0001 40.5C74.8716 40.5 70.7717 40.8041 66.7309 41.4008ZM75.4994 119.004C75.4994 117.071 77.0664 115.504 78.9994 115.504H79.0586C80.9916 115.504 82.5586 117.071 82.5586 119.004C82.5586 120.937 80.9916 122.504 79.0586 122.504H78.9994C77.0664 122.504 75.4994 120.937 75.4994 119.004Z" fill="#D36148"/>
</svg>
