<svg width="17" height="11" viewBox="0 0 17 11" fill="none" xmlns="http://www.w3.org/2000/svg">
<path fill-rule="evenodd" clip-rule="evenodd" d="M12.6216 8.59529C13.3068 9.24449 13.9933 9.68288 14.7649 9.76014C15.5931 9.83685 15.9399 9.62437 16.2461 9.71367C16.4739 9.7803 16.7256 10.0944 16.041 10.3763C15.3536 10.6764 14.7101 10.7777 13.4792 10.7777C12.2598 10.7777 11.109 10.3634 10.2786 9.61373C9.46269 8.83941 7.7545 7.28571 7.05598 6.59229C6.86064 6.41396 6.42583 5.96381 6.42583 5.96381C6.42583 5.96381 5.88259 6.24487 4.85823 6.34677L4.85714 8.23584C4.85714 9.22013 5.41318 9.14287 5.77225 9.28844C6.14277 9.44325 6.20761 9.62353 6.20897 9.74615C6.20761 9.87016 6.20761 9.92447 6.20761 9.92447L0.513672 9.92475V9.74531C0.513672 9.62129 0.578239 9.44213 0.938401 9.28704C1.30837 9.14147 1.86414 9.21985 1.86414 8.23584L1.86523 6.09902C1.20021 5.89774 0.798096 5.60436 0.797279 5.20264C0.798096 4.811 1.20021 4.4759 1.86523 4.25334L1.86469 2.06977C1.86523 1.08577 1.31055 1.16387 0.940036 1.01942C0.579874 0.873848 0.515034 0.682926 0.515034 0.571228C0.515851 0.448332 0.515851 0.392343 0.515851 0.392343L6.20761 0.394582C6.20761 0.394582 6.20897 0.450011 6.20979 0.571787C6.21033 0.684605 6.14413 0.874968 5.77443 1.0197C5.41427 1.16527 4.85959 1.08661 4.85877 2.07173L4.85904 3.951C5.73002 3.9958 6.4825 4.10805 7.12381 4.32053C7.1674 4.28694 7.22135 4.24047 7.27583 4.20799C8.43206 3.34744 9.23574 2.78755 9.69535 2.38583C10.1293 1.99475 10.2814 1.76939 10.2811 1.48049C10.2814 1.18795 10.0095 0.785946 8.94206 0.785946C7.87574 0.785666 7.60439 1.06421 7.57034 1.26549C7.53792 1.48917 7.70111 1.74812 8.03838 1.83658C8.37621 1.93792 8.73528 1.69213 8.6688 1.99391C8.62603 2.09469 8.47374 2.19547 8.03838 2.19547C7.51558 2.21758 6.4825 2.02778 6.48195 1.15379C6.48413 0.293522 7.95175 0.013017 8.87667 0.0138569C9.8035 0.0138569 10.4328 0.192182 10.8472 0.472687C11.2839 0.741434 11.3913 1.16611 11.3913 1.16611C11.3913 1.16611 12.1326 0.651572 12.7867 0.461209C13.4381 0.272247 13.9168 0.226615 14.2666 0.227735C14.6156 0.226615 14.9411 0.261328 15.1604 0.338593C15.3762 0.417538 15.6162 0.494803 15.5508 0.596423C15.5072 0.719879 14.9411 0.584945 13.8971 0.964831C12.851 1.345 11.6983 2.03786 10.7486 2.81163C9.80187 3.56076 8.8211 4.30933 8.15798 4.79C8.25579 4.84599 8.34379 4.91262 8.43015 4.98008C9.51826 5.69702 11.934 7.93518 12.6216 8.59529ZM4.14989 4.66067C3.34048 4.69342 2.6978 4.94565 2.70815 5.22531C2.71905 5.50274 3.37971 5.7015 4.18939 5.66819C4.99499 5.63515 5.63985 5.38236 5.6295 5.10466C5.61778 4.82583 4.95521 4.62735 4.14989 4.66067Z" fill="white"/>
</svg>
