<svg width="117" height="117" viewBox="0 0 117 117" fill="none" xmlns="http://www.w3.org/2000/svg">
<path fill-rule="evenodd" clip-rule="evenodd" d="M23.56 58.5C23.56 57.1193 22.4407 56 21.06 56C19.6793 56 18.56 57.1193 18.56 58.5V99.3C18.56 103.994 22.3656 107.8 27.06 107.8H29.9999V102.8H27.06C25.127 102.8 23.56 101.233 23.56 99.3V58.5ZM86.9999 102.8V107.8H89.94C94.6344 107.8 98.44 103.994 98.44 99.3V58.5C98.44 57.1193 97.3207 56 95.94 56C94.5593 56 93.44 57.1193 93.44 58.5V99.3C93.44 101.233 91.873 102.8 89.94 102.8H86.9999Z" fill="white"/>
<path d="M100.3 35.1H16.6999C13.9385 35.1 11.6999 37.3386 11.6999 40.1V53.5C11.6999 56.2614 13.9385 58.5 16.6999 58.5H100.3C103.061 58.5 105.3 56.2614 105.3 53.5V40.1C105.3 37.3386 103.061 35.1 100.3 35.1Z" stroke="white" stroke-width="5" stroke-linecap="round" stroke-linejoin="round"/>
<path d="M58.4999 58.5V35.1" stroke="white" stroke-width="5" stroke-linecap="round" stroke-linejoin="round"/>
<path d="M58.4998 35.1H37.4398C34.3368 35.1 31.3608 33.8673 29.1667 31.6731C26.9725 29.479 25.7398 26.503 25.7398 23.4C25.7398 20.297 26.9725 17.321 29.1667 15.1268C31.3608 12.9327 34.3368 11.7 37.4398 11.7C53.8198 11.7 58.4998 35.1 58.4998 35.1Z" stroke="white" stroke-width="5" stroke-linecap="round" stroke-linejoin="round"/>
<path d="M58.4999 35.1H79.5599C82.6629 35.1 85.6388 33.8673 87.833 31.6731C90.0272 29.479 91.2599 26.503 91.2599 23.4C91.2599 20.297 90.0272 17.321 87.833 15.1268C85.6388 12.9327 82.6629 11.7 79.5599 11.7C63.1799 11.7 58.4999 35.1 58.4999 35.1Z" stroke="white" stroke-width="5" stroke-linecap="round" stroke-linejoin="round"/>
<path d="M37.6949 99.6C38.3829 99.6 38.8789 99.76 39.1829 100.08C39.4949 100.4 39.6509 100.884 39.6509 101.532V101.832C39.6509 102.264 39.5829 102.62 39.4469 102.9C39.3109 103.18 39.0949 103.388 38.7989 103.524C39.1589 103.66 39.4109 103.884 39.5549 104.196C39.7069 104.5 39.7829 104.876 39.7829 105.324V106.008C39.7829 106.656 39.6149 107.152 39.2789 107.496C38.9429 107.832 38.4429 108 37.7789 108H35.7029V99.6H37.6949ZM37.0229 104.22V106.8H37.7789C38.0029 106.8 38.1709 106.74 38.2829 106.62C38.4029 106.5 38.4629 106.284 38.4629 105.972V105.24C38.4629 104.848 38.3949 104.58 38.2589 104.436C38.1309 104.292 37.9149 104.22 37.6109 104.22H37.0229ZM37.0229 100.8V103.02H37.5389C37.7869 103.02 37.9789 102.956 38.1149 102.828C38.2589 102.7 38.3309 102.468 38.3309 102.132V101.664C38.3309 101.36 38.2749 101.14 38.1629 101.004C38.0589 100.868 37.8909 100.8 37.6589 100.8H37.0229ZM44.9495 108H43.6295V99.6H47.7935V108H46.4495V100.8H44.9495V108ZM50.5506 106.068C50.5506 106.372 50.6106 106.588 50.7306 106.716C50.8586 106.836 51.0266 106.896 51.2346 106.896C51.4426 106.896 51.6066 106.836 51.7266 106.716C51.8546 106.588 51.9186 106.372 51.9186 106.068V101.532C51.9186 101.228 51.8546 101.016 51.7266 100.896C51.6066 100.768 51.4426 100.704 51.2346 100.704C51.0266 100.704 50.8586 100.768 50.7306 100.896C50.6106 101.016 50.5506 101.228 50.5506 101.532V106.068ZM49.2306 101.616C49.2306 100.936 49.4026 100.416 49.7466 100.056C50.0906 99.688 50.5866 99.504 51.2346 99.504C51.8826 99.504 52.3786 99.688 52.7226 100.056C53.0666 100.416 53.2386 100.936 53.2386 101.616V105.984C53.2386 106.664 53.0666 107.188 52.7226 107.556C52.3786 107.916 51.8826 108.096 51.2346 108.096C50.5866 108.096 50.0906 107.916 49.7466 107.556C49.4026 107.188 49.2306 106.664 49.2306 105.984V101.616ZM54.1932 106.8C54.2652 106.808 54.3412 106.812 54.4212 106.812C54.5012 106.812 54.5772 106.812 54.6492 106.812C54.8572 106.812 55.0332 106.76 55.1772 106.656C55.3292 106.552 55.4052 106.336 55.4052 106.008V99.6H59.5812V106.8H60.2532V108.96H58.9092V108H55.5372V108.96H54.1932V106.8ZM56.7252 105.912C56.7252 106.264 56.6892 106.56 56.6172 106.8H58.2612V100.8H56.7252V105.912ZM65.6504 108H64.3184L64.0904 106.476H62.4704L62.2424 108H61.0304L62.3744 99.6H64.3064L65.6504 108ZM62.6384 105.336H63.9104L63.2744 101.088L62.6384 105.336ZM68.7977 99.6C69.4617 99.6 69.9537 99.776 70.2737 100.128C70.6017 100.48 70.7657 100.996 70.7657 101.676V102.768C70.7657 103.448 70.6017 103.964 70.2737 104.316C69.9537 104.668 69.4617 104.844 68.7977 104.844H68.1737V108H66.8537V99.6H68.7977ZM68.1737 100.8V103.644H68.7977C69.0057 103.644 69.1657 103.588 69.2777 103.476C69.3897 103.364 69.4457 103.156 69.4457 102.852V101.592C69.4457 101.288 69.3897 101.08 69.2777 100.968C69.1657 100.856 69.0057 100.8 68.7977 100.8H68.1737ZM73.1654 106.068C73.1654 106.372 73.2254 106.588 73.3454 106.716C73.4734 106.836 73.6414 106.896 73.8494 106.896C74.0574 106.896 74.2214 106.836 74.3414 106.716C74.4694 106.588 74.5334 106.372 74.5334 106.068V101.532C74.5334 101.228 74.4694 101.016 74.3414 100.896C74.2214 100.768 74.0574 100.704 73.8494 100.704C73.6414 100.704 73.4734 100.768 73.3454 100.896C73.2254 101.016 73.1654 101.228 73.1654 101.532V106.068ZM71.8454 101.616C71.8454 100.936 72.0174 100.416 72.3614 100.056C72.7054 99.688 73.2014 99.504 73.8494 99.504C74.4974 99.504 74.9934 99.688 75.3374 100.056C75.6814 100.416 75.8534 100.936 75.8534 101.616V105.984C75.8534 106.664 75.6814 107.188 75.3374 107.556C74.9934 107.916 74.4974 108.096 73.8494 108.096C73.2014 108.096 72.7054 107.916 72.3614 107.556C72.0174 107.188 71.8454 106.664 71.8454 105.984V101.616ZM79.0161 104.652L78.6081 105.42V108H77.2881V99.6H78.6081V103.26L80.3601 99.6H81.6561L79.8201 103.344L81.6561 108H80.3001L79.0161 104.652Z" fill="white"/>
<path d="M49.7487 85.412V87.882C49.7487 88.8447 49.9387 89.516 50.3187 89.896C50.724 90.276 51.256 90.466 51.9147 90.466C52.5733 90.466 53.0927 90.276 53.4727 89.896C53.878 89.516 54.0807 88.8447 54.0807 87.882V82.03C54.0807 81.0673 53.878 80.396 53.4727 80.016C53.0927 79.6107 52.5733 79.408 51.9147 79.408C51.256 79.408 50.724 79.6107 50.3187 80.016C49.9387 80.396 49.7487 81.0673 49.7487 82.03V82.828H45.7967L46.5567 67.4H57.5767V71.2H50.3187L49.9767 77.546C50.762 76.254 51.978 75.608 53.6247 75.608C55.17 75.608 56.3227 76.1273 57.0827 77.166C57.868 78.2047 58.2607 79.712 58.2607 81.688V87.616C58.2607 89.7693 57.7287 91.4287 56.6647 92.594C55.626 93.734 54.0807 94.304 52.0287 94.304C49.9767 94.304 48.4187 93.734 47.3547 92.594C46.316 91.4287 45.7967 89.7693 45.7967 87.616V85.412H49.7487Z" fill="white"/>
<path d="M60.8457 86.8H64.4457V88.6H60.8457V86.8ZM67.8213 94H65.7873V81.4H67.5513V88.942L69.5853 81.4H72.0693V94H70.2873V84.874L67.8213 94ZM71.1333 79.222V80.698H66.7773V79.222H71.1333Z" fill="white"/>
</svg>
