<svg width="70" height="70" viewBox="0 0 70 70" fill="none" xmlns="http://www.w3.org/2000/svg">
<path fill-rule="evenodd" clip-rule="evenodd" d="M21.864 13C19.0941 13 16.6284 14.7554 15.7219 17.3729L12.0854 27.8733C11.8015 28.6931 11.6909 29.5197 11.7298 30.3197L14.9891 28.6563L18.5568 18.3546C19.0449 16.9452 20.3725 16 21.864 16H48.1692C49.6493 16 50.9694 16.9311 51.4661 18.3253L55.2073 28.8257C55.2491 28.9431 55.2843 29.0607 55.3131 29.1783L58.3883 30.6007C58.4724 29.6962 58.3658 28.7523 58.0333 27.8189L54.2921 17.3185C53.3696 14.7291 50.918 13 48.1692 13H21.864ZM62.9999 37.1714V46.3335C62.9999 47.6398 62.1651 48.751 60.9999 49.1628V53C60.9999 53.8284 60.3283 54.5 59.4999 54.5H55.4999C54.6715 54.5 53.9999 53.8284 53.9999 53V49.3335H50.9999V53C50.9999 55.4853 53.0146 57.5 55.4999 57.5H59.4999C61.9852 57.5 63.9999 55.4853 63.9999 53V40C63.9999 38.9284 63.6253 37.9443 62.9999 37.1714ZM18.9999 49.3335H15.9999V53C15.9999 53.8284 15.3283 54.5 14.4999 54.5H10.4999C9.67145 54.5 8.99988 53.8284 8.99988 53V49.1628C7.83472 48.7509 6.99994 47.6397 6.99994 46.3335V37.1713C6.3745 37.9441 5.99988 38.9283 5.99988 40V53C5.99988 55.4853 8.0146 57.5 10.4999 57.5H14.4999C16.9852 57.5 18.9999 55.4853 18.9999 53V49.3335Z" fill="white"/>
<path d="M12.2743 29.9184C14.7058 28.3399 17.5427 27.4999 20.4416 27.4999H49.5581C52.4571 27.4999 55.2939 28.3399 57.7255 29.9184L60.7668 31.8927C62.4713 32.9992 63.4999 34.8932 63.4999 36.9253V43.5004C63.4999 46.8141 60.8136 49.5004 57.4999 49.5004H12.4999C9.18617 49.5004 6.49988 46.8141 6.49988 43.5004V36.9253C6.49988 34.8932 7.52846 32.9992 9.23293 31.8927L12.2743 29.9184Z" stroke="white" stroke-width="3" stroke-linecap="round" stroke-linejoin="round"/>
<path d="M6.99988 43.0002L18.6665 38.3336" stroke="white" stroke-width="3" stroke-linecap="round" stroke-linejoin="round"/>
<path d="M7.99988 25.0004L12.4999 28.5004" stroke="white" stroke-width="3" stroke-linecap="round" stroke-linejoin="round"/>
<path d="M62 25.0004L57.5 28.5004" stroke="white" stroke-width="3" stroke-linecap="round" stroke-linejoin="round"/>
<path d="M27.9999 40.5004H41.9999" stroke="white" stroke-width="3" stroke-linecap="round" stroke-linejoin="round"/>
<path d="M63 43.0002L51.3333 38.3336" stroke="white" stroke-width="3" stroke-linecap="round" stroke-linejoin="round"/>
</svg>
