<svg width="77" height="10" viewBox="0 0 77 10" fill="none" xmlns="http://www.w3.org/2000/svg">
<path fill-rule="evenodd" clip-rule="evenodd" d="M45.6831 0.459367C45.6831 0.3529 45.7305 0.249769 45.8246 0.150251C45.9203 0.0510112 46.0205 0.00125238 46.1273 0.00125238H46.8232C46.931 0.00125238 47.031 0.0593507 47.1258 0.175269C47.2202 0.291188 47.2673 0.404327 47.2673 0.514686V3.73984C47.2673 3.87244 47.3159 4.00587 47.4126 4.14013C47.5088 4.2744 47.6204 4.34167 47.7495 4.34167H52.4398C52.7252 4.33444 52.8761 4.25688 52.892 4.10955C52.9085 3.9625 52.8699 3.79682 52.7772 3.61252C52.4271 2.93897 52.0654 2.35771 51.6924 1.8679C51.3196 1.3781 50.9401 0.92749 50.5553 0.514686C50.352 0.301473 50.3084 0.162204 50.4267 0.0977123C50.5442 0.0332204 50.6499 0.000974399 50.7426 0.000974399H51.8239C52.042 0.00820194 52.2913 0.166652 52.5735 0.476046C53.7483 1.83816 54.5065 3.17748 54.8491 4.49345C55.1914 5.80969 55.3633 7.46202 55.3633 9.44987C55.3633 9.80291 55.2453 9.98332 55.0094 9.99083H54.2065C54.0133 9.99083 53.8939 9.92189 53.8475 9.78373C53.8011 9.64557 53.7774 9.50881 53.7774 9.37259C53.7885 8.80912 53.7817 8.2615 53.7559 7.72944C53.7311 7.1971 53.6758 6.72704 53.5907 6.3184C53.5227 6.04931 53.3443 5.91533 53.0554 5.91533L47.7808 5.91505C47.6455 5.91505 47.5266 5.98566 47.4223 6.12771C47.3191 6.26948 47.2671 6.41041 47.2671 6.55024V9.4218C47.2671 9.54328 47.2256 9.66837 47.1417 9.79763C47.0574 9.92606 46.9622 9.99083 46.855 9.99083H46.02C45.92 9.99083 45.8383 9.93468 45.7769 9.82237C45.7138 9.71007 45.6825 9.60277 45.6825 9.49936V0.459367H45.6831Z" fill="#47474A"/>
<path fill-rule="evenodd" clip-rule="evenodd" d="M57.2152 1.11151C57.2152 0.76904 57.3106 0.498563 57.502 0.299805C57.692 0.10077 57.9327 0.00153036 58.2211 0.00153036H61.0117C61.8357 0.00153036 62.72 0.117449 63.6644 0.349564C64.6083 0.581124 65.3573 0.899691 65.9106 1.30499C66.0354 1.40062 66.1502 1.54127 66.2559 1.72752C66.3613 1.91349 66.4071 2.08195 66.3923 2.23262V3.0446C66.3995 3.22112 66.3801 3.36818 66.3332 3.48604C66.2869 3.60363 66.14 3.56499 65.8942 3.37012C65.0266 2.69629 64.0692 2.229 63.0216 1.96714C61.9739 1.70612 60.8775 1.58603 59.7315 1.60855C59.1102 1.60855 58.8003 1.87374 58.8003 2.40358V4.46871C58.8003 4.62354 58.8186 4.75475 58.8561 4.86344C58.893 4.97213 59.0302 4.91626 59.266 4.69554C59.8118 4.24271 60.6848 3.85965 61.8839 3.54664C62.2297 3.45852 62.4065 3.53191 62.4141 3.76736V4.67886C62.3963 5.04691 62.2429 5.28069 61.9535 5.37993C61.4928 5.53811 61.0581 5.71323 60.6495 5.90449C60.2409 6.09602 59.8425 6.30228 59.4533 6.52272C59.3242 6.60028 59.1838 6.70702 59.0302 6.84323C58.876 6.97944 58.8 7.17431 58.8 7.42839V7.84814C58.8 7.97685 58.8469 8.09388 58.941 8.19895C59.0364 8.30375 59.1641 8.35629 59.3242 8.35629H60.2875C61.0481 8.35629 61.9836 8.22675 63.0938 7.96684C64.2034 7.7072 65.0958 7.32525 65.7713 6.82099C65.8855 6.71425 66.0176 6.67005 66.1672 6.6884C66.3173 6.70647 66.392 6.82099 66.392 7.03059V7.88678C66.392 8.17366 66.3087 8.38381 66.1429 8.51641C65.9772 8.64873 65.7888 8.78133 65.578 8.91392C64.8859 9.37398 64.0078 9.66698 62.944 9.79179C61.8807 9.91716 60.9948 9.98332 60.2878 9.99083H58.3127C57.581 9.99083 57.2152 9.59887 57.2152 8.81468V1.11151Z" fill="#47474A"/>
<path fill-rule="evenodd" clip-rule="evenodd" d="M36.088 3.30924C36.0055 3.24003 35.9158 3.10771 35.8212 2.91673L34.8048 0.769596C34.6997 0.540538 34.6816 0.364019 34.7531 0.245321C34.8471 0.0888168 35.1007 0.00986984 35.5077 0.00986984H42.6655C42.8161 0.00986984 42.952 0.0849251 43.083 0.238371C43.214 0.392652 43.2803 0.549434 43.2803 0.703992V2.10641C43.2803 2.3288 43.2067 2.55813 43.0598 2.78886C42.9129 3.02153 42.7245 3.20472 42.5008 3.33204C42.5008 3.33204 41.0041 4.19906 40.951 4.2302C40.9416 4.22742 40.9322 4.22408 40.9322 4.22408L40.9238 4.24632C40.9111 4.27801 40.8748 4.37141 40.8748 4.37141L40.9211 4.39699L42.8846 5.54728C43.29 5.78801 43.5838 6.11548 43.7606 6.52077C43.939 6.9308 44.029 7.38975 44.029 7.884L44.0026 9.00955C43.9958 9.25278 43.9136 9.48212 43.7589 9.692C43.6064 9.8977 43.4242 9.9975 43.2005 9.9975H35.1317C34.8102 9.9975 34.5444 9.8207 34.3202 9.45654C34.1687 9.21025 34.0924 8.98564 34.0924 8.78466C34.0924 8.69154 34.1089 8.60342 34.1423 8.52086C34.1423 8.52002 34.9929 6.41208 34.9929 6.41208C35.0406 6.29561 35.1323 6.18469 35.2649 6.08351C35.3875 5.98983 35.4975 5.96648 35.6007 6.01123L36.4449 6.3979C36.6033 6.47268 36.7907 6.6328 36.5769 7.15124L36.3737 7.65077C36.2333 7.92792 36.2039 8.13807 36.285 8.28763C36.354 8.41495 36.5001 8.485 36.7184 8.49667H41.5305C41.8464 8.50473 42.0585 8.4597 42.1779 8.35851C42.3016 8.25372 42.3612 8.07108 42.3612 7.80005C42.3501 7.54903 42.2512 7.34305 42.048 7.14651C41.8895 6.99362 41.7038 6.81432 41.5006 6.68895L40.5629 6.06544C40.1724 5.8361 39.3169 5.48835 38.849 5.32489C38.59 5.23455 38.4569 5.02495 38.4407 4.68414V3.76291C38.4434 3.66895 38.4811 3.63365 38.5086 3.61586L40.6058 2.37244C40.8052 2.25569 40.9774 2.10113 41.1149 1.91405C41.1912 1.81036 41.1817 1.73253 41.1591 1.68583C41.1039 1.5688 40.92 1.51653 40.5632 1.51653H37.944C37.5895 1.50403 37.4011 1.55073 37.3351 1.66831C37.3157 1.70306 37.3057 1.74281 37.3057 1.78757C37.3057 1.89431 37.3607 2.03108 37.4742 2.20732C37.5793 2.37606 37.6332 2.51783 37.6332 2.62374C37.6332 2.65404 37.6283 2.68156 37.6197 2.70602C37.5911 2.78219 37.5122 2.83778 37.3847 2.87086L37.3758 2.87281C37.3758 2.87281 36.5219 3.33426 36.4977 3.34733C36.3007 3.38096 36.1583 3.36873 36.088 3.30924Z" fill="#47474A"/>
<path fill-rule="evenodd" clip-rule="evenodd" d="M69.4538 2.23234L69.4592 4.81674C69.4592 4.94211 69.5117 5.0647 69.6171 5.18423C69.7225 5.30349 69.8503 5.36381 69.9998 5.36381C71.3558 5.37854 72.4539 5.1695 73.2926 4.73696C74.1311 4.30414 74.6939 3.55415 74.9793 2.48669C75.0615 2.19203 75.0736 1.97771 75.0146 1.84344C74.955 1.70918 74.7489 1.64163 74.396 1.64163H69.9626C69.8335 1.64163 69.7174 1.70834 69.612 1.84066C69.5066 1.97298 69.4538 2.10336 69.4538 2.23234ZM67.8692 0.713443C67.8692 0.551657 67.9372 0.392652 68.0725 0.23587C68.2078 0.0793654 68.3563 0.00125238 68.5166 0.00125238H75.6906C76.4444 -0.024322 76.8334 0.341781 76.8582 1.10012C76.8902 1.9727 76.7813 2.80637 76.5318 3.60196C76.2811 4.39699 75.8248 5.0597 75.161 5.58953C74.4219 6.18608 73.6039 6.58943 72.7064 6.79931C71.8083 7.00919 70.9362 7.13094 70.0912 7.16375C69.9548 7.17125 69.816 7.21434 69.6726 7.29356C69.5306 7.37279 69.4589 7.51512 69.4589 7.72166V9.45599C69.4589 9.5808 69.4163 9.70173 69.3303 9.81764C69.2446 9.93356 69.1465 9.99138 69.0355 9.99138H68.2649C68.1576 9.99138 68.0655 9.92967 67.9859 9.80625C67.9086 9.6831 67.8684 9.5644 67.8684 9.45043L67.8692 0.713443Z" fill="#47474A"/>
<path fill-rule="evenodd" clip-rule="evenodd" d="M14.4172 8.88307C14.2924 9.12241 14.1711 9.36342 14.0533 9.60666C14.0317 9.65086 13.9924 9.71729 13.9355 9.80569C13.8994 9.85712 13.859 9.89743 13.8124 9.92717L13.7477 9.96025C13.7266 9.96748 13.6835 9.97888 13.6196 9.99389H12.2219L12.1146 9.96609L12.0238 9.92689L11.9596 9.85545L11.9276 9.80541C11.9028 9.75399 11.8828 9.68032 11.8688 9.5847C11.8152 9.07265 11.7882 8.56116 11.7882 8.0494C11.7739 7.55654 11.7901 7.00224 11.8367 6.38734C11.8545 6.15578 11.8769 5.91894 11.9036 5.67765C11.9305 5.43692 11.9599 5.19841 11.9923 4.9624C12.0421 4.63133 12.092 4.3425 12.1421 4.09593C12.2348 3.63198 12.3437 3.15885 12.4685 2.67655C12.5758 2.29711 12.6882 1.91655 12.8059 1.53349C12.8701 1.34585 12.9375 1.15766 13.0067 0.970299C13.0763 0.782383 13.1453 0.594467 13.2129 0.407107C13.2593 0.322322 13.2949 0.25783 13.3199 0.213631C13.3698 0.158312 13.4412 0.105218 13.5339 0.0537911L13.652 0.0204332L13.7805 0.0040322H14.8886L14.9638 0.00959185L15.0174 0.0207111L15.0708 0.0482314L15.1085 0.07047L15.1406 0.0982682L15.1675 0.136908L15.1942 0.192226L15.2104 0.247267C15.2104 0.302585 15.2015 0.363185 15.1834 0.429345L15.1511 0.500509C14.9974 0.894132 14.8193 1.35391 14.6155 1.88069C14.5118 2.17507 14.4096 2.47057 14.3075 2.7669C14.2059 3.06378 14.1104 3.36067 14.021 3.65894C13.928 3.98307 13.8568 4.24438 13.807 4.44313C13.7568 4.61604 13.7013 4.86094 13.6409 5.17756C13.6194 5.29543 13.6005 5.41107 13.5846 5.52532C13.5684 5.63929 13.5515 5.7516 13.5334 5.86196C13.5118 6.09046 13.4962 6.31673 13.4854 6.54134C13.4746 6.76595 13.4698 6.82961 13.4444 7.14345L13.6981 6.8032C14.574 5.65097 16.0564 4.07925 16.9661 3.49438C17.1995 3.34399 18.8875 2.18202 20.2033 1.74059C20.244 1.72697 20.2006 1.53794 20.2033 1.32612C20.2095 0.749581 20.2047 0.47966 20.2047 0.421284C20.2047 0.138854 20.2995 0.0240469 20.5216 0.000974399L21.5054 0.00292028C21.5517 0.00292028 21.6016 0.00847992 21.655 0.0193212C21.7194 0.0340543 21.773 0.054347 21.8159 0.0801994C21.8692 0.116893 21.9086 0.155533 21.9339 0.196118L21.9711 0.284794C21.9892 0.328716 21.9981 0.376529 21.9981 0.428233V9.5455C21.9981 9.59721 21.9892 9.65224 21.9711 9.71118C21.9606 9.74092 21.9442 9.77762 21.9231 9.82181C21.8768 9.89909 21.8051 9.95052 21.7089 9.97637L21.6288 9.99333H20.5904L20.5208 9.98193L20.4138 9.95969L20.3335 9.90993L20.3011 9.86601L20.2693 9.82154L20.237 9.77206C20.2049 9.69228 20.2109 9.62778 20.2049 9.59443C20.2003 9.56913 20.2036 3.73317 20.2028 3.59251C18.47 4.16181 17.2709 5.3791 16.9092 5.6543C16.1863 6.32202 15.0581 7.72888 14.4172 8.88307Z" fill="#47474A"/>
<path fill-rule="evenodd" clip-rule="evenodd" d="M32.5952 0.158868C32.5136 0.0726939 32.4268 0.0262708 32.3362 0.0148735L32.3368 0.0145955L32.3308 0.0143176C32.3179 0.0132056 32.3058 0.0101478 32.2928 0.0101478L32.2915 0.0120937L32.2573 0.0101478L28.389 0.00180835C28.264 0.0129276 27.8942 0.00903589 27.7893 0.0412818C27.6942 0.0682461 27.5276 0.114669 27.4061 0.197786C27.3279 0.242263 27.1862 0.336777 27.1161 0.38737C26.9972 0.47271 26.9185 0.525249 26.7471 0.661183C26.5827 0.782661 26.4134 0.926378 26.2385 1.09206L26.0299 1.29609L25.8318 1.51709L25.6445 1.73253L25.4731 1.96436L25.307 2.20732L25.1518 2.45584L25.0073 2.70963L24.7348 3.23975L24.5041 3.79794L24.3114 4.38337L24.1456 5.0016L24.0112 5.63679C23.9936 5.7616 23.9767 5.88781 23.9608 6.01484C23.9446 6.14188 23.9273 6.26614 23.9098 6.38734C23.888 6.54607 23.8721 6.70396 23.8616 6.86214C23.8505 7.02086 23.8365 7.18098 23.8187 7.34277C23.8077 7.58211 23.8001 7.82395 23.7947 8.06886C23.7891 8.31404 23.7864 8.55783 23.7864 8.80079C23.7904 8.92949 23.7928 9.05931 23.7947 9.18968C23.7963 9.32061 23.8007 9.4521 23.8077 9.58469C23.8149 9.63251 23.8308 9.70256 23.8562 9.79457C23.8812 9.83877 23.9152 9.88102 23.9578 9.92189L24.0217 9.96581C24.0753 9.98054 24.1252 9.99138 24.1718 9.99889H25.1356L25.2423 9.99333C25.2817 9.98249 25.3229 9.96775 25.3655 9.94913C25.4121 9.91577 25.4515 9.87546 25.4836 9.82765L25.5159 9.76149L25.5477 9.59637L25.5159 8.77354V7.90096C25.5191 7.7097 25.5283 7.52012 25.5423 7.33248C25.5566 7.14457 25.5725 6.95693 25.5906 6.76929L25.6763 6.1013L25.7938 5.53227L25.9334 5.00216L26.0992 4.49956L26.3027 4.03561L26.5223 3.61614L26.7789 3.21834L27.063 2.84307L27.3843 2.50615L27.7268 2.19148C27.7268 2.19148 28.2934 1.71752 28.6645 1.62439C28.8553 1.51876 31.1571 1.57686 31.1571 1.57686L31.1522 9.43125C31.1522 9.553 31.1943 9.6781 31.2781 9.8068C31.3619 9.93579 31.4576 10 31.5646 10H32.3998C32.5001 10 32.581 9.94385 32.6432 9.83154C32.706 9.71952 32.7373 9.61166 32.7373 9.50881V0.467985C32.7375 0.36124 32.6898 0.258386 32.5952 0.158868Z" fill="#47474A"/>
<path fill-rule="evenodd" clip-rule="evenodd" d="M7.75425 9.99111H6.91899C6.55864 10.0056 6.50851 9.78873 6.76914 9.33951C7.18313 8.58451 7.52758 7.82896 7.80249 7.07257C8.07741 6.31618 8.33265 5.53449 8.56848 4.72834C9.1892 2.62985 8.74152 1.59909 7.22437 1.63579H2.90416C2.49367 1.63579 2.28829 1.87708 2.28829 2.35965V9.53327C2.28829 9.64363 2.24086 9.74759 2.14626 9.84516C2.05192 9.94246 1.95085 9.99166 1.84358 9.99166H0.918032C0.817769 9.99166 0.723436 9.9419 0.633954 9.84211C0.544741 9.74314 0.5 9.64001 0.5 9.53355V1.12791C0.5 0.862998 0.614278 0.608922 0.842835 0.365965C1.07112 0.123009 1.31208 0.00125238 1.5657 0.00125238H8.1987C9.51586 0.00125238 10.3107 0.550823 10.5837 1.64969C10.857 2.74855 10.8007 3.95555 10.4153 5.26957C9.97594 6.71675 9.41021 8.13752 8.7178 9.53299C8.60379 9.72063 8.48224 9.84377 8.35367 9.90271C8.22565 9.96164 8.02566 9.99111 7.75425 9.99111Z" fill="#47474A"/>
</svg>
