<svg width="30" height="30" viewBox="0 0 30 30" fill="none" xmlns="http://www.w3.org/2000/svg">
<path d="M15.0163 3.00004L15.0175 3.00004C17.7933 3.00409 20.4818 3.97031 22.6252 5.73414C24.7685 7.49796 26.2341 9.95028 26.7723 12.6734C27.3105 15.3965 26.888 18.222 25.5767 20.6686C24.2655 23.1151 22.1467 25.0315 19.5811 26.0911C17.0156 27.1508 14.162 27.2883 11.5064 26.4802C8.85089 25.6721 6.55762 23.9683 5.01725 21.6592C3.47689 19.35 2.78469 16.5782 3.05858 13.816C3.33246 11.0537 4.55548 8.47188 6.51932 6.51016L6.52013 6.50935C7.63499 5.39312 8.95961 4.50841 10.4177 3.90613C11.8759 3.30386 13.4387 2.99592 15.0163 3.00004Z" stroke="#47474A" stroke-width="2"/>
<path fill-rule="evenodd" clip-rule="evenodd" d="M18.2941 21.4337H17.1709C16.6863 21.4523 16.6189 21.173 16.9694 20.5944C17.5261 19.6218 17.9893 18.6486 18.3589 17.6743C18.7286 16.7 19.0718 15.6931 19.389 14.6546C20.2236 11.9515 19.6216 10.6238 17.5815 10.6711H11.7721C11.2201 10.6711 10.944 10.9819 10.944 11.6035V20.844C10.944 20.9861 10.8802 21.12 10.753 21.2457C10.6261 21.371 10.4902 21.4344 10.346 21.4344H9.10138C8.96655 21.4344 8.8397 21.3703 8.71938 21.2418C8.59941 21.1143 8.53925 20.9815 8.53925 20.8443V10.0169C8.53925 9.67563 8.69292 9.34835 9.00026 9.03539C9.30724 8.72243 9.63125 8.5656 9.9723 8.5656H18.8917C20.6629 8.5656 21.7317 9.27351 22.0989 10.689C22.4664 12.1044 22.3906 13.6592 21.8723 15.3518C21.2816 17.2159 20.5208 19.0461 19.5898 20.8436C19.4364 21.0853 19.273 21.2439 19.1001 21.3198C18.928 21.3957 18.659 21.4337 18.2941 21.4337Z" fill="#47474A"/>
</svg>
