<svg width="70" height="70" viewBox="0 0 70 70" fill="none" xmlns="http://www.w3.org/2000/svg">
<path d="M58.3332 42.7777C58.3332 44.1529 57.7869 45.4718 56.8145 46.4442C55.8421 47.4166 54.5232 47.9629 53.148 47.9629H22.0369L11.6666 58.3333V16.8518C11.6666 15.4766 12.2129 14.1577 13.1853 13.1853C14.1577 12.2129 15.4766 11.6666 16.8517 11.6666H53.148C54.5232 11.6666 55.8421 12.2129 56.8145 13.1853C57.7869 14.1577 58.3332 15.4766 58.3332 16.8518V42.7777Z" stroke="#47474A" stroke-width="3" stroke-linecap="round" stroke-linejoin="round"/>
<path d="M34.9999 18.6666L38.6049 25.5783L46.6666 26.6934L40.8333 32.0704L42.2099 39.6666L34.9999 36.0783L27.7899 39.6666L29.1666 32.0704L23.3333 26.6934L31.3949 25.5783L34.9999 18.6666Z" stroke="#47474A" stroke-width="3" stroke-linecap="round" stroke-linejoin="round"/>
</svg>
