<svg width="70" height="70" viewBox="0 0 70 70" fill="none" xmlns="http://www.w3.org/2000/svg">
<g clip-path="url(#clip0_2981_5249)">
<path d="M32.2758 41.4484C35.8371 42.9528 39.9436 41.2854 41.448 37.7241C42.9524 34.1628 41.285 30.0563 37.7238 28.5519C34.1625 27.0474 30.0559 28.7149 28.5515 32.2761C27.0471 35.8374 28.7145 39.9439 32.2758 41.4484Z" stroke="#47474A" stroke-width="3" stroke-linecap="round" stroke-linejoin="round"/>
<path d="M48.76 48.7454C48.1754 49.296 47.7692 50.0091 47.5937 50.7927C47.4182 51.5763 47.4815 52.3945 47.7754 53.1418L47.8531 53.3333C48.0943 53.9263 48.2162 54.5611 48.2119 55.2013C48.2076 55.8414 48.0772 56.4745 47.828 57.0642C47.5789 57.6539 47.216 58.1888 46.76 58.6382C46.3041 59.0875 45.764 59.4426 45.1707 59.6831C44.5777 59.9243 43.9429 60.0462 43.3028 60.0419C42.6626 60.0376 42.0295 59.9072 41.4398 59.6581C40.8501 59.4089 40.3152 59.046 39.8659 58.5901C39.4165 58.1341 39.0614 57.594 38.8209 57.0007L38.7431 56.8092C38.4328 56.0686 37.9078 55.4379 37.2357 54.9984C36.5636 54.559 35.7752 54.3309 34.9723 54.3437C34.1885 54.3478 33.423 54.581 32.77 55.0146C32.1171 55.4481 31.6052 56.0632 31.2973 56.784L31.1361 57.1654C30.6334 58.3556 29.6784 59.2972 28.4813 59.7833C27.2842 60.2694 25.9431 60.26 24.7529 59.7572C23.5628 59.2544 22.6211 58.2995 22.135 57.1024C21.649 55.9053 21.6584 54.5642 22.1611 53.374L22.2464 53.1721C22.5428 52.4221 22.6067 51.6002 22.4297 50.8134C22.2528 50.0266 21.8433 49.3113 21.2544 48.7603C20.7038 48.1758 19.9908 47.7695 19.2072 47.594C18.4235 47.4185 17.6053 47.4818 16.858 47.7757L16.6665 47.8534C16.0735 48.0946 15.4387 48.2165 14.7986 48.2122C14.1584 48.2079 13.5253 48.0775 12.9356 47.8284C12.3459 47.5792 11.811 47.2163 11.3617 46.7604C10.9123 46.3044 10.5572 45.7643 10.3167 45.171C10.0755 44.578 9.95358 43.9433 9.95788 43.3031C9.96218 42.6629 10.0926 42.0299 10.3417 41.4401C10.5909 40.8504 10.9538 40.3156 11.4098 39.8662C11.8657 39.4168 12.4058 39.0617 12.9991 38.8212L13.1906 38.7434C13.9312 38.4332 14.562 37.9081 15.0014 37.236C15.4409 36.5639 15.6689 35.7755 15.6561 34.9726C15.652 34.1888 15.4188 33.4233 14.9853 32.7704C14.5517 32.1174 13.9367 31.6055 13.2159 31.2976L12.8344 31.1365C11.6443 30.6337 10.7026 29.6787 10.2165 28.4816C9.73046 27.2846 9.73985 25.9434 10.2426 24.7533C10.7454 23.5631 11.7003 22.6214 12.8974 22.1354C14.0945 21.6493 15.4357 21.6587 16.6258 22.1614L16.8278 22.2468C17.5778 22.5431 18.3996 22.607 19.1864 22.4301C19.9732 22.2532 20.6885 21.8436 21.2395 21.2547C21.8241 20.7042 22.2303 19.9911 22.4058 19.2075C22.5813 18.4239 22.518 17.6056 22.2241 16.8583L22.1464 16.6668C21.9052 16.0738 21.7833 15.4391 21.7876 14.7989C21.7919 14.1587 21.9223 13.5257 22.1715 12.9359C22.4206 12.3462 22.7835 11.8114 23.2395 11.362C23.6954 10.9126 24.2355 10.5575 24.8288 10.317C25.4218 10.0758 26.0566 9.9539 26.6967 9.9582C27.3369 9.96251 27.97 10.0929 28.5597 10.3421C29.1494 10.5912 29.6843 10.9541 30.1336 11.4101C30.583 11.866 30.9381 12.4061 31.1786 12.9994L31.2564 13.1909C31.5667 13.9316 32.0917 14.5623 32.7638 15.0017C33.4359 15.4412 34.2243 15.6692 35.0272 15.6564L35.2067 15.7322C35.9905 15.7282 36.756 15.495 37.4089 15.0614C38.0619 14.6279 38.5738 14.0128 38.8817 13.292L39.0429 12.9106C39.5456 11.7204 40.5006 10.7787 41.6977 10.2927C42.8948 9.80661 44.2359 9.816 45.4261 10.3188C46.6162 10.8215 47.5579 11.7765 48.044 12.9736C48.53 14.1707 48.5206 15.5118 48.0179 16.702L47.9326 16.9039C47.6304 17.6271 47.5464 18.4229 47.6908 19.1933C47.8351 19.9637 48.2016 20.6751 48.7451 21.2398C49.2957 21.8244 50.0087 22.2306 50.7923 22.4061C51.576 22.5816 52.3942 22.5183 53.1415 22.2245L53.333 22.1467C53.926 21.9055 54.5608 21.7836 55.2009 21.7879C55.8411 21.7922 56.4742 21.9227 57.0639 22.1718C57.6536 22.4209 58.1885 22.7838 58.6378 23.2398C59.0872 23.6958 59.4423 24.2358 59.6828 24.8291C59.924 25.4221 60.0459 26.0569 60.0416 26.6971C60.0373 27.3372 59.9069 27.9703 59.6577 28.56C59.4086 29.1497 59.0457 29.6846 58.5897 30.134C58.1338 30.5833 57.5937 30.9384 57.0004 31.1789L56.8089 31.2567C56.0683 31.567 55.4375 32.092 54.9981 32.7642C54.5586 33.4363 54.3306 34.2246 54.3434 35.0275L54.2676 35.207C54.2717 35.9908 54.5048 36.7563 54.9384 37.4093C55.372 38.0622 55.987 38.5742 56.7078 38.882L57.0892 39.0432C58.2794 39.5459 59.2211 40.5009 59.7072 41.698C60.1932 42.8951 60.1838 44.2362 59.6811 45.4264C59.1783 46.6165 58.2233 47.5582 57.0262 48.0443C55.8292 48.5304 54.488 48.521 53.2979 48.0182L53.0959 47.9329C52.3727 47.6308 51.5769 47.5467 50.8065 47.6911C50.0361 47.8354 49.3248 48.2019 48.76 48.7454V48.7454Z" stroke="#47474A" stroke-width="3" stroke-linecap="round" stroke-linejoin="round"/>
</g>
<defs>
<clipPath id="clip0_2981_5249">
<rect width="70" height="70" fill="white" transform="translate(-0.00012207)"/>
</clipPath>
</defs>
</svg>
