<svg width="30" height="30" viewBox="0 0 30 30" fill="none" xmlns="http://www.w3.org/2000/svg">
<path d="M25.9464 4.01257V10.605H19.3539" stroke="#47474A" stroke-width="2" stroke-linecap="round" stroke-linejoin="round"/>
<path d="M3.9715 25.9874V19.395H10.564" stroke="#47474A" stroke-width="2" stroke-linecap="round" stroke-linejoin="round"/>
<path fill-rule="evenodd" clip-rule="evenodd" d="M14.959 5.01257C9.78007 5.01257 5.52184 8.95437 5.02082 14.0014C4.96626 14.551 4.52381 15 3.97152 15C3.41924 15 2.96717 14.5507 3.01261 14.0003C3.52058 7.84758 8.67513 3.01257 14.959 3.01257C19.6559 3.01257 23.7219 5.71392 25.6881 9.64774C26.0088 10.2894 25.5101 11 24.7927 11C24.3799 11 24.0106 10.7532 23.8196 10.3871C22.1534 7.19311 18.8108 5.01257 14.959 5.01257ZM25.9464 15C25.3941 15 24.9516 15.449 24.8971 15.9986C24.3961 21.0456 20.1378 24.9874 14.959 24.9874C11.1071 24.9874 7.76451 22.8069 6.09829 19.6129C5.90735 19.2468 5.53801 19 5.12517 19C4.40782 19 3.90907 19.7106 4.22979 20.3523C6.19599 24.2861 10.262 26.9874 14.959 26.9874C21.2428 26.9874 26.3973 22.1524 26.9053 15.9997C26.9507 15.4493 26.4987 15 25.9464 15Z" fill="#47474A"/>
</svg>
