<svg width="16" height="16" viewBox="0 0 16 16" fill="none" xmlns="http://www.w3.org/2000/svg">
<g clip-path="url(#clip0_3030_7174)">
<path d="M11.5814 3.64809C11.5814 3.64809 11.097 1.98738 8.79053 1.54912" stroke="#D36148"/>
<path d="M14.4371 5.52243C14.4366 5.51888 14.4362 5.51656 14.4355 5.51304C14.4127 5.40349 13.9173 3.14084 11.8348 3.14062C10.9021 3.17583 10.033 3.62236 10.2213 5.34736C11.9568 12.2229 3.15372 14.8621 0.70535 9.4236C0.570297 9.12361 0.148358 9.158 0.180973 9.48536C0.370711 11.3898 1.55509 13.2106 3.1716 14.3964C3.39719 14.5619 3.6312 14.715 3.87209 14.8543C4.62335 15.2886 5.44157 15.588 6.28037 15.7071C10.1402 16.2551 14.3419 13.2808 14.5863 7.94508C14.6191 7.23013 14.5808 6.47279 14.4611 5.67585C14.4543 5.63016 14.4406 5.54447 14.4371 5.52243Z" fill="#D36148"/>
</g>
<defs>
<clipPath id="clip0_3030_7174">
<rect width="16" height="16" fill="white"/>
</clipPath>
</defs>
</svg>
