<svg width="16" height="16" viewBox="0 0 16 16" fill="none" xmlns="http://www.w3.org/2000/svg">
<path d="M14.4373 6.66986C14.5439 6.38947 14.6028 6.08559 14.6028 5.7678C14.6028 4.3653 13.4658 3.22835 12.0633 3.22835C11.9652 3.22835 11.8687 3.23448 11.7735 3.24525C11.1749 1.74753 9.7116 0.688873 8.0002 0.688873C6.28875 0.688873 4.82549 1.74753 4.22688 3.24525C4.13171 3.23448 4.03514 3.22835 3.93708 3.22835C2.53459 3.22835 1.39764 4.3653 1.39764 5.7678C1.39764 6.08559 1.4565 6.38947 1.5631 6.66986C0.853312 7.12014 0.381836 7.91237 0.381836 8.81514C0.381836 10.2176 1.51879 11.3546 2.92128 11.3546C3.44329 11.3546 3.92834 11.1968 4.33184 10.9267C5.27336 11.4188 5.91783 12.4046 5.91783 13.5385V15.4177H10.0317V13.5385C10.0317 12.393 10.6894 11.3988 11.6466 10.9119C12.0544 11.191 12.5476 11.3546 13.0791 11.3546C14.4816 11.3546 15.6185 10.2176 15.6185 8.81514C15.6186 7.91237 15.1471 7.12014 14.4373 6.66986ZM7.23837 12.2052C6.9317 11.2261 6.29658 10.3909 5.46272 9.82916C5.90316 9.4974 6.23203 9.02569 6.38353 8.48C6.6544 8.59763 6.94083 8.6856 7.23837 8.74226V12.2052ZM8.76204 12.0535V8.7422C9.05958 8.68551 9.34607 8.59754 9.61688 8.47994C9.7657 9.01587 10.0857 9.48032 10.5143 9.81107C9.71062 10.3439 9.0885 11.1295 8.76204 12.0535Z" fill="#23A67E"/>
</svg>
