<svg width="107" height="107" viewBox="0 0 107 107" fill="none" xmlns="http://www.w3.org/2000/svg">
<path d="M106.809 0.142132H72.6625V34.5129H106.809V0.142132ZM100.827 28.4848H78.6526V6.17018H100.827V28.4848ZM83.6624 10.7686H95.8172V23.0086H83.6624V10.7686ZM0.739299 34.3624H34.8856V0H0.739299V34.3624ZM6.72944 6.01969H28.9038V28.3343H6.72944V6.01969ZM11.7392 10.6348H23.894V22.8665H11.7392V10.6348ZM-0.00012207 106.632H34.1545V72.2614H-0.00012207V106.632ZM5.99002 78.2811H28.1643V100.604H5.99002V78.2811ZM11.0081 82.8878H23.1629V95.1195H11.0081V82.8878ZM39.7874 68.0894H43.3598V71.9269H47.2979V67.9723H43.7254V64.2351H50.6959V56.7857H43.2768V64.1181H40.1197V60.1718H36.1733V64.1264H39.7874V68.0894ZM39.7458 80.8394H43.6839V84.794H39.7458V80.8394ZM38.7239 100.838H42.662V104.793H38.7239V100.838ZM41.7148 75.1207H45.6529V79.092H41.7148V75.1207ZM4.66903 48.3749H8.61538V44.4119H4.66903V40.5744H0.739299V44.5374H4.66903V48.3749ZM6.64636 64.1181H10.5844V67.7132H14.5224V63.7418H10.5844V60.6233H14.5224V56.652H10.5844V60.1635H7.19469V54.01H0.739299V60.5063H6.64636V64.1181ZM96.4237 39.3119H106.992V49.9384H96.4237V39.3119ZM99.9795 51.4266H105.272V56.7523H99.9795V51.4266ZM98.1434 56.0333H101.807V59.7203H98.1434V56.0333ZM101.708 75.1207H107V80.4465H101.708V75.1207ZM104.3 100.144H100.137V107H106.958V100.236V97.5441H104.3V100.144ZM97.4456 97.7531H100.104V100.429H97.4456V97.7531ZM75.2796 78.1556V72.8215H70.5356V66.7517H64.1633V73.156H70.0039V78.1556H75.2796ZM102.887 83.1219H97.5951V88.4226H101.691V92.2768H106.983V86.9594H102.887V83.1219ZM71.2003 92.2685V86.9511H66.4647V83.1219H61.1807V88.4226H65.9163V92.2768C65.9163 92.2768 71.2003 92.2768 71.2003 92.2685ZM84.6594 42.5559H89.9517V47.8733H84.6594V42.5559ZM58.4557 58.6335H63.7479V63.9592H58.4557V58.6335ZM74.9389 55.9664H69.2063V66.6179H79.7825V56.8359H84.2523V64.2686H91.713V57.4713H95.2356V53.5167H91.2893V56.7523H84.4351V47.2797H75.9525V42.4973H80.8958V37.18H75.6202V41.3937H70.1036V47.2797H74.9389V55.9664ZM54.7253 91.1147H59.544V95.9639H54.7253V91.1147ZM63.2079 30.6252H59.0289V34.8306H62.9503V41.3937H70.0205V34.2872H63.2079V30.6252ZM60.8567 22.8414H65.0357V27.0468H60.8567V22.8414ZM40.3274 20.7596H44.4981V24.965H40.3274V20.7596ZM45.2873 32.7655H52.4988V25.1907H59.0289V16.5876H50.4882V24.9316H44.7141V32.7321H38.1507V39.9139H45.2873V32.7655ZM60.2087 5.90264H67.3453V13.0845H60.2087V5.90264ZM43.418 15.9856H50.5547V8.79544H45.3787V5.90264H38.2421V13.0845H43.418V15.9856ZM65.9246 49.5788H61.1143V44.2113H55.822V39.8303H46.9988V43.5592H41.7148V52.4298H50.5297V48.7093H53.9776V51.3931H59.976V55.5818H65.9246V49.5788ZM22.6062 40.1898H32.5842V50.231H22.6062V40.1898ZM56.927 84.1335V79.6857H52.6898V75.5722H48.2782V80.0117H52.5154V84.1335H56.927ZM84.2108 78.373H87.3097V74.4184H83.6292V71.1745H79.6912V75.1375H83.3633V78.373H75.3959V87.2437H82.6987V95.5375H93.2749V84.886H84.2108C84.2108 84.8944 84.2108 78.373 84.2108 78.373ZM89.9766 78.1556H98.7915V70.8735H103.17V65.832H106.958V60.5063H101.666V65.5561H97.8776V69.2766H89.9766V78.1556ZM51.4104 66.6179H60.2253V75.4886H51.4104V66.6179ZM13.8495 48.9936V55.4982H19.3744V60.5063H22.6062V66.0912H32.5842V56.05H25.8298V54.01H20.3049V48.9936H13.8495ZM76.2931 89.4509H80.2312V93.4055H76.2931V89.4509ZM50.7042 87.6032H40.6929V97.6778H48.2616V100.679H43.7171V105.529H48.5358V103.096H55.2487V96.0726H50.7042V87.6032ZM57.1264 98.7146H65.2766V106.908H57.1264V98.7146ZM69.979 94.9773H78.1292V103.171H69.979V94.9773ZM82.6904 99.3918H90.2425V106.983H82.6904V99.3918Z" fill="white"/>
</svg>
